<svg width="18" height="13" viewBox="0 0 18 13" fill="none" xmlns="http://www.w3.org/2000/svg">
<path d="M9.33399 12.0989C10.0232 11.7357 10.7288 11.467 11.4511 11.2929C12.1733 11.1187 12.912 11.0316 13.6673 11.0316C14.1534 11.0316 14.596 11.0556 14.995 11.1037C15.3941 11.1518 15.725 11.241 15.9877 11.3714C16.1161 11.4247 16.2336 11.4167 16.3404 11.3472C16.4473 11.2778 16.5007 11.1683 16.5007 11.0187V2.33932C16.5007 2.24307 16.4739 2.15759 16.4204 2.08286C16.3671 2.00814 16.2763 1.94405 16.1482 1.89057C15.662 1.7421 15.2173 1.63446 14.814 1.56766C14.4107 1.50085 13.9451 1.46745 13.4173 1.46745C12.7037 1.46745 11.9986 1.57134 11.3019 1.77911C10.6054 1.98689 9.9494 2.28474 9.33399 2.67266V12.0989ZM9.00065 13.0043C8.88426 13.0043 8.78517 12.9706 8.70336 12.9033C8.62169 12.8361 8.53114 12.7768 8.43169 12.7256C7.81211 12.3954 7.16739 12.1417 6.49753 11.9643C5.82767 11.787 5.14121 11.6983 4.43815 11.6983C4.14329 11.6983 3.84225 11.686 3.53503 11.6614C3.22794 11.6368 2.92482 11.6561 2.62565 11.7191C2.1844 11.8815 1.77551 11.8764 1.39898 11.7039C1.02232 11.5314 0.833984 11.247 0.833984 10.8506V2.35849C0.833984 2.11057 0.905582 1.88807 1.04878 1.69099C1.19197 1.49391 1.36822 1.34675 1.57753 1.24953C2.00058 1.023 2.45496 0.891614 2.94065 0.855364C3.42621 0.818976 3.91148 0.800781 4.39648 0.800781C5.21273 0.800781 5.98808 0.897448 6.72253 1.09078C7.45711 1.28425 8.21649 1.60536 9.00065 2.05411C9.78482 1.60536 10.5442 1.28425 11.2788 1.09078C12.0132 0.897448 12.7886 0.800781 13.6048 0.800781C14.0343 0.800781 14.4675 0.815503 14.9044 0.844948C15.3415 0.874253 15.7507 0.960503 16.1321 1.1037C16.4109 1.21481 16.6566 1.37585 16.8692 1.58682C17.0818 1.79779 17.1882 2.05502 17.1882 2.35849V10.8506C17.1882 11.2053 17.017 11.467 16.6746 11.6358C16.3321 11.8045 15.9573 11.8355 15.5502 11.7287C15.1925 11.6763 14.8402 11.6581 14.4934 11.6741C14.1467 11.6902 13.8019 11.6983 13.459 11.6983C12.7698 11.6983 12.1007 11.7835 11.4517 11.9539C10.8027 12.1243 10.1822 12.3815 9.59044 12.7256C9.491 12.7907 9.39697 12.8534 9.30836 12.9137C9.21961 12.9741 9.11704 13.0043 9.00065 13.0043Z" fill="#5F6368"/>
</svg>
