<svg width="39" height="39" viewBox="0 0 39 39" fill="none" xmlns="http://www.w3.org/2000/svg">
<g clip-path="url(#clip0_7561_99238)">
<rect x="0.930664" y="0.234375" width="38" height="38" rx="19" fill="#EAECF0"/>
<path d="M26.1896 6.99653H15.863V6.47852H26.1896V6.99653ZM15.8776 6.9525H26.1761V6.52578H15.8766L15.8776 6.9525Z" fill="#475467"/>
<path d="M17.9178 6.50586H17.0864V6.9766H17.9178V6.50586Z" fill="#475467"/>
<path d="M20.3038 6.50586H19.4724V6.9766H20.3038V6.50586Z" fill="#475467"/>
<path d="M22.6903 6.50586H21.8589V6.9766H22.6903V6.50586Z" fill="#475467"/>
<path d="M25.0768 6.50586H24.2454V6.9766H25.0768V6.50586Z" fill="#475467"/>
<path d="M17.9767 7.77031C18.1684 7.77031 18.3238 7.61492 18.3238 7.42324C18.3238 7.23156 18.1684 7.07617 17.9767 7.07617C17.785 7.07617 17.6296 7.23156 17.6296 7.42324C17.6296 7.61492 17.785 7.77031 17.9767 7.77031Z" fill="#667085"/>
<path d="M16.7248 7.77031C16.9164 7.77031 17.0718 7.61492 17.0718 7.42324C17.0718 7.23156 16.9164 7.07617 16.7248 7.07617C16.5331 7.07617 16.3777 7.23156 16.3777 7.42324C16.3777 7.61492 16.5331 7.77031 16.7248 7.77031Z" fill="#667085"/>
<path d="M16.0858 7.38885C16.2088 7.38885 16.3085 7.28912 16.3085 7.1661C16.3085 7.04309 16.2088 6.94336 16.0858 6.94336C15.9628 6.94336 15.863 7.04309 15.863 7.1661C15.863 7.28912 15.9628 7.38885 16.0858 7.38885Z" fill="#667085"/>
<path d="M16.8683 9.1263C16.8553 9.1263 16.845 8.77923 16.845 8.34928C16.845 7.91933 16.8553 7.57227 16.8683 7.57227C16.8812 7.57227 16.8909 7.91933 16.8909 8.34928C16.8909 8.77923 16.8806 9.1263 16.8683 9.1263Z" fill="#667085"/>
<path d="M17.8335 9.1263C17.8212 9.1263 17.8108 8.77923 17.8108 8.34928C17.8108 7.91933 17.8212 7.57227 17.8335 7.57227C17.8458 7.57227 17.8568 7.91933 17.8568 8.34928C17.8568 8.77923 17.8464 9.1263 17.8335 9.1263Z" fill="#667085"/>
<path d="M16.6768 8.97837C16.6768 9.00039 16.95 10.2358 16.95 10.2358H17.683L17.9524 8.97837L17.3165 8.71289L16.6768 8.97837Z" fill="#667085"/>
<path d="M18.3226 6.85352H16.1968V7.42203H18.3226V6.85352Z" fill="#475467"/>
<path d="M18.3221 7.42445C18.321 7.41087 18.321 7.39724 18.3221 7.38366C18.3221 7.35387 18.3221 7.31891 18.3188 7.27099C18.3188 7.16933 18.3143 7.02947 18.3111 6.85658L18.3247 6.87018C17.8403 6.87601 17.0678 6.87924 16.1989 6.87924L16.2222 6.85658V7.00098C16.2222 7.04954 16.2222 7.09681 16.2222 7.14473V7.4238L16.1995 7.40114C16.803 7.40114 17.3307 7.40697 17.7108 7.4115L18.1589 7.41798L18.2813 7.42122C18.2959 7.4202 18.3106 7.4202 18.3253 7.42122C18.3125 7.4239 18.2995 7.42499 18.2864 7.42445H18.1692L17.7263 7.43093C17.3476 7.43546 16.8121 7.43999 16.1995 7.44129H16.1775V6.8514C16.2235 6.80543 16.1898 6.83845 16.2002 6.82809C17.0691 6.82809 17.8416 6.82809 18.3259 6.83716H18.3389V6.8514C18.3389 7.02817 18.3331 7.16998 18.3311 7.27423C18.3311 7.31826 18.3311 7.35452 18.3311 7.38366C18.3303 7.39766 18.3273 7.41144 18.3221 7.42445Z" fill="#667085"/>
<path d="M23.8583 7.77031C24.05 7.77031 24.2054 7.61492 24.2054 7.42324C24.2054 7.23156 24.05 7.07617 23.8583 7.07617C23.6666 7.07617 23.5112 7.23156 23.5112 7.42324C23.5112 7.61492 23.6666 7.77031 23.8583 7.77031Z" fill="#667085"/>
<path d="M25.1103 7.77031C25.3019 7.77031 25.4573 7.61492 25.4573 7.42324C25.4573 7.23156 25.3019 7.07617 25.1103 7.07617C24.9186 7.07617 24.7632 7.23156 24.7632 7.42324C24.7632 7.61492 24.9186 7.77031 25.1103 7.77031Z" fill="#667085"/>
<path d="M25.7484 7.38885C25.8714 7.38885 25.9711 7.28912 25.9711 7.1661C25.9711 7.04309 25.8714 6.94336 25.7484 6.94336C25.6254 6.94336 25.5256 7.04309 25.5256 7.1661C25.5256 7.28912 25.6254 7.38885 25.7484 7.38885Z" fill="#667085"/>
<path d="M24.9676 9.1263C24.9799 9.1263 24.9903 8.77923 24.9903 8.34928C24.9903 7.91933 24.9799 7.57227 24.9676 7.57227C24.9553 7.57227 24.9443 7.91933 24.9443 8.34928C24.9443 8.77923 24.9547 9.1263 24.9676 9.1263Z" fill="#667085"/>
<path d="M24.0012 9.1263C24.0141 9.1263 24.0245 8.77923 24.0245 8.34928C24.0245 7.91933 24.0141 7.57227 24.0012 7.57227C23.9882 7.57227 23.9785 7.91933 23.9785 8.34928C23.9785 8.77923 23.9889 9.1263 24.0012 9.1263Z" fill="#667085"/>
<path d="M25.158 8.97837C25.158 9.00039 24.8847 10.2358 24.8847 10.2358H24.1517L23.8862 8.97837L24.5221 8.71289L25.158 8.97837Z" fill="#667085"/>
<path d="M25.637 6.85352H23.5112V7.42203H25.637V6.85352Z" fill="#475467"/>
<path d="M23.5099 7.42253C23.5123 7.40907 23.5133 7.39541 23.5132 7.38174C23.5132 7.35195 23.5132 7.31699 23.5132 7.26907C23.5132 7.16741 23.5177 7.02755 23.5209 6.85466L23.5067 6.86826C23.991 6.87409 24.7635 6.87733 25.6325 6.87733L25.6098 6.85466V7.14281C25.6098 7.23734 25.6098 7.33059 25.6098 7.42189L25.6318 7.39922C25.029 7.39922 24.5013 7.40505 24.1212 7.40958L23.6724 7.41606L23.5507 7.4193C23.5358 7.41831 23.5209 7.41831 23.506 7.4193C23.5188 7.42192 23.5318 7.42301 23.5449 7.42253H23.6621L24.1056 7.42901C24.4844 7.43354 25.0193 7.43807 25.6318 7.43937H25.6558V7.13763C25.6558 7.08971 25.6558 7.04244 25.6558 6.99388V6.84948L25.6325 6.82617C24.7635 6.82617 23.991 6.82617 23.5067 6.83524H23.4924V6.84948C23.4957 7.02625 23.4983 7.16806 23.5002 7.27231C23.5002 7.31634 23.5002 7.3526 23.5041 7.38174C23.5043 7.39553 23.5062 7.40924 23.5099 7.42253Z" fill="#667085"/>
<path d="M17.1985 9.96484C17.2075 9.96484 17.2153 11.4606 17.2153 13.306C17.2153 15.1514 17.2075 16.6472 17.1985 16.6472C17.1894 16.6472 17.1816 15.1514 17.1816 13.306C17.1816 11.4606 17.1888 9.96484 17.1985 9.96484Z" fill="#667085"/>
<path d="M24.6277 10.0117C24.6374 10.0117 24.6445 11.5075 24.6445 13.3529C24.6445 15.1983 24.6374 16.6941 24.6277 16.6941C24.618 16.6941 24.6108 15.1983 24.6108 13.3529C24.6108 11.5075 24.6206 10.0117 24.6277 10.0117Z" fill="#667085"/>
<path d="M26.1412 27.2437L21.1865 33.2754L22.3884 34.2626L27.3431 28.2309L26.1412 27.2437Z" fill="#4E535C"/>
<path d="M21.4503 33.4892C21.4433 33.4834 22.5536 32.1196 23.93 30.4439C25.3065 28.7682 26.4288 27.4142 26.4358 27.42C26.4428 27.4257 25.3329 28.7891 23.956 30.4653C22.5792 32.1414 21.4573 33.495 21.4503 33.4892Z" fill="#263238"/>
<path d="M22.1241 34.0458C22.1166 34.0397 23.2274 32.6762 24.6039 31.0005C25.9803 29.3249 27.1021 27.9705 27.1096 27.9766C27.1171 27.9828 26.0068 29.3458 24.6299 31.0219C23.253 32.6981 22.1311 34.0516 22.1241 34.0458Z" fill="#263238"/>
<path d="M24.5171 31.1478C24.3924 31.067 24.2739 30.9769 24.1626 30.8785C24.0445 30.7884 23.9331 30.6897 23.8296 30.5831C23.9545 30.6636 24.073 30.7537 24.184 30.8524C24.3025 30.9422 24.4138 31.0409 24.5171 31.1478Z" fill="#263238"/>
<path d="M17.4425 12.8223H16.9536V13.8557H17.4425V12.8223Z" fill="white"/>
<path d="M16.9541 13.6598L17.443 13.5161V13.2422L16.9541 13.4021V13.6598Z" fill="#475467"/>
<path d="M16.9541 13.8557H17.443V13.666L16.9541 13.7916V13.8557Z" fill="#475467"/>
<path d="M16.9536 13.2399L17.4425 13.0962V12.8223L16.9536 12.9822V13.2399Z" fill="#475467"/>
<path d="M17.444 13.8588C17.4412 13.8322 17.4399 13.8054 17.4402 13.7785C17.4402 13.7229 17.4402 13.649 17.4356 13.5629C17.4356 13.379 17.4291 13.1233 17.4285 12.8254L17.444 12.8416H16.9552L16.972 12.8247V13.1161C16.972 13.2107 16.972 13.302 16.972 13.3894C16.972 13.5629 16.972 13.7209 16.9688 13.8569L16.9565 13.8446L17.3106 13.8511L17.4091 13.8543C17.4211 13.8533 17.4333 13.8533 17.4453 13.8543C17.4348 13.8556 17.4241 13.8556 17.4136 13.8543L17.3178 13.8575L16.9565 13.864H16.9442V13.8517C16.9442 13.7157 16.9442 13.5577 16.9409 13.3842C16.9409 13.2968 16.9409 13.2055 16.9409 13.111V12.8196L16.9578 12.8027H17.4628V12.8183C17.4628 13.1226 17.4583 13.3836 17.455 13.5662C17.455 13.6529 17.4518 13.7241 17.4505 13.7785C17.4505 13.8054 17.4483 13.8323 17.444 13.8588Z" fill="#263238"/>
<path d="M24.8751 12.7617H24.3862V13.7952H24.8751V12.7617Z" fill="white"/>
<path d="M24.3862 13.5986L24.8751 13.4555V13.1816L24.3862 13.3416V13.5986Z" fill="#475467"/>
<path d="M24.3862 13.7952H24.8751V13.6055L24.3862 13.7311V13.7952Z" fill="#475467"/>
<path d="M24.3862 13.1794L24.8751 13.0356V12.7617L24.3862 12.9217V13.1794Z" fill="#475467"/>
<path d="M24.875 13.7944C24.8723 13.7677 24.871 13.7409 24.8712 13.7141C24.8712 13.6584 24.8712 13.5846 24.8666 13.4978C24.8666 13.3146 24.8602 13.0588 24.8589 12.7609L24.875 12.7771H24.3862L24.403 12.7603V12.9066C24.403 12.9552 24.403 13.0031 24.403 13.051C24.403 13.1456 24.403 13.2369 24.403 13.3243C24.403 13.4978 24.403 13.6558 24.403 13.7918L24.3907 13.7795L24.7442 13.786L24.8433 13.7892C24.8554 13.7878 24.8675 13.7878 24.8796 13.7892C24.869 13.79 24.8584 13.79 24.8479 13.7892L24.752 13.7924L24.3907 13.7989H24.3784V13.7866C24.3784 13.6506 24.3784 13.4926 24.3784 13.3191C24.3784 13.2317 24.3784 13.1404 24.3784 13.0459V12.7551C24.3855 12.7473 24.3616 12.772 24.3952 12.7383H24.9003V12.7545C24.9003 13.0588 24.8958 13.3197 24.8925 13.5023C24.8925 13.5891 24.8925 13.6603 24.888 13.7147C24.8858 13.7416 24.8815 13.7682 24.875 13.7944Z" fill="#263238"/>
<path d="M17.443 13.9414H16.9541V14.1661H17.443V13.9414Z" fill="#263238"/>
<path d="M24.7796 13.9414H24.2908V14.1661H24.7796V13.9414Z" fill="#263238"/>
<g opacity="0.1">
<path d="M-4.19556 20.5938V21.1953L-3.5448 21.679H0.52548L1.13026 21.1843L1.14321 20.5938H-4.19556Z" fill="#4E535C"/>
<path opacity="0.3" d="M-4.19531 21.1946L1.1305 21.1836L0.527666 21.6783H-3.54456L-4.19531 21.1946Z" fill="black"/>
<path d="M1.12903 21.1965C1.12903 21.2056 -0.0636959 21.2134 -1.53485 21.2134C-3.00601 21.2134 -4.19873 21.2056 -4.19873 21.1965C-4.19873 21.1875 -3.00601 21.1797 -1.53485 21.1797C-0.0636959 21.1797 1.12903 21.1875 1.12903 21.1965Z" fill="#263238"/>
<path d="M10.5037 20.5938V21.1953L11.1544 21.679H15.2253L15.8301 21.1843L15.8424 20.5938H10.5037Z" fill="#4E535C"/>
<path d="M15.2264 21.6758H11.1328V22.1919H15.2264V21.6758Z" fill="#4E535C"/>
<path d="M14.6735 22.1934H11.7681V32.4868H14.6735V22.1934Z" fill="#4E535C"/>
<path opacity="0.3" d="M14.6366 22.6945C14.5543 22.6945 12.2297 24.415 12.2297 24.415V30.0859H11.7681V22.1934H14.6735L14.6366 22.6945Z" fill="black"/>
<path opacity="0.3" d="M10.5034 21.1946L15.8299 21.1836L15.2264 21.6783H11.1542L10.5034 21.1946Z" fill="black"/>
<path d="M15.2214 21.6783C15.2214 21.688 14.3045 21.6932 13.1739 21.6906C12.0433 21.688 11.1265 21.6789 11.1265 21.6692C11.1265 21.6595 12.0427 21.6543 13.1739 21.6569C14.3051 21.6595 15.2214 21.6692 15.2214 21.6783Z" fill="#263238"/>
<path d="M15.8284 21.1947C15.8284 21.2038 14.6266 21.2109 13.1451 21.2096C11.6635 21.2083 10.4624 21.1999 10.4624 21.1908C10.4624 21.1818 11.6635 21.1746 13.1451 21.1759C14.6266 21.1772 15.8284 21.1856 15.8284 21.1947Z" fill="#263238"/>
<path d="M5.46371 18.4688H5.13672V19.0094H5.46371V18.4688Z" fill="#4E535C"/>
<path d="M5.75877 18.3809H4.84448V18.4922H5.75877V18.3809Z" fill="#4E535C"/>
<path d="M5.77491 18.4876C5.61883 18.5046 5.46171 18.5103 5.30481 18.5044C5.14791 18.5103 4.9908 18.5046 4.83472 18.4876C4.99082 18.4709 5.14791 18.4653 5.30481 18.4708C5.46171 18.4653 5.6188 18.4709 5.77491 18.4876Z" fill="#263238"/>
<path d="M11.0975 18.4688H10.7705V19.0094H11.0975V18.4688Z" fill="#4E535C"/>
<path d="M11.3928 18.3809H10.4785V18.4922H11.3928V18.3809Z" fill="#4E535C"/>
<path d="M11.4087 18.4876C11.2526 18.5046 11.0955 18.5103 10.9386 18.5044C10.7817 18.5103 10.6246 18.5046 10.4685 18.4876C10.6246 18.4709 10.7817 18.4653 10.9386 18.4708C11.0955 18.4653 11.2526 18.4709 11.4087 18.4876Z" fill="#263238"/>
<path d="M18.3182 20.0723H17.5386V20.3649H18.3182V20.0723Z" fill="#4E535C"/>
<path d="M17.8992 19.2324H17.5386V19.5251H17.8992V19.2324Z" fill="#4E535C"/>
<path d="M17.5396 19.0078H-4.19873V20.591H17.5396V19.0078Z" fill="#4E535C"/>
<path d="M-4.12866 19.3469C-4.12866 19.3378 0.719559 19.3301 6.70293 19.3301C12.6863 19.3301 17.5356 19.3378 17.5356 19.3469C17.5356 19.356 12.6874 19.3637 6.70293 19.3637C0.718445 19.3637 -4.12866 19.3566 -4.12866 19.3469Z" fill="#263238"/>
<path d="M-4.18311 20.22C-4.18311 20.2109 0.67849 20.2031 6.67468 20.2031C12.6709 20.2031 17.5336 20.2109 17.5336 20.22C17.5336 20.229 12.6731 20.2355 6.67635 20.2355C0.679605 20.2355 -4.18311 20.2297 -4.18311 20.22Z" fill="#263238"/>
<path d="M9.98879 20.2426C9.97175 20.0974 9.96612 19.951 9.97195 19.8049C9.96612 19.6588 9.97175 19.5124 9.98879 19.3672C10.0054 19.5125 10.0111 19.6588 10.0056 19.8049C10.0111 19.951 10.0054 20.0974 9.98879 20.2426Z" fill="#263238"/>
<path d="M1.86696 20.2426C1.84993 20.0974 1.8443 19.951 1.85012 19.8049C1.8443 19.6588 1.84993 19.5124 1.86696 19.3672C1.88361 19.5125 1.88923 19.6588 1.88379 19.8049C1.88923 19.951 1.88361 20.0974 1.86696 20.2426Z" fill="#263238"/>
<path d="M17.211 20.5992C17.211 20.6083 12.4185 20.6141 6.50811 20.6121C0.59774 20.6102 -4.19531 20.6011 -4.19531 20.5921C-4.19531 20.583 0.597182 20.5765 6.50811 20.5785C12.419 20.5804 17.211 20.5895 17.211 20.5992Z" fill="#263238"/>
<path d="M17.211 19.0071C17.211 19.0161 12.4185 19.0239 6.50811 19.0239C0.59774 19.0239 -4.19531 19.0161 -4.19531 19.0071C-4.19531 18.998 0.597182 18.9902 6.50811 18.9902C12.419 18.9902 17.211 18.9974 17.211 19.0071Z" fill="#263238"/>
<path d="M17.5459 20.5683C17.5368 20.5683 17.5291 20.2173 17.5291 19.7854C17.5291 19.3536 17.5368 19.002 17.5459 19.002C17.555 19.002 17.5627 19.3529 17.5627 19.7854C17.5627 20.218 17.5562 20.5683 17.5459 20.5683Z" fill="#263238"/>
<path d="M32.4704 20.5938V21.1953L31.8196 21.679H27.7487L27.1439 21.1843L27.1316 20.5938H32.4704Z" fill="#4E535C"/>
<path d="M27.7472 22.1934H31.8408V21.6773H27.7472V22.1934Z" fill="#4E535C"/>
<path d="M28.2967 30.0859H31.2021V22.1914H28.2967V30.0859Z" fill="#4E535C"/>
<path opacity="0.3" d="M28.3348 22.6945C28.417 22.6945 30.7416 24.415 30.7416 24.415V30.0859H31.2033V22.1934H28.2979L28.3348 22.6945Z" fill="black"/>
<path opacity="0.3" d="M32.471 21.1946L27.1445 21.1836L27.748 21.6783H31.8202L32.471 21.1946Z" fill="black"/>
<path d="M27.748 21.6782C27.748 21.6692 28.6649 21.6595 29.7955 21.6569C30.9261 21.6543 31.8429 21.6601 31.8429 21.6692C31.8429 21.6782 30.9267 21.6886 29.7955 21.6905C28.6643 21.6925 27.748 21.6879 27.748 21.6782Z" fill="#263238"/>
<path d="M27.1445 21.1947C27.1445 21.1857 28.3463 21.1772 29.8278 21.1759C31.3094 21.1747 32.5105 21.1811 32.5105 21.1908C32.5105 21.2006 31.31 21.2083 29.8278 21.2096C28.3457 21.2109 27.1445 21.207 27.1445 21.1947Z" fill="#263238"/>
<path d="M31.8725 19.0078H32.1995V18.4671H31.8725V19.0078Z" fill="#4E535C"/>
<path d="M31.5808 18.4941H32.4951V18.3828H31.5808V18.4941Z" fill="#4E535C"/>
<path d="M31.5642 18.4875C31.877 18.4651 32.191 18.4651 32.5038 18.4875C32.191 18.51 31.877 18.51 31.5642 18.4875Z" fill="#263238"/>
<path d="M24.652 20.3633H25.4316V20.0706H24.652V20.3633Z" fill="#4E535C"/>
<path d="M25.071 19.5273H25.4316V19.2347H25.071V19.5273Z" fill="#4E535C"/>
<path d="M25.4336 20.5938H39.2412V19.0106H25.4336V20.5938Z" fill="#4E535C"/>
<path d="M39.199 19.3469C39.199 19.3566 36.1175 19.3637 32.3173 19.3637C28.517 19.3637 25.4348 19.3566 25.4348 19.3469C25.4348 19.3372 28.5157 19.3301 32.3173 19.3301C36.1188 19.3301 39.199 19.3378 39.199 19.3469Z" fill="#263238"/>
<path d="M39.199 20.22C39.199 20.2297 36.1175 20.2368 32.3173 20.2368C28.517 20.2368 25.4348 20.2297 25.4348 20.22C25.4348 20.2102 28.5157 20.2031 32.3173 20.2031C36.1188 20.2031 39.199 20.2109 39.199 20.22Z" fill="#263238"/>
<path d="M32.9842 20.2426C32.9675 20.0974 32.9619 19.951 32.9673 19.8049C32.9619 19.6588 32.9675 19.5125 32.9842 19.3672C33.0012 19.5124 33.0068 19.6588 33.001 19.8049C33.0068 19.951 33.0012 20.0974 32.9842 20.2426Z" fill="#263238"/>
<path d="M25.6382 20.5989C25.6382 20.5892 28.6996 20.582 32.4753 20.582C36.251 20.582 39.3137 20.5892 39.3137 20.5989C39.3137 20.6086 36.2529 20.6157 32.4753 20.6157C28.6977 20.6157 25.6382 20.6079 25.6382 20.5989Z" fill="#263238"/>
<path d="M25.6382 19.0071C25.6382 18.9974 28.6996 18.9902 32.4753 18.9902C36.251 18.9902 39.3137 18.9974 39.3137 19.0071C39.3137 19.0168 36.2529 19.0239 32.4753 19.0239C28.6977 19.0239 25.6382 19.0161 25.6382 19.0071Z" fill="#263238"/>
<path d="M25.4263 20.5683C25.4165 20.5683 25.4094 20.2173 25.4094 19.7854C25.4094 19.3536 25.4165 19.002 25.4263 19.002C25.436 19.002 25.4431 19.3529 25.4431 19.7854C25.4431 20.218 25.4353 20.5683 25.4263 20.5683Z" fill="#263238"/>
</g>
<path d="M9.55225 22.4961V23.0976L10.203 23.5813H14.2739L14.8787 23.0866L14.891 22.4961H9.55225Z" fill="#4E535C"/>
<path d="M14.2752 23.5762H10.1816V24.0922H14.2752V23.5762Z" fill="#4E535C"/>
<path d="M13.7228 24.0957H10.8174V31.9902H13.7228V24.0957Z" fill="#4E535C"/>
<path opacity="0.3" d="M13.6859 24.5969C13.6036 24.5969 11.2791 26.3173 11.2791 26.3173V31.9883H10.8174V24.0957H13.7228L13.6859 24.5969Z" fill="black"/>
<path opacity="0.3" d="M9.55225 23.0969L14.8787 23.0859L14.2752 23.5806H10.203L9.55225 23.0969Z" fill="black"/>
<path d="M14.2702 23.5767C14.2702 23.5864 13.3533 23.5916 12.2227 23.589C11.0922 23.5864 10.1753 23.5774 10.1753 23.5677C10.1753 23.5579 11.0915 23.5528 12.2227 23.5554C13.3539 23.5579 14.2702 23.5677 14.2702 23.5767Z" fill="#263238"/>
<path d="M14.8772 23.0971C14.8772 23.1061 13.6754 23.1132 12.1939 23.1119C10.7124 23.1107 9.51123 23.1022 9.51123 23.0932C9.51123 23.0841 10.7124 23.077 12.1939 23.0783C13.6754 23.0796 14.8772 23.088 14.8772 23.0971Z" fill="#263238"/>
<path d="M4.51254 20.3691H4.18555V20.9098H4.51254V20.3691Z" fill="#4E535C"/>
<path d="M4.8076 20.2832H3.89331V20.3946H4.8076V20.2832Z" fill="#4E535C"/>
<path d="M4.82423 20.388C4.66815 20.405 4.51103 20.4107 4.35413 20.4048C4.19723 20.4107 4.04011 20.405 3.88403 20.388C4.04014 20.3713 4.19723 20.3657 4.35413 20.3712C4.51103 20.3657 4.66812 20.3713 4.82423 20.388Z" fill="#263238"/>
<path d="M10.1463 20.3691H9.81934V20.9098H10.1463V20.3691Z" fill="#4E535C"/>
<path d="M10.4382 20.2832H9.52393V20.3946H10.4382V20.2832Z" fill="#4E535C"/>
<path d="M10.458 20.388C10.3019 20.405 10.1448 20.4107 9.98792 20.4048C9.83102 20.4107 9.6739 20.405 9.51782 20.388C9.67393 20.3713 9.83102 20.3657 9.98792 20.3712C10.1448 20.3657 10.3019 20.3713 10.458 20.388Z" fill="#263238"/>
<path d="M17.367 21.9727H16.5874V22.2653H17.367V21.9727Z" fill="#4E535C"/>
<path d="M16.9481 21.1348H16.5874V21.4274H16.9481V21.1348Z" fill="#4E535C"/>
<path d="M16.5884 20.9102H-5.1499V22.4933H16.5884V20.9102Z" fill="#4E535C"/>
<path d="M-5.07983 21.2453C-5.07983 21.2363 -0.231613 21.2285 5.75176 21.2285C11.7351 21.2285 16.5845 21.2363 16.5845 21.2453C16.5845 21.2544 11.7362 21.2622 5.75176 21.2622C-0.232727 21.2622 -5.07983 21.2551 -5.07983 21.2453Z" fill="#263238"/>
<path d="M-5.13379 22.1184C-5.13379 22.1093 -0.272193 22.1016 5.724 22.1016C11.7202 22.1016 16.5829 22.1093 16.5829 22.1184C16.5829 22.1275 11.7224 22.1339 5.72567 22.1339C-0.271079 22.1339 -5.13379 22.1281 -5.13379 22.1184Z" fill="#263238"/>
<path d="M9.03761 22.145C9.02058 21.9997 9.01495 21.8534 9.02078 21.7073C9.01495 21.5611 9.02058 21.4148 9.03761 21.2695C9.05426 21.4148 9.05989 21.5611 9.05445 21.7073C9.05989 21.8534 9.05426 21.9997 9.03761 22.145Z" fill="#263238"/>
<path d="M0.916276 22.145C0.899242 21.9997 0.893613 21.8534 0.899441 21.7073C0.893613 21.5611 0.899242 21.4148 0.916276 21.2695C0.932922 21.4148 0.938549 21.5611 0.933111 21.7073C0.938549 21.8534 0.932922 21.9997 0.916276 22.145Z" fill="#263238"/>
<path d="M16.2598 22.5015C16.2598 22.5106 11.4673 22.5164 5.55694 22.5145C-0.353432 22.5125 -5.14648 22.5035 -5.14648 22.4944C-5.14648 22.4853 -0.35399 22.4789 5.55694 22.4808C11.4679 22.4828 16.2598 22.4918 16.2598 22.5015Z" fill="#263238"/>
<path d="M16.2598 20.9094C16.2598 20.9185 11.4673 20.9262 5.55694 20.9262C-0.353432 20.9262 -5.14648 20.9185 -5.14648 20.9094C-5.14648 20.9003 -0.35399 20.8926 5.55694 20.8926C11.4679 20.8926 16.2598 20.8997 16.2598 20.9094Z" fill="#263238"/>
<path d="M16.5947 22.4687C16.5857 22.4687 16.5779 22.1177 16.5779 21.6858C16.5779 21.2539 16.5857 20.9023 16.5947 20.9023C16.6038 20.9023 16.6116 21.2533 16.6116 21.6858C16.6116 22.1184 16.6051 22.4687 16.5947 22.4687Z" fill="#263238"/>
<path d="M31.5192 22.4961V23.0976L30.8684 23.5813H26.7975L26.1927 23.0866L26.1804 22.4961H31.5192Z" fill="#4E535C"/>
<path d="M26.7961 24.0957H30.8896V23.5796H26.7961V24.0957Z" fill="#4E535C"/>
<path d="M27.3456 31.9883H30.251V24.0938H27.3456V31.9883Z" fill="#4E535C"/>
<path opacity="0.3" d="M27.3836 24.5969C27.4658 24.5969 29.7904 26.3173 29.7904 26.3173V31.9883H30.2521V24.0957H27.3467L27.3836 24.5969Z" fill="black"/>
<path opacity="0.3" d="M31.5198 23.0969L26.1934 23.0859L26.7968 23.5806H30.8691L31.5198 23.0969Z" fill="black"/>
<path d="M26.7969 23.5767C26.7969 23.5676 27.7138 23.5579 28.8443 23.5553C29.9749 23.5527 30.8918 23.5585 30.8918 23.5676C30.8918 23.5767 29.9755 23.587 28.8443 23.589C27.7131 23.5909 26.7969 23.5864 26.7969 23.5767Z" fill="#263238"/>
<path d="M26.1934 23.0971C26.1934 23.088 27.3951 23.0796 28.8767 23.0783C30.3582 23.077 31.5593 23.0835 31.5593 23.0932C31.5593 23.1029 30.3588 23.1107 28.8767 23.112C27.3945 23.1133 26.1934 23.1094 26.1934 23.0971Z" fill="#263238"/>
<path d="M30.9213 20.9102H31.2483V20.3695H30.9213V20.9102Z" fill="#4E535C"/>
<path d="M30.6301 20.3926H31.5444V20.2812H30.6301V20.3926Z" fill="#4E535C"/>
<path d="M30.613 20.3899C30.9258 20.3674 31.2398 20.3674 31.5526 20.3899C31.2398 20.4123 30.9258 20.4123 30.613 20.3899Z" fill="#263238"/>
<path d="M23.7009 22.2656H24.4805V21.9729H23.7009V22.2656Z" fill="#4E535C"/>
<path d="M24.1198 21.4297H24.4805V21.137H24.1198V21.4297Z" fill="#4E535C"/>
<path d="M24.4828 22.4961L39.009 22.4961V20.9129H24.4828V22.4961Z" fill="#4E535C"/>
<path d="M38.2479 21.2453C38.2479 21.2551 35.1664 21.2622 31.3661 21.2622C27.5658 21.2622 24.4836 21.2551 24.4836 21.2453C24.4836 21.2356 27.5645 21.2285 31.3661 21.2285C35.1676 21.2285 38.2479 21.2363 38.2479 21.2453Z" fill="#263238"/>
<path d="M38.2479 22.1184C38.2479 22.1281 35.1664 22.1352 31.3661 22.1352C27.5658 22.1352 24.4836 22.1281 24.4836 22.1184C24.4836 22.1087 27.5645 22.1016 31.3661 22.1016C35.1676 22.1016 38.2479 22.1093 38.2479 22.1184Z" fill="#263238"/>
<path d="M32.033 22.145C32.0164 21.9997 32.0107 21.8534 32.0162 21.7073C32.0107 21.5611 32.0164 21.4148 32.033 21.2695C32.05 21.4148 32.0557 21.5611 32.0498 21.7073C32.0557 21.8534 32.05 21.9997 32.033 22.145Z" fill="#263238"/>
<path d="M24.687 22.5012C24.687 22.4915 27.7485 22.4844 31.5241 22.4844C35.2998 22.4844 38.3625 22.4915 38.3625 22.5012C38.3625 22.5109 35.3017 22.518 31.5241 22.518C27.7465 22.518 24.687 22.5103 24.687 22.5012Z" fill="#263238"/>
<path d="M24.687 20.9094C24.687 20.8997 27.7485 20.8926 31.5241 20.8926C35.2998 20.8926 38.3625 20.8997 38.3625 20.9094C38.3625 20.9191 35.3017 20.9262 31.5241 20.9262C27.7465 20.9262 24.687 20.9185 24.687 20.9094Z" fill="#263238"/>
<path d="M24.4751 22.4687C24.4654 22.4687 24.4583 22.1177 24.4583 21.6858C24.4583 21.2539 24.4654 20.9023 24.4751 20.9023C24.4848 20.9023 24.4919 21.2533 24.4919 21.6858C24.4919 22.1184 24.4842 22.4687 24.4751 22.4687Z" fill="#263238"/>
<mask id="path-128-inside-1_7561_99238" fill="white">
<path d="M0.914062 16.5195H21.3184V19.8601H0.914062V16.5195Z"/>
</mask>
<path d="M0.914062 16.5195H21.3184V19.8601H0.914062V16.5195Z" fill="#EAECF0" fill-opacity="0.91"/>
<path d="M0.914062 16.5453H21.3184V16.4938H0.914062V16.5453Z" fill="#98A2B3" mask="url(#path-128-inside-1_7561_99238)"/>
</g>
<defs>
<clipPath id="clip0_7561_99238">
<rect x="0.930664" y="0.234375" width="38" height="38" rx="19" fill="white"/>
</clipPath>
</defs>
</svg>
