<svg width="18" height="18" viewBox="0 0 18 18" fill="none" xmlns="http://www.w3.org/2000/svg">
<path d="M3.75 12.5C3.5375 12.5 3.35938 12.4281 3.21563 12.2844C3.07188 12.1406 3 11.9625 3 11.75C3 11.5375 3.07188 11.3594 3.21563 11.2156C3.35938 11.0719 3.5375 11 3.75 11H14.25C14.4625 11 14.6406 11.0719 14.7844 11.2156C14.9281 11.3594 15 11.5375 15 11.75C15 11.9625 14.9281 12.1406 14.7844 12.2844C14.6406 12.4281 14.4625 12.5 14.25 12.5H3.75ZM3.75 6.5C3.5375 6.5 3.35938 6.42813 3.21563 6.28438C3.07188 6.14063 3 5.9625 3 5.75C3 5.5375 3.07188 5.35938 3.21563 5.21563C3.35938 5.07188 3.5375 5 3.75 5H14.25C14.4625 5 14.6406 5.07188 14.7844 5.21563C14.9281 5.35938 15 5.5375 15 5.75C15 5.9625 14.9281 6.14063 14.7844 6.28438C14.6406 6.42813 14.4625 6.5 14.25 6.5H3.75Z" fill="white"/>
</svg>
