<svg width="16" height="8" viewBox="0 0 16 8" fill="none" xmlns="http://www.w3.org/2000/svg">
<path d="M4.06482 7.2312C3.17093 7.2312 2.40898 6.91578 1.77898 6.28495C1.14898 5.65425 0.833984 4.89148 0.833984 3.99662C0.833984 3.10162 1.14898 2.34002 1.77898 1.71182C2.40898 1.08363 3.17093 0.769531 4.06482 0.769531H6.3469C6.44135 0.769531 6.52051 0.801128 6.5844 0.864323C6.64829 0.927517 6.68023 1.00578 6.68023 1.09911C6.68023 1.19245 6.64829 1.27196 6.5844 1.33766C6.52051 1.40335 6.44135 1.4362 6.3469 1.4362H4.06294C3.35905 1.4362 2.756 1.68731 2.25378 2.18953C1.75169 2.69162 1.50065 3.29523 1.50065 4.00037C1.50065 4.7055 1.75169 5.30912 2.25378 5.8112C2.756 6.31342 3.35905 6.56453 4.06294 6.56453H6.3469C6.44135 6.56453 6.52051 6.59606 6.5844 6.65911C6.64829 6.72231 6.68023 6.80057 6.68023 6.89391C6.68023 6.98738 6.64829 7.06696 6.5844 7.13266C6.52051 7.19835 6.44135 7.2312 6.3469 7.2312H4.06482ZM5.75648 4.3337C5.66232 4.3337 5.58225 4.3021 5.51628 4.23891C5.4503 4.17585 5.41732 4.09759 5.41732 4.00411C5.41732 3.91078 5.44919 3.83127 5.51294 3.76557C5.57669 3.69988 5.65565 3.66703 5.74982 3.66703H10.2448C10.339 3.66703 10.4191 3.69863 10.485 3.76182C10.551 3.82488 10.584 3.90314 10.584 3.99662C10.584 4.08995 10.5521 4.16946 10.4884 4.23516C10.4246 4.30085 10.3457 4.3337 10.2515 4.3337H5.75648ZM9.6544 7.2312C9.55996 7.2312 9.48079 7.1996 9.4169 7.13641C9.35301 7.07321 9.32107 6.99495 9.32107 6.90162C9.32107 6.80828 9.35301 6.72877 9.4169 6.66307C9.48079 6.59738 9.55996 6.56453 9.6544 6.56453H11.9384C12.6422 6.56453 13.2453 6.31342 13.7475 5.8112C14.2496 5.30912 14.5007 4.7055 14.5007 4.00037C14.5007 3.29523 14.2496 2.69162 13.7475 2.18953C13.2453 1.68731 12.6422 1.4362 11.9384 1.4362H9.6544C9.55996 1.4362 9.48079 1.40467 9.4169 1.34162C9.35301 1.27842 9.32107 1.20016 9.32107 1.10682C9.32107 1.01335 9.35301 0.933768 9.4169 0.868074C9.48079 0.802379 9.55996 0.769531 9.6544 0.769531H11.9365C12.8304 0.769531 13.5923 1.08495 14.2223 1.71578C14.8523 2.34648 15.1673 3.10925 15.1673 4.00411C15.1673 4.89912 14.8523 5.66071 14.2223 6.28891C13.5923 6.9171 12.8304 7.2312 11.9365 7.2312H9.6544Z" fill="#5F6368"/>
</svg>
