<svg width="204" height="204" viewBox="0 0 204 204" fill="none" xmlns="http://www.w3.org/2000/svg">
<g filter="url(#filter0_i_1782_24870)">
<rect width="204" height="204" rx="10" fill="#040506"/>
<g filter="url(#filter1_i_1782_24870)">
<g clip-path="url(#clip0_1782_24870)">
<rect x="3" y="3" width="198" height="198" rx="10" fill="url(#paint0_linear_1782_24870)"/>
<g clip-path="url(#clip1_1782_24870)">
<path d="M48 -82L-81 47" stroke="#272727" stroke-width="0.5"/>
<path d="M50 -80L-79 49" stroke="#272727" stroke-width="0.5"/>
<path d="M52 -78L-77 51" stroke="#272727" stroke-width="0.5"/>
<path d="M54 -76L-75 53" stroke="#272727" stroke-width="0.5"/>
<path d="M56 -74L-73 55" stroke="#272727" stroke-width="0.5"/>
<path d="M58 -72L-71 57" stroke="#272727" stroke-width="0.5"/>
<path d="M60 -70L-69 59" stroke="#272727" stroke-width="0.5"/>
<path d="M62 -68L-67 61" stroke="#272727" stroke-width="0.5"/>
<path d="M64 -66L-65 63" stroke="#272727" stroke-width="0.5"/>
<path d="M66 -64L-63 65" stroke="#272727" stroke-width="0.5"/>
<path d="M68 -62L-61 67" stroke="#272727" stroke-width="0.5"/>
<path d="M70 -60L-59 69" stroke="#272727" stroke-width="0.5"/>
<path d="M72 -58L-57 71" stroke="#272727" stroke-width="0.5"/>
<path d="M74 -56L-55 73" stroke="#272727" stroke-width="0.5"/>
<path d="M76 -54L-53 75" stroke="#272727" stroke-width="0.5"/>
<path d="M78 -52L-51 77" stroke="#272727" stroke-width="0.5"/>
<path d="M80 -50L-49 79" stroke="#272727" stroke-width="0.5"/>
<path d="M82 -48L-47 81" stroke="#272727" stroke-width="0.5"/>
<path d="M84 -46L-45 83" stroke="#272727" stroke-width="0.5"/>
<path d="M86 -44L-43 85" stroke="#272727" stroke-width="0.5"/>
<path d="M88 -42L-41 87" stroke="#272727" stroke-width="0.5"/>
<path d="M90 -40L-39 89" stroke="#272727" stroke-width="0.5"/>
<path d="M92 -38L-37 91" stroke="#272727" stroke-width="0.5"/>
<path d="M94 -36L-35 93" stroke="#272727" stroke-width="0.5"/>
<path d="M96 -34L-33 95" stroke="#272727" stroke-width="0.5"/>
<path d="M98 -32L-31 97" stroke="#272727" stroke-width="0.5"/>
<path d="M100 -30L-29 99" stroke="#272727" stroke-width="0.5"/>
<path d="M102 -28L-27 101" stroke="#272727" stroke-width="0.5"/>
<path d="M104 -26L-25 103" stroke="#272727" stroke-width="0.5"/>
<path d="M106 -24L-23 105" stroke="#272727" stroke-width="0.5"/>
<path d="M108 -22L-21 107" stroke="#272727" stroke-width="0.5"/>
<path d="M110 -20L-19 109" stroke="#272727" stroke-width="0.5"/>
<path d="M112 -18L-17 111" stroke="#272727" stroke-width="0.5"/>
<path d="M114 -16L-15 113" stroke="#272727" stroke-width="0.5"/>
<path d="M116 -14L-13 115" stroke="#272727" stroke-width="0.5"/>
<path d="M118 -12L-11 117" stroke="#272727" stroke-width="0.5"/>
<path d="M120 -10L-9 119" stroke="#272727" stroke-width="0.5"/>
<path d="M122 -8L-7 121" stroke="#272727" stroke-width="0.5"/>
<path d="M124 -6L-5 123" stroke="#272727" stroke-width="0.5"/>
<path d="M126 -4L-3 125" stroke="#272727" stroke-width="0.5"/>
<path d="M128 -2L-1 127" stroke="#272727" stroke-width="0.5"/>
<path d="M130 0L1 129" stroke="#272727" stroke-width="0.5"/>
<path d="M132 2L3 131" stroke="#272727" stroke-width="0.5"/>
<path d="M134 4L5 133" stroke="#272727" stroke-width="0.5"/>
<path d="M136 6L7 135" stroke="#272727" stroke-width="0.5"/>
<path d="M138 8L9 137" stroke="#272727" stroke-width="0.5"/>
<path d="M140 10L11 139" stroke="#272727" stroke-width="0.5"/>
<path d="M142 12L13 141" stroke="#272727" stroke-width="0.5"/>
<path d="M144 14L15 143" stroke="#272727" stroke-width="0.5"/>
<path d="M146 16L17 145" stroke="#272727" stroke-width="0.5"/>
<path d="M148 18L19 147" stroke="#272727" stroke-width="0.5"/>
<path d="M150 20L21 149" stroke="#272727" stroke-width="0.5"/>
<path d="M152 22L23 151" stroke="#272727" stroke-width="0.5"/>
<path d="M154 24L25 153" stroke="#272727" stroke-width="0.5"/>
<path d="M156 26L27 155" stroke="#272727" stroke-width="0.5"/>
</g>
<g clip-path="url(#clip2_1782_24870)">
<path d="M156 -82L285 47" stroke="#272727" stroke-width="0.5"/>
<path d="M154 -80L283 49" stroke="#272727" stroke-width="0.5"/>
<path d="M152 -78L281 51" stroke="#272727" stroke-width="0.5"/>
<path d="M150 -76L279 53" stroke="#272727" stroke-width="0.5"/>
<path d="M148 -74L277 55" stroke="#272727" stroke-width="0.5"/>
<path d="M146 -72L275 57" stroke="#272727" stroke-width="0.5"/>
<path d="M144 -70L273 59" stroke="#272727" stroke-width="0.5"/>
<path d="M142 -68L271 61" stroke="#272727" stroke-width="0.5"/>
<path d="M140 -66L269 63" stroke="#272727" stroke-width="0.5"/>
<path d="M138 -64L267 65" stroke="#272727" stroke-width="0.5"/>
<path d="M136 -62L265 67" stroke="#272727" stroke-width="0.5"/>
<path d="M134 -60L263 69" stroke="#272727" stroke-width="0.5"/>
<path d="M132 -58L261 71" stroke="#272727" stroke-width="0.5"/>
<path d="M130 -56L259 73" stroke="#272727" stroke-width="0.5"/>
<path d="M128 -54L257 75" stroke="#272727" stroke-width="0.5"/>
<path d="M126 -52L255 77" stroke="#272727" stroke-width="0.5"/>
<path d="M124 -50L253 79" stroke="#272727" stroke-width="0.5"/>
<path d="M122 -48L251 81" stroke="#272727" stroke-width="0.5"/>
<path d="M120 -46L249 83" stroke="#272727" stroke-width="0.5"/>
<path d="M118 -44L247 85" stroke="#272727" stroke-width="0.5"/>
<path d="M116 -42L245 87" stroke="#272727" stroke-width="0.5"/>
<path d="M114 -40L243 89" stroke="#272727" stroke-width="0.5"/>
<path d="M112 -38L241 91" stroke="#272727" stroke-width="0.5"/>
<path d="M110 -36L239 93" stroke="#272727" stroke-width="0.5"/>
<path d="M108 -34L237 95" stroke="#272727" stroke-width="0.5"/>
<path d="M106 -32L235 97" stroke="#272727" stroke-width="0.5"/>
<path d="M104 -30L233 99" stroke="#272727" stroke-width="0.5"/>
<path d="M102 -28L231 101" stroke="#272727" stroke-width="0.5"/>
<path d="M100 -26L229 103" stroke="#272727" stroke-width="0.5"/>
<path d="M98 -24L227 105" stroke="#272727" stroke-width="0.5"/>
<path d="M96 -22L225 107" stroke="#272727" stroke-width="0.5"/>
<path d="M94 -20L223 109" stroke="#272727" stroke-width="0.5"/>
<path d="M92 -18L221 111" stroke="#272727" stroke-width="0.5"/>
<path d="M90 -16L219 113" stroke="#272727" stroke-width="0.5"/>
<path d="M88 -14L217 115" stroke="#272727" stroke-width="0.5"/>
<path d="M86 -12L215 117" stroke="#272727" stroke-width="0.5"/>
<path d="M84 -10L213 119" stroke="#272727" stroke-width="0.5"/>
<path d="M82 -8L211 121" stroke="#272727" stroke-width="0.5"/>
<path d="M80 -6L209 123" stroke="#272727" stroke-width="0.5"/>
<path d="M78 -4L207 125" stroke="#272727" stroke-width="0.5"/>
<path d="M76 -2L205 127" stroke="#272727" stroke-width="0.5"/>
<path d="M74 0L203 129" stroke="#272727" stroke-width="0.5"/>
<path d="M72 2L201 131" stroke="#272727" stroke-width="0.5"/>
<path d="M70 4L199 133" stroke="#272727" stroke-width="0.5"/>
<path d="M68 6L197 135" stroke="#272727" stroke-width="0.5"/>
<path d="M66 8L195 137" stroke="#272727" stroke-width="0.5"/>
<path d="M64 10L193 139" stroke="#272727" stroke-width="0.5"/>
<path d="M62 12L191 141" stroke="#272727" stroke-width="0.5"/>
<path d="M60 14L189 143" stroke="#272727" stroke-width="0.5"/>
<path d="M58 16L187 145" stroke="#272727" stroke-width="0.5"/>
<path d="M56 18L185 147" stroke="#272727" stroke-width="0.5"/>
<path d="M54 20L183 149" stroke="#272727" stroke-width="0.5"/>
<path d="M52 22L181 151" stroke="#272727" stroke-width="0.5"/>
<path d="M50 24L179 153" stroke="#272727" stroke-width="0.5"/>
<path d="M48 26L177 155" stroke="#272727" stroke-width="0.5"/>
</g>
<g clip-path="url(#clip3_1782_24870)">
<path d="M156 286L285 157" stroke="#272727" stroke-width="0.5"/>
<path d="M154 284L283 155" stroke="#272727" stroke-width="0.5"/>
<path d="M152 282L281 153" stroke="#272727" stroke-width="0.5"/>
<path d="M150 280L279 151" stroke="#272727" stroke-width="0.5"/>
<path d="M148 278L277 149" stroke="#272727" stroke-width="0.5"/>
<path d="M146 276L275 147" stroke="#272727" stroke-width="0.5"/>
<path d="M144 274L273 145" stroke="#272727" stroke-width="0.5"/>
<path d="M142 272L271 143" stroke="#272727" stroke-width="0.5"/>
<path d="M140 270L269 141" stroke="#272727" stroke-width="0.5"/>
<path d="M138 268L267 139" stroke="#272727" stroke-width="0.5"/>
<path d="M136 266L265 137" stroke="#272727" stroke-width="0.5"/>
<path d="M134 264L263 135" stroke="#272727" stroke-width="0.5"/>
<path d="M132 262L261 133" stroke="#272727" stroke-width="0.5"/>
<path d="M130 260L259 131" stroke="#272727" stroke-width="0.5"/>
<path d="M128 258L257 129" stroke="#272727" stroke-width="0.5"/>
<path d="M126 256L255 127" stroke="#272727" stroke-width="0.5"/>
<path d="M124 254L253 125" stroke="#272727" stroke-width="0.5"/>
<path d="M122 252L251 123" stroke="#272727" stroke-width="0.5"/>
<path d="M120 250L249 121" stroke="#272727" stroke-width="0.5"/>
<path d="M118 248L247 119" stroke="#272727" stroke-width="0.5"/>
<path d="M116 246L245 117" stroke="#272727" stroke-width="0.5"/>
<path d="M114 244L243 115" stroke="#272727" stroke-width="0.5"/>
<path d="M112 242L241 113" stroke="#272727" stroke-width="0.5"/>
<path d="M110 240L239 111" stroke="#272727" stroke-width="0.5"/>
<path d="M108 238L237 109" stroke="#272727" stroke-width="0.5"/>
<path d="M106 236L235 107" stroke="#272727" stroke-width="0.5"/>
<path d="M104 234L233 105" stroke="#272727" stroke-width="0.5"/>
<path d="M102 232L231 103" stroke="#272727" stroke-width="0.5"/>
<path d="M100 230L229 101" stroke="#272727" stroke-width="0.5"/>
<path d="M98 228L227 99" stroke="#272727" stroke-width="0.5"/>
<path d="M96 226L225 97" stroke="#272727" stroke-width="0.5"/>
<path d="M94 224L223 95" stroke="#272727" stroke-width="0.5"/>
<path d="M92 222L221 93" stroke="#272727" stroke-width="0.5"/>
<path d="M90 220L219 91" stroke="#272727" stroke-width="0.5"/>
<path d="M88 218L217 89" stroke="#272727" stroke-width="0.5"/>
<path d="M86 216L215 87" stroke="#272727" stroke-width="0.5"/>
<path d="M84 214L213 85" stroke="#272727" stroke-width="0.5"/>
<path d="M82 212L211 83" stroke="#272727" stroke-width="0.5"/>
<path d="M80 210L209 81" stroke="#272727" stroke-width="0.5"/>
<path d="M78 208L207 79" stroke="#272727" stroke-width="0.5"/>
<path d="M76 206L205 77" stroke="#272727" stroke-width="0.5"/>
<path d="M74 204L203 75" stroke="#272727" stroke-width="0.5"/>
<path d="M72 202L201 73" stroke="#272727" stroke-width="0.5"/>
<path d="M70 200L199 71" stroke="#272727" stroke-width="0.5"/>
<path d="M68 198L197 69" stroke="#272727" stroke-width="0.5"/>
<path d="M66 196L195 67" stroke="#272727" stroke-width="0.5"/>
<path d="M64 194L193 65" stroke="#272727" stroke-width="0.5"/>
<path d="M62 192L191 63" stroke="#272727" stroke-width="0.5"/>
<path d="M60 190L189 61" stroke="#272727" stroke-width="0.5"/>
<path d="M58 188L187 59" stroke="#272727" stroke-width="0.5"/>
<path d="M56 186L185 57" stroke="#272727" stroke-width="0.5"/>
<path d="M54 184L183 55" stroke="#272727" stroke-width="0.5"/>
<path d="M52 182L181 53" stroke="#272727" stroke-width="0.5"/>
<path d="M50 180L179 51" stroke="#272727" stroke-width="0.5"/>
<path d="M48 178L177 49" stroke="#272727" stroke-width="0.5"/>
</g>
<g clip-path="url(#clip4_1782_24870)">
<path d="M48 286L-81 157" stroke="#272727" stroke-width="0.5"/>
<path d="M50 284L-79 155" stroke="#272727" stroke-width="0.5"/>
<path d="M52 282L-77 153" stroke="#272727" stroke-width="0.5"/>
<path d="M54 280L-75 151" stroke="#272727" stroke-width="0.5"/>
<path d="M56 278L-73 149" stroke="#272727" stroke-width="0.5"/>
<path d="M58 276L-71 147" stroke="#272727" stroke-width="0.5"/>
<path d="M60 274L-69 145" stroke="#272727" stroke-width="0.5"/>
<path d="M62 272L-67 143" stroke="#272727" stroke-width="0.5"/>
<path d="M64 270L-65 141" stroke="#272727" stroke-width="0.5"/>
<path d="M66 268L-63 139" stroke="#272727" stroke-width="0.5"/>
<path d="M68 266L-61 137" stroke="#272727" stroke-width="0.5"/>
<path d="M70 264L-59 135" stroke="#272727" stroke-width="0.5"/>
<path d="M72 262L-57 133" stroke="#272727" stroke-width="0.5"/>
<path d="M74 260L-55 131" stroke="#272727" stroke-width="0.5"/>
<path d="M76 258L-53 129" stroke="#272727" stroke-width="0.5"/>
<path d="M78 256L-51 127" stroke="#272727" stroke-width="0.5"/>
<path d="M80 254L-49 125" stroke="#272727" stroke-width="0.5"/>
<path d="M82 252L-47 123" stroke="#272727" stroke-width="0.5"/>
<path d="M84 250L-45 121" stroke="#272727" stroke-width="0.5"/>
<path d="M86 248L-43 119" stroke="#272727" stroke-width="0.5"/>
<path d="M88 246L-41 117" stroke="#272727" stroke-width="0.5"/>
<path d="M90 244L-39 115" stroke="#272727" stroke-width="0.5"/>
<path d="M92 242L-37 113" stroke="#272727" stroke-width="0.5"/>
<path d="M94 240L-35 111" stroke="#272727" stroke-width="0.5"/>
<path d="M96 238L-33 109" stroke="#272727" stroke-width="0.5"/>
<path d="M98 236L-31 107" stroke="#272727" stroke-width="0.5"/>
<path d="M100 234L-29 105" stroke="#272727" stroke-width="0.5"/>
<path d="M102 232L-27 103" stroke="#272727" stroke-width="0.5"/>
<path d="M104 230L-25 101" stroke="#272727" stroke-width="0.5"/>
<path d="M106 228L-23 99" stroke="#272727" stroke-width="0.5"/>
<path d="M108 226L-21 97" stroke="#272727" stroke-width="0.5"/>
<path d="M110 224L-19 95" stroke="#272727" stroke-width="0.5"/>
<path d="M112 222L-17 93" stroke="#272727" stroke-width="0.5"/>
<path d="M114 220L-15 91" stroke="#272727" stroke-width="0.5"/>
<path d="M116 218L-13 89" stroke="#272727" stroke-width="0.5"/>
<path d="M118 216L-11 87" stroke="#272727" stroke-width="0.5"/>
<path d="M120 214L-9.00001 85" stroke="#272727" stroke-width="0.5"/>
<path d="M122 212L-7.00001 83" stroke="#272727" stroke-width="0.5"/>
<path d="M124 210L-5.00001 81" stroke="#272727" stroke-width="0.5"/>
<path d="M126 208L-3.00001 79" stroke="#272727" stroke-width="0.5"/>
<path d="M128 206L-1.00001 77" stroke="#272727" stroke-width="0.5"/>
<path d="M130 204L0.999989 75" stroke="#272727" stroke-width="0.5"/>
<path d="M132 202L2.99999 73" stroke="#272727" stroke-width="0.5"/>
<path d="M134 200L4.99999 71" stroke="#272727" stroke-width="0.5"/>
<path d="M136 198L6.99999 69" stroke="#272727" stroke-width="0.5"/>
<path d="M138 196L8.99999 67" stroke="#272727" stroke-width="0.5"/>
<path d="M140 194L11 65" stroke="#272727" stroke-width="0.5"/>
<path d="M142 192L13 63" stroke="#272727" stroke-width="0.5"/>
<path d="M144 190L15 61" stroke="#272727" stroke-width="0.5"/>
<path d="M146 188L17 59" stroke="#272727" stroke-width="0.5"/>
<path d="M148 186L19 57" stroke="#272727" stroke-width="0.5"/>
<path d="M150 184L21 55" stroke="#272727" stroke-width="0.5"/>
<path d="M152 182L23 53" stroke="#272727" stroke-width="0.5"/>
<path d="M154 180L25 51" stroke="#272727" stroke-width="0.5"/>
<path d="M156 178L27 49" stroke="#272727" stroke-width="0.5"/>
</g>
<g filter="url(#filter2_b_1782_24870)">
<path fill-rule="evenodd" clip-rule="evenodd" d="M201 3H3V201H201V3ZM149 90H55V114H149V90Z" fill="url(#paint1_linear_1782_24870)"/>
</g>
<path d="M51.7999 103.567H42.0667C41.4776 103.567 41 103.089 41 102.5C41 101.911 41.4776 101.433 42.0667 101.433H51.7999C52.3412 101.433 52.6122 100.779 52.2295 100.396L48.7195 96.8862C48.2853 96.452 48.2853 95.748 48.7195 95.3138C49.1644 94.869 49.8894 94.8815 50.3186 95.3414L55.8592 101.278C56.5016 101.966 56.5016 103.034 55.8592 103.722L50.3186 109.659C49.8894 110.119 49.1644 110.131 48.7195 109.686C48.2853 109.252 48.2853 108.548 48.7195 108.114L52.2295 104.604C52.6122 104.221 52.3412 103.567 51.7999 103.567Z" fill="#414141"/>
<path d="M70.5732 108.4C67.3205 108.4 65.238 106.478 65 103.684L66.785 103.567C67.0627 105.624 68.3519 106.769 70.6129 106.769C72.5764 106.769 73.7268 106.013 73.7268 104.596C73.7268 103.315 73.0723 102.539 69.7006 101.724C66.4479 100.928 65.2975 99.9772 65.2975 97.9201C65.2975 95.6107 67.0825 94 69.9782 94C73.0723 94 74.897 95.863 75.2143 98.3858L73.4293 98.5023C73.1913 96.8333 72.0409 95.6301 69.9386 95.6301C68.1932 95.6301 67.0825 96.5228 67.0825 97.8425C67.0825 99.1427 67.7965 99.6084 70.7716 100.326C74.302 101.18 75.5118 102.5 75.5118 104.479C75.5118 106.886 73.4491 108.4 70.5732 108.4Z" fill="#414141"/>
<path d="M81.7284 108.322C79.626 108.322 78.2774 106.866 78.2774 104.421V97.8037H79.9434V103.975C79.9434 105.974 80.6574 106.886 82.1648 106.886C83.8308 106.886 84.8423 105.78 84.8423 103.936V97.8037H86.5083V108.089H84.9216V106.42C84.3465 107.643 83.2358 108.322 81.7284 108.322Z" fill="#414141"/>
<path d="M89.6856 111V97.8037H91.2326L91.2524 99.3756C91.8871 98.1918 93.0573 97.5708 94.4853 97.5708C97.619 97.5708 99.0272 100.113 99.0272 102.946C99.0272 105.78 97.619 108.322 94.4853 108.322C93.1168 108.322 91.9069 107.72 91.3516 106.731V111H89.6856ZM94.3266 106.769C96.1513 106.769 97.2818 105.353 97.2818 102.946C97.2818 100.54 96.1513 99.1233 94.3266 99.1233C92.5019 99.1233 91.3516 100.424 91.3516 102.946C91.3516 105.469 92.4821 106.769 94.3266 106.769Z" fill="#414141"/>
<path d="M105.607 108.322C102.632 108.322 100.788 106.207 100.788 102.946C100.788 99.6861 102.632 97.5708 105.528 97.5708C108.265 97.5708 110.169 99.5114 110.169 102.966V103.451H102.533C102.652 105.663 103.783 106.769 105.607 106.769C106.976 106.769 107.868 106.09 108.225 105.042L110.011 105.178C109.455 107.022 107.829 108.322 105.607 108.322ZM108.345 102.015C108.186 100.035 107.075 99.1233 105.528 99.1233C103.902 99.1233 102.811 100.113 102.533 102.015H108.345Z" fill="#414141"/>
<path d="M112.599 108.089V97.8037H114.067L114.126 99.7055C114.503 98.4053 115.336 97.8037 116.625 97.8037H117.656V99.3562H116.645C115.058 99.3562 114.265 100.191 114.265 101.879V108.089H112.599Z" fill="#414141"/>
<path d="M124.701 108.322C123.233 108.322 122.043 107.662 121.448 106.537L121.389 108.089H119.881V94.3105H121.547V99.2397C122.063 98.3858 123.233 97.5708 124.701 97.5708C127.478 97.5708 129.223 99.6473 129.223 102.946C129.223 106.245 127.478 108.322 124.701 108.322ZM124.602 106.769C126.367 106.769 127.478 105.295 127.478 102.946C127.478 100.559 126.367 99.1233 124.642 99.1233C122.698 99.1233 121.547 100.559 121.547 102.946C121.547 105.295 122.698 106.769 124.602 106.769Z" fill="#414141"/>
<path d="M134.631 108.322C132.449 108.322 131.081 107.293 131.081 105.527C131.081 103.781 132.092 102.811 134.393 102.384L138.122 101.704C138.122 99.9772 137.289 99.1233 135.623 99.1233C134.155 99.1233 133.342 99.7831 133.024 100.967L131.259 100.831C131.656 98.8904 133.243 97.5708 135.623 97.5708C138.32 97.5708 139.788 99.1621 139.788 101.763V106.013C139.788 106.478 139.946 106.653 140.343 106.653H140.759V108.089C140.64 108.108 140.383 108.128 140.125 108.128C138.855 108.128 138.28 107.643 138.141 106.498C137.626 107.565 136.178 108.322 134.631 108.322ZM134.79 106.886C136.892 106.886 138.122 105.566 138.122 103.858V103.121L134.71 103.742C133.282 103.994 132.826 104.518 132.826 105.372C132.826 106.342 133.56 106.886 134.79 106.886Z" fill="#414141"/>
<path d="M146.74 108.322C143.924 108.322 142.357 106.866 142.198 104.848L143.944 104.732C144.142 105.974 144.955 106.769 146.74 106.769C148.168 106.769 149.1 106.342 149.1 105.333C149.1 104.518 148.684 104.169 146.423 103.781C143.408 103.257 142.456 102.345 142.456 100.715C142.456 98.8904 143.884 97.5708 146.423 97.5708C148.981 97.5708 150.33 99.0845 150.647 100.87L148.902 100.986C148.664 99.8995 147.831 99.1233 146.403 99.1233C144.896 99.1233 144.202 99.7637 144.202 100.637C144.202 101.646 144.876 102.034 146.74 102.345C149.953 102.888 150.846 103.703 150.846 105.333C150.846 107.235 149.061 108.322 146.74 108.322Z" fill="#414141"/>
<path d="M157.438 108.322C154.463 108.322 152.619 106.207 152.619 102.946C152.619 99.6861 154.463 97.5708 157.359 97.5708C160.096 97.5708 162 99.5114 162 102.966V103.451H154.364C154.483 105.663 155.614 106.769 157.438 106.769C158.807 106.769 159.699 106.09 160.056 105.042L161.841 105.178C161.286 107.022 159.66 108.322 157.438 108.322ZM160.175 102.015C160.017 100.035 158.906 99.1233 157.359 99.1233C155.733 99.1233 154.642 100.113 154.364 102.015H160.175Z" fill="#414141"/>
<path d="M21.84 159.144C20.776 159.144 19.984 158.768 19.464 158.016C18.952 157.264 18.696 156.196 18.696 154.812C18.696 153.428 18.952 152.36 19.464 151.608C19.984 150.856 20.776 150.48 21.84 150.48C22.248 150.48 22.6 150.536 22.896 150.648C23.2 150.752 23.46 150.9 23.676 151.092C23.892 151.276 24.072 151.496 24.216 151.752C24.368 152 24.492 152.268 24.588 152.556L23.376 152.964C23.312 152.772 23.24 152.592 23.16 152.424C23.08 152.256 22.98 152.112 22.86 151.992C22.74 151.872 22.596 151.776 22.428 151.704C22.268 151.632 22.068 151.596 21.828 151.596C21.236 151.596 20.804 151.824 20.532 152.28C20.26 152.728 20.124 153.336 20.124 154.104V155.52C20.124 156.288 20.26 156.9 20.532 157.356C20.804 157.804 21.236 158.028 21.828 158.028C22.068 158.028 22.268 157.992 22.428 157.92C22.596 157.848 22.74 157.752 22.86 157.632C22.98 157.512 23.08 157.368 23.16 157.2C23.24 157.032 23.312 156.852 23.376 156.66L24.588 157.068C24.492 157.356 24.368 157.628 24.216 157.884C24.072 158.132 23.892 158.352 23.676 158.544C23.46 158.728 23.2 158.876 22.896 158.988C22.6 159.092 22.248 159.144 21.84 159.144ZM28.7953 159.144C28.3393 159.144 27.9273 159.068 27.5593 158.916C27.1993 158.764 26.8913 158.548 26.6353 158.268C26.3873 157.988 26.1953 157.648 26.0593 157.248C25.9233 156.848 25.8553 156.4 25.8553 155.904C25.8553 155.408 25.9233 154.96 26.0593 154.56C26.1953 154.16 26.3873 153.82 26.6353 153.54C26.8913 153.26 27.1993 153.044 27.5593 152.892C27.9273 152.74 28.3393 152.664 28.7953 152.664C29.2513 152.664 29.6593 152.74 30.0193 152.892C30.3873 153.044 30.6953 153.26 30.9433 153.54C31.1993 153.82 31.3953 154.16 31.5313 154.56C31.6673 154.96 31.7353 155.408 31.7353 155.904C31.7353 156.4 31.6673 156.848 31.5313 157.248C31.3953 157.648 31.1993 157.988 30.9433 158.268C30.6953 158.548 30.3873 158.764 30.0193 158.916C29.6593 159.068 29.2513 159.144 28.7953 159.144ZM28.7953 158.112C29.2753 158.112 29.6553 157.968 29.9353 157.68C30.2233 157.384 30.3673 156.948 30.3673 156.372V155.436C30.3673 154.86 30.2233 154.428 29.9353 154.14C29.6553 153.844 29.2753 153.696 28.7953 153.696C28.3153 153.696 27.9313 153.844 27.6433 154.14C27.3633 154.428 27.2233 154.86 27.2233 155.436V156.372C27.2233 156.948 27.3633 157.384 27.6433 157.68C27.9313 157.968 28.3153 158.112 28.7953 158.112ZM32.9186 159V152.808H34.0346V153.612H34.0946C34.1906 153.348 34.3266 153.124 34.5026 152.94C34.6866 152.756 34.9466 152.664 35.2826 152.664C35.6106 152.664 35.8626 152.756 36.0386 152.94C36.2226 153.116 36.3386 153.36 36.3866 153.672H36.4346C36.5466 153.392 36.7026 153.156 36.9026 152.964C37.1026 152.764 37.3906 152.664 37.7666 152.664C38.2466 152.664 38.5786 152.832 38.7626 153.168C38.9546 153.504 39.0506 153.996 39.0506 154.644V159H37.9346V154.812C37.9346 154.38 37.8826 154.084 37.7786 153.924C37.6746 153.756 37.5066 153.672 37.2746 153.672C37.0666 153.672 36.8906 153.744 36.7466 153.888C36.6106 154.024 36.5426 154.232 36.5426 154.512V159H35.4266V154.812C35.4266 154.38 35.3746 154.084 35.2706 153.924C35.1746 153.756 35.0106 153.672 34.7786 153.672C34.5626 153.672 34.3826 153.744 34.2386 153.888C34.1026 154.024 34.0346 154.232 34.0346 154.512V159H32.9186ZM43.5699 151.68C43.2339 151.68 42.9979 151.612 42.8619 151.476C42.7339 151.34 42.6699 151.172 42.6699 150.972V150.72C42.6699 150.52 42.7339 150.352 42.8619 150.216C42.9979 150.08 43.2299 150.012 43.5579 150.012C43.8939 150.012 44.1259 150.08 44.2539 150.216C44.3899 150.352 44.4579 150.52 44.4579 150.72V150.972C44.4579 151.172 44.3899 151.34 44.2539 151.476C44.1259 151.612 43.8979 151.68 43.5699 151.68ZM40.7979 157.944H42.9099V153.864H40.7979V152.808H44.2179V157.944H46.1979V159H40.7979V157.944ZM47.7893 159V152.808H49.0973V153.864H49.1573C49.2213 153.704 49.3013 153.552 49.3973 153.408C49.5013 153.256 49.6253 153.128 49.7693 153.024C49.9133 152.912 50.0813 152.824 50.2733 152.76C50.4653 152.696 50.6893 152.664 50.9453 152.664C51.5693 152.664 52.0733 152.868 52.4573 153.276C52.8413 153.684 53.0333 154.264 53.0333 155.016V159H51.7253V155.208C51.7253 154.224 51.2973 153.732 50.4413 153.732C50.2733 153.732 50.1093 153.756 49.9492 153.804C49.7893 153.844 49.6453 153.908 49.5173 153.996C49.3893 154.084 49.2853 154.196 49.2053 154.332C49.1333 154.468 49.0973 154.624 49.0973 154.8V159H47.7893ZM60.8166 159.672C60.8166 160.312 60.5486 160.784 60.0126 161.088C59.4766 161.392 58.6606 161.544 57.5646 161.544C57.0286 161.544 56.5766 161.508 56.2086 161.436C55.8486 161.372 55.5526 161.276 55.3206 161.148C55.0966 161.02 54.9326 160.864 54.8286 160.68C54.7326 160.496 54.6846 160.288 54.6846 160.056C54.6846 159.72 54.7766 159.456 54.9606 159.264C55.1526 159.08 55.4206 158.944 55.7646 158.856V158.736C55.5566 158.656 55.3886 158.544 55.2606 158.4C55.1406 158.256 55.0806 158.068 55.0806 157.836C55.0806 157.532 55.1846 157.304 55.3926 157.152C55.6006 156.992 55.8686 156.872 56.1966 156.792V156.732C55.8206 156.556 55.5286 156.308 55.3206 155.988C55.1126 155.668 55.0086 155.284 55.0086 154.836C55.0086 154.508 55.0686 154.212 55.1886 153.948C55.3086 153.676 55.4766 153.448 55.6926 153.264C55.9166 153.072 56.1806 152.924 56.4846 152.82C56.7966 152.716 57.1446 152.664 57.5286 152.664C57.9606 152.664 58.3486 152.732 58.6926 152.868V152.664C58.6926 152.424 58.7606 152.224 58.8966 152.064C59.0326 151.904 59.2406 151.824 59.5206 151.824H60.6486V152.856H59.2086V153.144C59.4806 153.328 59.6886 153.564 59.8326 153.852C59.9766 154.132 60.0486 154.46 60.0486 154.836C60.0486 155.164 59.9886 155.464 59.8686 155.736C59.7486 156 59.5766 156.228 59.3526 156.42C59.1366 156.604 58.8726 156.748 58.5606 156.852C58.2566 156.948 57.9126 156.996 57.5286 156.996C57.2566 156.996 57.0006 156.972 56.7606 156.924C56.6166 156.964 56.4726 157.032 56.3286 157.128C56.1846 157.224 56.1126 157.356 56.1126 157.524C56.1126 157.716 56.2046 157.836 56.3886 157.884C56.5726 157.932 56.8006 157.956 57.0726 157.956H58.4646C59.2966 157.956 59.8966 158.116 60.2646 158.436C60.6326 158.748 60.8166 159.16 60.8166 159.672ZM59.5926 159.756C59.5926 159.548 59.5086 159.38 59.3406 159.252C59.1726 159.132 58.8686 159.072 58.4286 159.072H56.2806C55.9766 159.216 55.8246 159.448 55.8246 159.768C55.8246 160 55.9206 160.2 56.1126 160.368C56.3126 160.536 56.6406 160.62 57.0966 160.62H58.0686C58.5646 160.62 58.9406 160.544 59.1966 160.392C59.4606 160.248 59.5926 160.036 59.5926 159.756ZM57.5286 156.096C57.9526 156.096 58.2646 155.996 58.4646 155.796C58.6646 155.596 58.7646 155.328 58.7646 154.992V154.668C58.7646 154.332 58.6646 154.064 58.4646 153.864C58.2646 153.664 57.9526 153.564 57.5286 153.564C57.1046 153.564 56.7926 153.664 56.5926 153.864C56.3926 154.064 56.2926 154.332 56.2926 154.668V154.992C56.2926 155.328 56.3926 155.596 56.5926 155.796C56.7926 155.996 57.1046 156.096 57.5286 156.096ZM71.9792 159.144C71.3072 159.144 70.7272 159.036 70.2392 158.82C69.7592 158.604 69.3712 158.316 69.0752 157.956L69.8792 157.236C70.1512 157.532 70.4552 157.76 70.7912 157.92C71.1352 158.072 71.5392 158.148 72.0032 158.148C72.4272 158.148 72.7672 158.076 73.0232 157.932C73.2872 157.788 73.4192 157.564 73.4192 157.26C73.4192 157.132 73.3952 157.024 73.3472 156.936C73.2992 156.848 73.2312 156.776 73.1432 156.72C73.0552 156.664 72.9512 156.62 72.8312 156.588C72.7192 156.556 72.5992 156.532 72.4712 156.516L71.4872 156.36C71.2472 156.328 71.0032 156.276 70.7552 156.204C70.5072 156.132 70.2832 156.032 70.0832 155.904C69.8912 155.768 69.7312 155.596 69.6032 155.388C69.4832 155.18 69.4232 154.916 69.4232 154.596C69.4232 153.964 69.6632 153.484 70.1432 153.156C70.6312 152.828 71.2712 152.664 72.0632 152.664C72.6392 152.664 73.1352 152.752 73.5512 152.928C73.9752 153.096 74.3272 153.332 74.6072 153.636L73.8752 154.404C73.7152 154.22 73.4872 154.052 73.1912 153.9C72.8952 153.74 72.5032 153.66 72.0152 153.66C71.1432 153.66 70.7072 153.936 70.7072 154.488C70.7072 154.752 70.7992 154.936 70.9832 155.04C71.1752 155.136 71.3992 155.2 71.6552 155.232L72.6392 155.388C72.8872 155.428 73.1312 155.48 73.3712 155.544C73.6192 155.608 73.8392 155.708 74.0312 155.844C74.2312 155.972 74.3912 156.14 74.5112 156.348C74.6392 156.556 74.7032 156.82 74.7032 157.14C74.7032 157.764 74.4592 158.256 73.9712 158.616C73.4912 158.968 72.8272 159.144 71.9792 159.144ZM79.1625 159.144C78.7065 159.144 78.2945 159.068 77.9265 158.916C77.5665 158.764 77.2585 158.548 77.0025 158.268C76.7545 157.988 76.5625 157.648 76.4265 157.248C76.2905 156.848 76.2225 156.4 76.2225 155.904C76.2225 155.408 76.2905 154.96 76.4265 154.56C76.5625 154.16 76.7545 153.82 77.0025 153.54C77.2585 153.26 77.5665 153.044 77.9265 152.892C78.2945 152.74 78.7065 152.664 79.1625 152.664C79.6185 152.664 80.0265 152.74 80.3865 152.892C80.7545 153.044 81.0625 153.26 81.3105 153.54C81.5665 153.82 81.7625 154.16 81.8985 154.56C82.0345 154.96 82.1025 155.408 82.1025 155.904C82.1025 156.4 82.0345 156.848 81.8985 157.248C81.7625 157.648 81.5665 157.988 81.3105 158.268C81.0625 158.548 80.7545 158.764 80.3865 158.916C80.0265 159.068 79.6185 159.144 79.1625 159.144ZM79.1625 158.112C79.6425 158.112 80.0225 157.968 80.3025 157.68C80.5905 157.384 80.7345 156.948 80.7345 156.372V155.436C80.7345 154.86 80.5905 154.428 80.3025 154.14C80.0225 153.844 79.6425 153.696 79.1625 153.696C78.6825 153.696 78.2985 153.844 78.0105 154.14C77.7305 154.428 77.5905 154.86 77.5905 155.436V156.372C77.5905 156.948 77.7305 157.384 78.0105 157.68C78.2985 157.968 78.6825 158.112 79.1625 158.112ZM86.3578 159.144C85.9018 159.144 85.4898 159.068 85.1218 158.916C84.7618 158.764 84.4538 158.548 84.1978 158.268C83.9498 157.988 83.7578 157.648 83.6218 157.248C83.4858 156.848 83.4178 156.4 83.4178 155.904C83.4178 155.408 83.4858 154.96 83.6218 154.56C83.7578 154.16 83.9498 153.82 84.1978 153.54C84.4538 153.26 84.7618 153.044 85.1218 152.892C85.4898 152.74 85.9018 152.664 86.3578 152.664C86.8138 152.664 87.2218 152.74 87.5818 152.892C87.9498 153.044 88.2578 153.26 88.5058 153.54C88.7618 153.82 88.9578 154.16 89.0938 154.56C89.2298 154.96 89.2978 155.408 89.2978 155.904C89.2978 156.4 89.2298 156.848 89.0938 157.248C88.9578 157.648 88.7618 157.988 88.5058 158.268C88.2578 158.548 87.9498 158.764 87.5818 158.916C87.2218 159.068 86.8138 159.144 86.3578 159.144ZM86.3578 158.112C86.8378 158.112 87.2178 157.968 87.4978 157.68C87.7858 157.384 87.9298 156.948 87.9298 156.372V155.436C87.9298 154.86 87.7858 154.428 87.4978 154.14C87.2178 153.844 86.8378 153.696 86.3578 153.696C85.8778 153.696 85.4938 153.844 85.2058 154.14C84.9258 154.428 84.7858 154.86 84.7858 155.436V156.372C84.7858 156.948 84.9258 157.384 85.2058 157.68C85.4938 157.968 85.8778 158.112 86.3578 158.112ZM90.9611 159V152.808H92.2691V153.864H92.3291C92.3931 153.704 92.4731 153.552 92.5691 153.408C92.6731 153.256 92.7971 153.128 92.9411 153.024C93.0851 152.912 93.2531 152.824 93.4451 152.76C93.6371 152.696 93.8611 152.664 94.1171 152.664C94.7411 152.664 95.2451 152.868 95.6291 153.276C96.0131 153.684 96.2051 154.264 96.2051 155.016V159H94.8971V155.208C94.8971 154.224 94.4691 153.732 93.6131 153.732C93.4451 153.732 93.2811 153.756 93.1211 153.804C92.9611 153.844 92.8171 153.908 92.6891 153.996C92.5611 154.084 92.4571 154.196 92.3771 154.332C92.3051 154.468 92.2691 154.624 92.2691 154.8V159H90.9611Z" fill="#4B4B4B"/>
<path d="M20.796 177L18.576 170.808H19.932L20.784 173.424L21.588 175.908H21.66L22.464 173.424L23.316 170.808H24.624L22.404 177H20.796ZM28.7953 177.12C28.4113 177.12 28.1393 177.04 27.9793 176.88C27.8273 176.72 27.7513 176.524 27.7513 176.292V175.98C27.7513 175.748 27.8273 175.552 27.9793 175.392C28.1393 175.232 28.4113 175.152 28.7953 175.152C29.1793 175.152 29.4473 175.232 29.5993 175.392C29.7593 175.552 29.8393 175.748 29.8393 175.98V176.292C29.8393 176.524 29.7593 176.72 29.5993 176.88C29.4473 177.04 29.1793 177.12 28.7953 177.12ZM33.4466 177V175.884H35.7986V169.608H35.7026L33.7586 171.684L32.9306 170.94L35.0666 168.624H37.1426V175.884H39.1706V177H33.4466ZM43.1859 177.12C42.8019 177.12 42.5299 177.04 42.3699 176.88C42.2179 176.72 42.1419 176.524 42.1419 176.292V175.98C42.1419 175.748 42.2179 175.552 42.3699 175.392C42.5299 175.232 42.8019 175.152 43.1859 175.152C43.5699 175.152 43.8379 175.232 43.9899 175.392C44.1499 175.552 44.2299 175.748 44.2299 175.98V176.292C44.2299 176.524 44.1499 176.72 43.9899 176.88C43.8379 177.04 43.5699 177.12 43.1859 177.12ZM47.8373 177V175.884H50.1893V169.608H50.0933L48.1493 171.684L47.3213 170.94L49.4573 168.624H51.5333V175.884H53.5612V177H47.8373ZM58.3206 177V175.368H54.3366V174.216L57.8406 168.624H59.6046V174.312H60.7806V175.368H59.6046V177H58.3206ZM55.4766 174.312H58.3206V169.86H58.2486L55.4766 174.312Z" fill="#4B4B4B"/>
</g>
</g>
</g>
<defs>
<filter id="filter0_i_1782_24870" x="0" y="0" width="204" height="204" filterUnits="userSpaceOnUse" color-interpolation-filters="sRGB">
<feFlood flood-opacity="0" result="BackgroundImageFix"/>
<feBlend mode="normal" in="SourceGraphic" in2="BackgroundImageFix" result="shape"/>
<feColorMatrix in="SourceAlpha" type="matrix" values="0 0 0 0 0 0 0 0 0 0 0 0 0 0 0 0 0 0 127 0" result="hardAlpha"/>
<feOffset dy="-1"/>
<feComposite in2="hardAlpha" operator="arithmetic" k2="-1" k3="1"/>
<feColorMatrix type="matrix" values="0 0 0 0 0.392157 0 0 0 0 0.392157 0 0 0 0 0.392157 0 0 0 0.25 0"/>
<feBlend mode="normal" in2="shape" result="effect1_innerShadow_1782_24870"/>
</filter>
<filter id="filter1_i_1782_24870" x="3" y="3" width="198" height="198.5" filterUnits="userSpaceOnUse" color-interpolation-filters="sRGB">
<feFlood flood-opacity="0" result="BackgroundImageFix"/>
<feBlend mode="normal" in="SourceGraphic" in2="BackgroundImageFix" result="shape"/>
<feColorMatrix in="SourceAlpha" type="matrix" values="0 0 0 0 0 0 0 0 0 0 0 0 0 0 0 0 0 0 127 0" result="hardAlpha"/>
<feOffset dy="0.5"/>
<feGaussianBlur stdDeviation="0.5"/>
<feComposite in2="hardAlpha" operator="arithmetic" k2="-1" k3="1"/>
<feColorMatrix type="matrix" values="0 0 0 0 0.72549 0 0 0 0 0.72549 0 0 0 0 0.72549 0 0 0 0.25 0"/>
<feBlend mode="normal" in2="shape" result="effect1_innerShadow_1782_24870"/>
</filter>
<filter id="filter2_b_1782_24870" x="1" y="1" width="202" height="202" filterUnits="userSpaceOnUse" color-interpolation-filters="sRGB">
<feFlood flood-opacity="0" result="BackgroundImageFix"/>
<feGaussianBlur in="BackgroundImageFix" stdDeviation="1"/>
<feComposite in2="SourceAlpha" operator="in" result="effect1_backgroundBlur_1782_24870"/>
<feBlend mode="normal" in="SourceGraphic" in2="effect1_backgroundBlur_1782_24870" result="shape"/>
</filter>
<linearGradient id="paint0_linear_1782_24870" x1="102" y1="-87" x2="102" y2="383" gradientUnits="userSpaceOnUse">
<stop offset="0.291489" stop-color="#0B0C0D"/>
<stop offset="0.891489" stop-color="#141A23"/>
</linearGradient>
<linearGradient id="paint1_linear_1782_24870" x1="102" y1="-41" x2="102" y2="261" gradientUnits="userSpaceOnUse">
<stop offset="0.0844371" stop-opacity="0.6"/>
<stop offset="0.860927" stop-color="#0E0F10" stop-opacity="0.1"/>
</linearGradient>
<clipPath id="clip0_1782_24870">
<rect x="3" y="3" width="198" height="198" rx="10" fill="white"/>
</clipPath>
<clipPath id="clip1_1782_24870">
<rect width="121" height="122" fill="white" transform="translate(-19 -20)"/>
</clipPath>
<clipPath id="clip2_1782_24870">
<rect width="121" height="122" fill="white" transform="matrix(-1 0 0 1 223 -20)"/>
</clipPath>
<clipPath id="clip3_1782_24870">
<rect width="121" height="122" fill="white" transform="translate(223 224) rotate(180)"/>
</clipPath>
<clipPath id="clip4_1782_24870">
<rect width="121" height="122" fill="white" transform="matrix(1 -8.74228e-08 -8.74228e-08 -1 -19 224)"/>
</clipPath>
</defs>
</svg>
