<svg width="40" height="40" viewBox="0 0 40 40" fill="none" xmlns="http://www.w3.org/2000/svg">
<rect width="40" height="40" rx="6" fill="#264030"/>
<path fill-rule="evenodd" clip-rule="evenodd" d="M11.75 8H14.5625C15.0803 8 15.5 8.41973 15.5 8.9375V9.5C15.5 9.70711 15.6679 9.875 15.875 9.875C16.0821 9.875 16.25 9.70711 16.25 9.5V8.9375C16.25 8.41973 16.6697 8 17.1875 8H22.9228C23.3796 8 23.75 8.37035 23.75 8.82721V9.5C23.75 9.70711 23.9179 9.875 24.125 9.875C24.3321 9.875 24.5 9.70711 24.5 9.5V8.82721C24.5 8.37035 24.8704 8 25.3272 8H28.875C30.6009 8 32 9.39911 32 11.125V14.4062C32 15.0103 31.5103 15.5 30.9062 15.5H30.5C30.2929 15.5 30.125 15.6679 30.125 15.875C30.125 16.0821 30.2929 16.25 30.5 16.25H31.0625C31.5803 16.25 32 16.6697 32 17.1875V22.8125C32 23.3303 31.5803 23.75 31.0625 23.75H30.5C30.2929 23.75 30.125 23.9179 30.125 24.125C30.125 24.3321 30.2929 24.5 30.5 24.5H31.0625C31.5803 24.5 32 24.9197 32 25.4375V28.25C32 30.3211 30.3211 32 28.25 32H25.4375C24.9197 32 24.5 31.5803 24.5 31.0625V30.5C24.5 30.2929 24.3321 30.125 24.125 30.125C23.9179 30.125 23.75 30.2929 23.75 30.5V31.0625C23.75 31.5803 23.3303 32 22.8125 32H17.1875C16.6697 32 16.25 31.5803 16.25 31.0625V30.5C16.25 30.2929 16.0821 30.125 15.875 30.125C15.6679 30.125 15.5 30.2929 15.5 30.5V31.0625C15.5 31.5803 15.0803 32 14.5625 32H11.75C9.67893 32 8 30.3211 8 28.25V25.4375C8 24.9197 8.41973 24.5 8.9375 24.5H9.5C9.70711 24.5 9.875 24.3321 9.875 24.125C9.875 23.9179 9.70711 23.75 9.5 23.75H8.9375C8.41973 23.75 8 23.3303 8 22.8125V17.1875C8 16.6697 8.41973 16.25 8.9375 16.25H9.5C9.70711 16.25 9.875 16.0821 9.875 15.875C9.875 15.6679 9.70711 15.5 9.5 15.5H8.9375C8.41973 15.5 8 15.0803 8 14.5625V11.75C8 9.67893 9.67893 8 11.75 8ZM14.7705 20.7717H23.3804L19.6244 24.5092C19.4703 24.6625 19.3933 24.8446 19.3933 25.0554C19.3933 25.2662 19.4703 25.4483 19.6244 25.6017C19.7785 25.7422 19.9615 25.8125 20.1734 25.8125C20.3852 25.8125 20.5618 25.7422 20.703 25.6017L25.7881 20.5417C25.8652 20.465 25.9197 20.3819 25.9518 20.2925C25.9839 20.203 26 20.1072 26 20.005C26 19.9028 25.9839 19.8069 25.9518 19.7175C25.9197 19.628 25.8652 19.545 25.7881 19.4683L20.703 14.4083C20.549 14.255 20.3692 14.1815 20.1637 14.1879C19.9583 14.1943 19.7785 14.2677 19.6244 14.4083C19.4703 14.5616 19.39 14.7405 19.3836 14.945C19.3772 15.1494 19.451 15.3283 19.6051 15.4816L23.3804 19.2383H14.7705C14.5522 19.2383 14.3692 19.3118 14.2215 19.4587C14.0738 19.6057 14 19.7878 14 20.005C14 20.2222 14.0738 20.4043 14.2215 20.5512C14.3692 20.6982 14.5522 20.7717 14.7705 20.7717Z" fill="#5CFE9D"/>
</svg>
