<svg width="197" height="198" viewBox="0 0 197 198" fill="none" xmlns="http://www.w3.org/2000/svg">
<g clip-path="url(#clip0_2683_24967)">
<path d="M54.3688 -50.3115L-50.3115 54.3688" stroke="#272727" stroke-width="0.405738"/>
<path d="M55.9918 -48.6885L-48.6885 55.9918" stroke="#272727" stroke-width="0.405738"/>
<path d="M57.6149 -47.0656L-47.0654 57.6147" stroke="#272727" stroke-width="0.405738"/>
<path d="M59.2374 -45.4426L-45.4429 59.2377" stroke="#272727" stroke-width="0.405738"/>
<path d="M60.8605 -43.8197L-43.8198 60.8607" stroke="#272727" stroke-width="0.405738"/>
<path d="M62.4835 -42.1967L-42.1968 62.4836" stroke="#272727" stroke-width="0.405738"/>
<path d="M64.1066 -40.5738L-40.5737 64.1065" stroke="#272727" stroke-width="0.405738"/>
<path d="M65.7296 -38.9508L-38.9507 65.7295" stroke="#272727" stroke-width="0.405738"/>
<path d="M67.3522 -37.3279L-37.3281 67.3525" stroke="#272727" stroke-width="0.405738"/>
<path d="M68.9752 -35.7049L-35.7051 68.9754" stroke="#272727" stroke-width="0.405738"/>
<path d="M70.5983 -34.082L-34.082 70.5984" stroke="#272727" stroke-width="0.405738"/>
<path d="M72.2213 -32.459L-32.459 72.2213" stroke="#272727" stroke-width="0.405738"/>
<path d="M73.8444 -30.8361L-30.8359 73.8443" stroke="#272727" stroke-width="0.405738"/>
<path d="M75.4669 -29.2131L-29.2134 75.4672" stroke="#272727" stroke-width="0.405738"/>
<path d="M77.09 -27.5902L-27.5903 77.0902" stroke="#272727" stroke-width="0.405738"/>
<path d="M78.713 -25.9672L-25.9673 78.7131" stroke="#272727" stroke-width="0.405738"/>
<path d="M80.3361 -24.3443L-24.3442 80.3361" stroke="#272727" stroke-width="0.405738"/>
<path d="M81.9591 -22.7213L-22.7212 81.959" stroke="#272727" stroke-width="0.405738"/>
<path d="M83.5817 -21.0984L-21.0986 83.582" stroke="#272727" stroke-width="0.405738"/>
<path d="M85.2047 -19.4754L-19.4756 85.2049" stroke="#272727" stroke-width="0.405738"/>
<path d="M86.8278 -17.8525L-17.8525 86.8279" stroke="#272727" stroke-width="0.405738"/>
<path d="M88.4508 -16.2295L-16.2295 88.4508" stroke="#272727" stroke-width="0.405738"/>
<path d="M90.0739 -14.6066L-14.6064 90.0738" stroke="#272727" stroke-width="0.405738"/>
<path d="M91.6964 -12.9836L-12.9839 91.6967" stroke="#272727" stroke-width="0.405738"/>
<path d="M93.3195 -11.3607L-11.3608 93.3197" stroke="#272727" stroke-width="0.405738"/>
<path d="M94.9425 -9.7377L-9.73779 94.9426" stroke="#272727" stroke-width="0.405738"/>
<path d="M96.5656 -8.11475L-8.11475 96.5656" stroke="#272727" stroke-width="0.405738"/>
<path d="M98.1886 -6.4918L-6.4917 98.1885" stroke="#272727" stroke-width="0.405738"/>
<path d="M99.8117 -4.86885L-4.86865 99.8115" stroke="#272727" stroke-width="0.405738"/>
<path d="M101.434 -3.2459L-3.24609 101.434" stroke="#272727" stroke-width="0.405738"/>
<path d="M103.057 -1.62295L-1.62305 103.057" stroke="#272727" stroke-width="0.405738"/>
<path d="M104.68 0L0 104.68" stroke="#272727" stroke-width="0.405738"/>
<path d="M106.303 1.62295L1.62305 106.303" stroke="#272727" stroke-width="0.405738"/>
<path d="M107.926 3.2459L3.24609 107.926" stroke="#272727" stroke-width="0.405738"/>
<path d="M109.549 4.86885L4.86865 109.549" stroke="#272727" stroke-width="0.405738"/>
<path d="M111.172 6.4918L6.4917 111.172" stroke="#272727" stroke-width="0.405738"/>
<path d="M112.795 8.11475L8.11475 112.795" stroke="#272727" stroke-width="0.405738"/>
<path d="M114.418 9.73771L9.73779 114.418" stroke="#272727" stroke-width="0.405738"/>
<path d="M116.041 11.3607L11.3608 116.041" stroke="#272727" stroke-width="0.405738"/>
<path d="M117.664 12.9836L12.9834 117.664" stroke="#272727" stroke-width="0.405738"/>
<path d="M119.287 14.6066L14.6064 119.287" stroke="#272727" stroke-width="0.405738"/>
<path d="M120.91 16.2295L16.2295 120.91" stroke="#272727" stroke-width="0.405738"/>
<path d="M122.533 17.8525L17.8525 122.533" stroke="#272727" stroke-width="0.405738"/>
<path d="M124.156 19.4754L19.4756 124.156" stroke="#272727" stroke-width="0.405738"/>
<path d="M125.778 21.0984L73.4383 73.4385L21.0981 125.779" stroke="#272727" stroke-width="0.405738"/>
<path d="M127.402 22.7213L22.7212 127.402" stroke="#272727" stroke-width="0.405738"/>
<path d="M129.025 24.3443L24.3442 129.025" stroke="#272727" stroke-width="0.405738"/>
<path d="M130.648 25.9672L25.9673 130.648" stroke="#272727" stroke-width="0.405738"/>
<path d="M132.271 27.5902L27.5903 132.27" stroke="#272727" stroke-width="0.405738"/>
<path d="M133.893 29.2131L29.2129 133.893" stroke="#272727" stroke-width="0.405738"/>
<path d="M135.516 30.8361L30.8359 135.516" stroke="#272727" stroke-width="0.405738"/>
<path d="M137.139 32.459L32.459 137.139" stroke="#272727" stroke-width="0.405738"/>
<path d="M138.762 34.082L34.082 138.762" stroke="#272727" stroke-width="0.405738"/>
<path d="M140.385 35.7049L35.7051 140.385" stroke="#272727" stroke-width="0.405738"/>
<path d="M142.008 37.3279L37.3276 142.008" stroke="#272727" stroke-width="0.405738"/>
</g>
<g clip-path="url(#clip1_2683_24967)">
<path d="M142.008 -50.3115L246.688 54.3688" stroke="#272727" stroke-width="0.405738"/>
<path d="M140.385 -48.6885L245.065 55.9918" stroke="#272727" stroke-width="0.405738"/>
<path d="M138.762 -47.0656L243.442 57.6147" stroke="#272727" stroke-width="0.405738"/>
<path d="M137.14 -45.4426L241.82 59.2377" stroke="#272727" stroke-width="0.405738"/>
<path d="M135.516 -43.8197L240.197 60.8607" stroke="#272727" stroke-width="0.405738"/>
<path d="M133.893 -42.1967L238.574 62.4836" stroke="#272727" stroke-width="0.405738"/>
<path d="M132.27 -40.5738L236.951 64.1065" stroke="#272727" stroke-width="0.405738"/>
<path d="M130.647 -38.9508L235.328 65.7295" stroke="#272727" stroke-width="0.405738"/>
<path d="M129.025 -37.3279L233.705 67.3525" stroke="#272727" stroke-width="0.405738"/>
<path d="M127.402 -35.7049L232.082 68.9754" stroke="#272727" stroke-width="0.405738"/>
<path d="M125.779 -34.082L230.459 70.5984" stroke="#272727" stroke-width="0.405738"/>
<path d="M124.156 -32.459L228.836 72.2213" stroke="#272727" stroke-width="0.405738"/>
<path d="M122.533 -30.8361L227.213 73.8443" stroke="#272727" stroke-width="0.405738"/>
<path d="M120.91 -29.2131L225.59 75.4672" stroke="#272727" stroke-width="0.405738"/>
<path d="M119.287 -27.5902L223.967 77.0902" stroke="#272727" stroke-width="0.405738"/>
<path d="M117.664 -25.9672L222.344 78.7131" stroke="#272727" stroke-width="0.405738"/>
<path d="M116.041 -24.3443L220.721 80.3361" stroke="#272727" stroke-width="0.405738"/>
<path d="M114.418 -22.7213L219.098 81.959" stroke="#272727" stroke-width="0.405738"/>
<path d="M112.795 -21.0984L217.476 83.582" stroke="#272727" stroke-width="0.405738"/>
<path d="M111.172 -19.4754L215.853 85.2049" stroke="#272727" stroke-width="0.405738"/>
<path d="M109.549 -17.8525L214.229 86.8279" stroke="#272727" stroke-width="0.405738"/>
<path d="M107.926 -16.2295L212.606 88.4508" stroke="#272727" stroke-width="0.405738"/>
<path d="M106.303 -14.6066L210.983 90.0738" stroke="#272727" stroke-width="0.405738"/>
<path d="M104.681 -12.9836L209.361 91.6967" stroke="#272727" stroke-width="0.405738"/>
<path d="M103.057 -11.3607L207.738 93.3197" stroke="#272727" stroke-width="0.405738"/>
<path d="M101.434 -9.7377L206.115 94.9426" stroke="#272727" stroke-width="0.405738"/>
<path d="M99.8114 -8.11475L204.492 96.5656" stroke="#272727" stroke-width="0.405738"/>
<path d="M98.1883 -6.4918L202.869 98.1885" stroke="#272727" stroke-width="0.405738"/>
<path d="M96.5653 -4.86885L201.246 99.8115" stroke="#272727" stroke-width="0.405738"/>
<path d="M94.9427 -3.2459L199.623 101.434" stroke="#272727" stroke-width="0.405738"/>
<path d="M93.3197 -1.62295L198 103.057" stroke="#272727" stroke-width="0.405738"/>
<path d="M91.6966 0L196.377 104.68" stroke="#272727" stroke-width="0.405738"/>
<path d="M90.0736 1.62295L194.754 106.303" stroke="#272727" stroke-width="0.405738"/>
<path d="M88.4505 3.2459L193.131 107.926" stroke="#272727" stroke-width="0.405738"/>
<path d="M86.828 4.86885L191.508 109.549" stroke="#272727" stroke-width="0.405738"/>
<path d="M85.2049 6.4918L189.885 111.172" stroke="#272727" stroke-width="0.405738"/>
<path d="M83.5819 8.11475L188.262 112.795" stroke="#272727" stroke-width="0.405738"/>
<path d="M81.9588 9.73771L186.639 114.418" stroke="#272727" stroke-width="0.405738"/>
<path d="M80.3358 11.3607L185.016 116.041" stroke="#272727" stroke-width="0.405738"/>
<path d="M78.7132 12.9836L183.394 117.664" stroke="#272727" stroke-width="0.405738"/>
<path d="M77.0902 14.6066L181.771 119.287" stroke="#272727" stroke-width="0.405738"/>
<path d="M75.4671 16.2295L180.147 120.91" stroke="#272727" stroke-width="0.405738"/>
<path d="M73.8441 17.8525L178.524 122.533" stroke="#272727" stroke-width="0.405738"/>
<path d="M72.221 19.4754L176.901 124.156" stroke="#272727" stroke-width="0.405738"/>
<path d="M70.5985 21.0984L175.279 125.779" stroke="#272727" stroke-width="0.405738"/>
<path d="M68.9754 22.7213L173.656 127.402" stroke="#272727" stroke-width="0.405738"/>
<path d="M67.3524 24.3443L172.033 129.025" stroke="#272727" stroke-width="0.405738"/>
<path d="M65.7293 25.9672L170.41 130.648" stroke="#272727" stroke-width="0.405738"/>
<path d="M64.1063 27.5902L168.787 132.27" stroke="#272727" stroke-width="0.405738"/>
<path d="M62.4837 29.2131L167.164 133.893" stroke="#272727" stroke-width="0.405738"/>
<path d="M60.8607 30.8361L165.541 135.516" stroke="#272727" stroke-width="0.405738"/>
<path d="M59.2377 32.459L163.918 137.139" stroke="#272727" stroke-width="0.405738"/>
<path d="M57.6146 34.082L162.295 138.762" stroke="#272727" stroke-width="0.405738"/>
<path d="M55.9916 35.7049L160.672 140.385" stroke="#272727" stroke-width="0.405738"/>
<path d="M54.369 37.3279L159.049 142.008" stroke="#272727" stroke-width="0.405738"/>
</g>
<g clip-path="url(#clip2_2683_24967)">
<path d="M142.008 248.311L246.688 143.631" stroke="#272727" stroke-width="0.405738"/>
<path d="M140.385 246.689L245.065 142.008" stroke="#272727" stroke-width="0.405738"/>
<path d="M138.762 245.066L243.442 140.385" stroke="#272727" stroke-width="0.405738"/>
<path d="M137.14 243.443L241.82 138.762" stroke="#272727" stroke-width="0.405738"/>
<path d="M135.516 241.82L240.197 137.139" stroke="#272727" stroke-width="0.405738"/>
<path d="M133.893 240.197L238.574 135.516" stroke="#272727" stroke-width="0.405738"/>
<path d="M132.27 238.574L236.951 133.893" stroke="#272727" stroke-width="0.405738"/>
<path d="M130.647 236.951L235.328 132.27" stroke="#272727" stroke-width="0.405738"/>
<path d="M129.025 235.328L233.705 130.648" stroke="#272727" stroke-width="0.405738"/>
<path d="M127.402 233.705L232.082 129.025" stroke="#272727" stroke-width="0.405738"/>
<path d="M125.779 232.082L230.459 127.402" stroke="#272727" stroke-width="0.405738"/>
<path d="M124.156 230.459L228.836 125.779" stroke="#272727" stroke-width="0.405738"/>
<path d="M122.533 228.836L227.213 124.156" stroke="#272727" stroke-width="0.405738"/>
<path d="M120.91 227.213L225.59 122.533" stroke="#272727" stroke-width="0.405738"/>
<path d="M119.287 225.59L223.967 120.91" stroke="#272727" stroke-width="0.405738"/>
<path d="M117.664 223.967L222.344 119.287" stroke="#272727" stroke-width="0.405738"/>
<path d="M116.041 222.344L220.721 117.664" stroke="#272727" stroke-width="0.405738"/>
<path d="M114.418 220.721L219.098 116.041" stroke="#272727" stroke-width="0.405738"/>
<path d="M112.795 219.098L217.476 114.418" stroke="#272727" stroke-width="0.405738"/>
<path d="M111.172 217.475L215.853 112.795" stroke="#272727" stroke-width="0.405738"/>
<path d="M109.549 215.852L214.229 111.172" stroke="#272727" stroke-width="0.405738"/>
<path d="M107.926 214.23L212.606 109.549" stroke="#272727" stroke-width="0.405738"/>
<path d="M106.303 212.607L210.983 107.926" stroke="#272727" stroke-width="0.405738"/>
<path d="M104.681 210.984L209.361 106.303" stroke="#272727" stroke-width="0.405738"/>
<path d="M103.057 209.361L207.738 104.68" stroke="#272727" stroke-width="0.405738"/>
<path d="M101.434 207.738L206.115 103.057" stroke="#272727" stroke-width="0.405738"/>
<path d="M99.8114 206.115L204.492 101.434" stroke="#272727" stroke-width="0.405738"/>
<path d="M98.1883 204.492L202.869 99.8115" stroke="#272727" stroke-width="0.405738"/>
<path d="M96.5653 202.869L201.246 98.1885" stroke="#272727" stroke-width="0.405738"/>
<path d="M94.9427 201.246L199.623 96.5656" stroke="#272727" stroke-width="0.405738"/>
<path d="M93.3197 199.623L198 94.9426" stroke="#272727" stroke-width="0.405738"/>
<path d="M91.6966 198L196.377 93.3197" stroke="#272727" stroke-width="0.405738"/>
<path d="M90.0736 196.377L194.754 91.6967" stroke="#272727" stroke-width="0.405738"/>
<path d="M88.4505 194.754L193.131 90.0738" stroke="#272727" stroke-width="0.405738"/>
<path d="M86.828 193.131L191.508 88.4508" stroke="#272727" stroke-width="0.405738"/>
<path d="M85.2049 191.508L189.885 86.8279" stroke="#272727" stroke-width="0.405738"/>
<path d="M83.5819 189.885L188.262 85.2049" stroke="#272727" stroke-width="0.405738"/>
<path d="M81.9588 188.262L186.639 83.5819" stroke="#272727" stroke-width="0.405738"/>
<path d="M80.3358 186.639L185.016 81.959" stroke="#272727" stroke-width="0.405738"/>
<path d="M78.7132 185.016L183.394 80.3361" stroke="#272727" stroke-width="0.405738"/>
<path d="M77.0902 183.393L181.77 78.7131" stroke="#272727" stroke-width="0.405738"/>
<path d="M75.4671 181.77L180.147 77.0902" stroke="#272727" stroke-width="0.405738"/>
<path d="M73.8441 180.148L178.524 75.4672" stroke="#272727" stroke-width="0.405738"/>
<path d="M72.221 178.525L176.901 73.8442" stroke="#272727" stroke-width="0.405738"/>
<path d="M70.5985 176.902L175.279 72.2213" stroke="#272727" stroke-width="0.405738"/>
<path d="M68.9754 175.279L173.656 70.5984" stroke="#272727" stroke-width="0.405738"/>
<path d="M67.3524 173.656L172.033 68.9754" stroke="#272727" stroke-width="0.405738"/>
<path d="M65.7293 172.033L170.41 67.3525" stroke="#272727" stroke-width="0.405738"/>
<path d="M64.1063 170.41L168.787 65.7295" stroke="#272727" stroke-width="0.405738"/>
<path d="M62.4837 168.787L167.164 64.1065" stroke="#272727" stroke-width="0.405738"/>
<path d="M60.8607 167.164L165.541 62.4836" stroke="#272727" stroke-width="0.405738"/>
<path d="M59.2377 165.541L163.918 60.8607" stroke="#272727" stroke-width="0.405738"/>
<path d="M57.6146 163.918L162.295 59.2377" stroke="#272727" stroke-width="0.405738"/>
<path d="M55.9916 162.295L160.672 57.6147" stroke="#272727" stroke-width="0.405738"/>
<path d="M54.369 160.672L159.049 55.9918" stroke="#272727" stroke-width="0.405738"/>
</g>
<g clip-path="url(#clip3_2683_24967)">
<path d="M54.3688 248.311L-50.3115 143.631" stroke="#272727" stroke-width="0.405738"/>
<path d="M55.9918 246.689L-48.6885 142.008" stroke="#272727" stroke-width="0.405738"/>
<path d="M57.6149 245.066L-47.0654 140.385" stroke="#272727" stroke-width="0.405738"/>
<path d="M59.2374 243.443L-45.4429 138.762" stroke="#272727" stroke-width="0.405738"/>
<path d="M60.8605 241.82L-43.8198 137.139" stroke="#272727" stroke-width="0.405738"/>
<path d="M62.4835 240.197L-42.1968 135.516" stroke="#272727" stroke-width="0.405738"/>
<path d="M64.1066 238.574L-40.5737 133.893" stroke="#272727" stroke-width="0.405738"/>
<path d="M65.7296 236.951L-38.9507 132.271" stroke="#272727" stroke-width="0.405738"/>
<path d="M67.3522 235.328L-37.3281 130.648" stroke="#272727" stroke-width="0.405738"/>
<path d="M68.9752 233.705L-35.7051 129.025" stroke="#272727" stroke-width="0.405738"/>
<path d="M70.5983 232.082L-34.082 127.402" stroke="#272727" stroke-width="0.405738"/>
<path d="M72.2213 230.459L-32.459 125.779" stroke="#272727" stroke-width="0.405738"/>
<path d="M73.8444 228.836L-30.8359 124.156" stroke="#272727" stroke-width="0.405738"/>
<path d="M75.4669 227.213L-29.2134 122.533" stroke="#272727" stroke-width="0.405738"/>
<path d="M77.09 225.59L-27.5903 120.91" stroke="#272727" stroke-width="0.405738"/>
<path d="M78.713 223.967L-25.9673 119.287" stroke="#272727" stroke-width="0.405738"/>
<path d="M80.3361 222.344L-24.3442 117.664" stroke="#272727" stroke-width="0.405738"/>
<path d="M81.9591 220.721L-22.7212 116.041" stroke="#272727" stroke-width="0.405738"/>
<path d="M83.5817 219.098L-21.0986 114.418" stroke="#272727" stroke-width="0.405738"/>
<path d="M85.2047 217.475L-19.4756 112.795" stroke="#272727" stroke-width="0.405738"/>
<path d="M86.8278 215.852L-17.8525 111.172" stroke="#272727" stroke-width="0.405738"/>
<path d="M88.4508 214.229L-16.2295 109.549" stroke="#272727" stroke-width="0.405738"/>
<path d="M90.0739 212.607L-14.6065 107.926" stroke="#272727" stroke-width="0.405738"/>
<path d="M91.6964 210.984L-12.9839 106.303" stroke="#272727" stroke-width="0.405738"/>
<path d="M93.3195 209.361L-11.3608 104.68" stroke="#272727" stroke-width="0.405738"/>
<path d="M94.9425 207.738L-9.7378 103.057" stroke="#272727" stroke-width="0.405738"/>
<path d="M96.5656 206.115L-8.11476 101.434" stroke="#272727" stroke-width="0.405738"/>
<path d="M98.1886 204.492L-6.49171 99.8115" stroke="#272727" stroke-width="0.405738"/>
<path d="M99.8117 202.869L-4.86866 98.1885" stroke="#272727" stroke-width="0.405738"/>
<path d="M101.434 201.246L-3.2461 96.5656" stroke="#272727" stroke-width="0.405738"/>
<path d="M103.057 199.623L-1.62306 94.9426" stroke="#272727" stroke-width="0.405738"/>
<path d="M104.68 198L-9.15144e-06 93.3197" stroke="#272727" stroke-width="0.405738"/>
<path d="M106.303 196.377L1.62304 91.6967" stroke="#272727" stroke-width="0.405738"/>
<path d="M107.926 194.754L3.24608 90.0738" stroke="#272727" stroke-width="0.405738"/>
<path d="M109.549 193.131L4.86864 88.4508" stroke="#272727" stroke-width="0.405738"/>
<path d="M111.172 191.508L6.49169 86.8279" stroke="#272727" stroke-width="0.405738"/>
<path d="M112.795 189.885L8.11474 85.2049" stroke="#272727" stroke-width="0.405738"/>
<path d="M114.418 188.262L9.73778 83.582" stroke="#272727" stroke-width="0.405738"/>
<path d="M116.041 186.639L11.3608 81.959" stroke="#272727" stroke-width="0.405738"/>
<path d="M117.664 185.016L12.9834 80.3361" stroke="#272727" stroke-width="0.405738"/>
<path d="M119.287 183.393L14.6064 78.7131" stroke="#272727" stroke-width="0.405738"/>
<path d="M120.91 181.77L16.2295 77.0902" stroke="#272727" stroke-width="0.405738"/>
<path d="M122.533 180.148L17.8525 75.4672" stroke="#272727" stroke-width="0.405738"/>
<path d="M124.156 178.525L19.4756 73.8443" stroke="#272727" stroke-width="0.405738"/>
<path d="M125.778 176.902L21.0981 72.2213" stroke="#272727" stroke-width="0.405738"/>
<path d="M127.402 175.279L22.7212 70.5984" stroke="#272727" stroke-width="0.405738"/>
<path d="M129.025 173.656L24.3442 68.9754" stroke="#272727" stroke-width="0.405738"/>
<path d="M130.648 172.033L25.9673 67.3525" stroke="#272727" stroke-width="0.405738"/>
<path d="M132.271 170.41L27.5903 65.7295" stroke="#272727" stroke-width="0.405738"/>
<path d="M133.893 168.787L29.2129 64.1066" stroke="#272727" stroke-width="0.405738"/>
<path d="M135.516 167.164L30.8359 62.4836" stroke="#272727" stroke-width="0.405738"/>
<path d="M137.139 165.541L32.459 60.8607" stroke="#272727" stroke-width="0.405738"/>
<path d="M138.762 163.918L34.082 59.2377" stroke="#272727" stroke-width="0.405738"/>
<path d="M140.385 162.295L35.7051 57.6148" stroke="#272727" stroke-width="0.405738"/>
<path d="M142.008 160.672L37.3276 55.9918" stroke="#272727" stroke-width="0.405738"/>
</g>
<defs>
<clipPath id="clip0_2683_24967">
<rect width="98.1885" height="99" fill="white"/>
</clipPath>
<clipPath id="clip1_2683_24967">
<rect width="98.1885" height="99" fill="white" transform="matrix(-1 0 0 1 196.377 0)"/>
</clipPath>
<clipPath id="clip2_2683_24967">
<rect width="98.1885" height="99" fill="white" transform="translate(196.377 198) rotate(180)"/>
</clipPath>
<clipPath id="clip3_2683_24967">
<rect width="98.1885" height="99" fill="white" transform="matrix(1 -8.74228e-08 -8.74228e-08 -1 0 198)"/>
</clipPath>
</defs>
</svg>
