<svg width="12" height="16" viewBox="0 0 12 16" fill="none" xmlns="http://www.w3.org/2000/svg">
<path d="M3.74982 12.583H8.24482C8.33898 12.583 8.41905 12.5514 8.48503 12.4882C8.551 12.4252 8.58398 12.3469 8.58398 12.2534C8.58398 12.1601 8.55211 12.0806 8.48836 12.0149C8.42461 11.9492 8.34565 11.9163 8.25148 11.9163H3.75648C3.66232 11.9163 3.58225 11.9479 3.51628 12.0111C3.4503 12.0742 3.41732 12.1525 3.41732 12.2459C3.41732 12.3393 3.44919 12.4188 3.51294 12.4845C3.57669 12.5502 3.65565 12.583 3.74982 12.583ZM3.74982 9.58301H8.24482C8.33898 9.58301 8.41905 9.55141 8.48503 9.48822C8.551 9.42516 8.58398 9.3469 8.58398 9.25342C8.58398 9.16009 8.55211 9.08058 8.48836 9.01488C8.42461 8.94919 8.34565 8.91634 8.25148 8.91634H3.75648C3.66232 8.91634 3.58225 8.94794 3.51628 9.01113C3.4503 9.07419 3.41732 9.15245 3.41732 9.24592C3.41732 9.33926 3.44919 9.41877 3.51294 9.48447C3.57669 9.55016 3.65565 9.58301 3.74982 9.58301ZM2.00753 15.1663C1.66961 15.1663 1.38954 15.0542 1.16732 14.8299C0.945095 14.6056 0.833984 14.3245 0.833984 13.9868V2.01259C0.833984 1.67481 0.946137 1.39377 1.17044 1.16947C1.39475 0.945161 1.67579 0.833008 2.01357 0.833008H7.92044C8.07697 0.833008 8.23176 0.862382 8.38482 0.921132C8.53787 0.979882 8.6678 1.06961 8.77461 1.1903L10.81 3.22572C10.9307 3.33252 11.0204 3.46245 11.0792 3.61551C11.1379 3.76856 11.1673 3.92335 11.1673 4.07988V13.9868C11.1673 14.3245 11.0551 14.6056 10.8307 14.8299C10.6062 15.0542 10.325 15.1663 9.9869 15.1663H2.00753ZM7.83398 3.58301C7.83398 3.74829 7.88989 3.88683 8.00169 3.99863C8.1135 4.11044 8.25204 4.16634 8.41732 4.16634H10.5007L7.83398 1.49967V3.58301Z" fill="#5F6368"/>
</svg>
