<svg width="8" height="6" viewBox="0 0 8 6" fill="none" xmlns="http://www.w3.org/2000/svg">
<path d="M4.00013 3.59998L6.60013 0.999984C6.72235 0.877761 6.87791 0.81665 7.0668 0.81665C7.25569 0.81665 7.41124 0.877761 7.53346 0.999984C7.65569 1.12221 7.7168 1.27776 7.7168 1.46665C7.7168 1.65554 7.65569 1.81109 7.53346 1.93332L4.4668 4.99998C4.40013 5.06665 4.32791 5.11387 4.25013 5.14165C4.17235 5.16943 4.08902 5.18332 4.00013 5.18332C3.91124 5.18332 3.82791 5.16943 3.75013 5.14165C3.67235 5.11387 3.60013 5.06665 3.53346 4.99998L0.466796 1.93332C0.344574 1.81109 0.283463 1.65554 0.283463 1.46665C0.283463 1.27776 0.344574 1.12221 0.466796 0.999983C0.589019 0.877761 0.744574 0.81665 0.933463 0.81665C1.12235 0.81665 1.27791 0.877761 1.40013 0.999983L4.00013 3.59998Z" fill="#282828"/>
</svg>
