<svg width="24" height="24" viewBox="0 0 24 24" fill="none" xmlns="http://www.w3.org/2000/svg">
<rect width="24" height="24" rx="2" fill="#202020"/>
<g clip-path="url(#clip0_774_39462)">
<path d="M6.22759 12.7767C6.2053 12.7767 6.18302 12.7779 6.16073 12.7779C5.66017 11.2773 5.69445 9.78994 6.3093 8.32426C6.92128 6.86543 7.91154 5.74317 9.34922 5.00948C9.27152 4.9849 9.23438 5.01405 9.19724 5.03005C8.74696 5.22204 8.30525 5.43461 7.91326 5.7306C5.62017 7.46142 4.70705 9.78994 5.08133 12.5967C5.31846 14.3767 6.18187 15.8698 7.57384 17.0275C8.84124 18.0818 10.3127 18.6126 11.9572 18.6714C12.844 18.7029 13.7074 18.5617 14.5594 18.3292C14.5885 18.3212 14.6194 18.3154 14.6365 18.2795C14.6137 18.2795 14.5948 18.2778 14.5765 18.2795C13.4463 18.3954 12.3366 18.2852 11.2926 17.8355C9.39094 17.016 8.10583 15.6618 7.79555 13.5419C7.70412 12.915 7.78012 12.2899 8.03097 11.6979C8.07269 11.5996 8.11269 11.4979 8.22982 11.4048C8.22982 11.5002 8.22982 11.5688 8.22982 11.6373C8.2344 12.9053 8.63781 14.0424 9.37096 15.0658C10.1069 16.0932 11.0915 16.8126 12.2309 17.3326C13.0646 17.7132 13.9463 17.9092 14.8565 17.9829C15.0994 18.0023 15.3348 18.0315 15.5765 17.9052C17.3868 16.9618 18.6519 15.5509 19.3118 13.6098C19.5656 12.8636 19.7061 12.0956 19.7604 11.3122C19.7844 10.9693 19.7913 10.6236 19.7296 10.2762C19.6799 10.3031 19.6839 10.3436 19.6747 10.3797C19.3707 11.5785 18.7627 12.599 17.7856 13.355C16.3268 14.483 14.6645 14.927 12.8314 14.6453C11.6418 14.4624 10.628 13.9418 9.82351 13.0264C8.64239 11.6819 8.43154 9.84649 9.29893 8.28254C9.84291 7.30142 10.6669 6.6323 11.6789 6.17687C11.7046 6.16545 11.732 6.15574 11.7572 6.14316C11.7823 6.13059 11.8058 6.11459 11.8297 6.10031C10.4903 6.50087 9.44523 7.32428 8.54239 8.39682C8.55553 8.35054 8.55896 8.33226 8.56524 8.31569C8.71096 7.92255 8.94924 7.58885 9.21664 7.26942C10.1744 6.12488 11.412 5.50661 12.88 5.35347C13.8034 5.2569 14.7062 5.40889 15.5851 5.70203C15.7622 5.76088 15.9377 5.8266 16.1382 5.89803C16.1131 5.86774 16.1085 5.8586 16.1017 5.85403C16.0691 5.8346 16.0359 5.81631 16.0022 5.7986C15.1737 5.36718 14.2891 5.1449 13.3594 5.0769C12.4389 5.01005 11.5383 5.09176 10.6618 5.3889C9.27953 5.85746 8.20239 6.72372 7.37956 7.91684C6.63386 8.99797 6.25501 10.1991 6.22873 11.5111C6.22016 11.9339 6.22759 12.3567 6.22759 12.7796V12.7767ZM13.3777 6.31859C13.0834 6.34944 12.808 6.44601 12.5372 6.55687C12.2686 6.66658 12.0137 6.80429 11.7703 6.96086C11.5217 7.12086 11.2972 7.31114 11.0852 7.51685C10.8783 7.71741 10.688 7.93284 10.4915 8.13855C11.2521 6.72601 12.5263 6.07917 14.0337 5.77632C13.8731 5.76717 13.7154 5.79574 13.5577 5.82031C12.3211 6.01288 11.268 6.54944 10.4492 7.50713C9.60581 8.49454 9.26179 9.62194 9.54463 10.9105C9.64808 11.383 9.85092 11.8127 10.1355 12.2059C9.96864 11.8699 9.88464 11.5133 9.87266 11.1413C9.86064 10.7636 9.91493 10.3939 10.0332 10.0345C10.1721 9.61393 10.3921 9.18938 10.5395 9.07054C10.38 9.45453 10.2578 9.84307 10.2155 10.2516C10.1275 11.1099 10.3424 11.8493 11.0841 12.3613C11.5703 12.6967 12.1212 12.8185 12.708 12.7813C13.3777 12.7384 14.0125 12.5504 14.6337 12.3082C14.664 12.2962 14.7091 12.2979 14.7137 12.2402C14.5405 12.2322 14.3697 12.2276 14.2 12.215C13.4554 12.1613 12.7429 12.0059 12.1303 11.5453C11.2812 10.9076 10.7686 10.1059 10.9201 8.99568C11.0372 8.13798 11.4195 7.43113 12.1343 6.91857C12.5143 6.64601 12.9308 6.45173 13.3783 6.31745L13.3777 6.31859Z" fill="url(#paint0_linear_774_39462)"/>
</g>
<defs>
<linearGradient id="paint0_linear_774_39462" x1="12.3889" y1="5" x2="12.3889" y2="18.6758" gradientUnits="userSpaceOnUse">
<stop stop-color="white"/>
<stop offset="0.96875" stop-color="#C1C1C1"/>
<stop offset="1" stop-color="#9F9F9F"/>
</linearGradient>
<clipPath id="clip0_774_39462">
<rect width="14.7778" height="14" fill="white" transform="translate(5 5)"/>
</clipPath>
</defs>
</svg>
