<svg width="24" height="24" viewBox="0 0 24 24" fill="none" xmlns="http://www.w3.org/2000/svg">
<g clip-path="url(#clip0_269_2491)">
<path d="M12 24C18.6274 24 24 18.6274 24 12C24 5.37258 18.6274 0 12 0C5.37258 0 0 5.37258 0 12C0 18.6274 5.37258 24 12 24Z" fill="#627EEA"/>
<path d="M23.5 12C23.5 18.3513 18.3513 23.5 12 23.5C5.64873 23.5 0.5 18.3513 0.5 12C0.5 5.64873 5.64873 0.5 12 0.5C18.3513 0.5 23.5 5.64873 23.5 12Z" stroke="black" stroke-opacity="0.097"/>
<path d="M12 4V9.91456L16.999 12.1484L12 4Z" fill="white" fill-opacity="0.602"/>
<path d="M11.9997 4L7 12.1484L11.9997 9.91456V4Z" fill="white"/>
<path d="M12 15.981V19.9999L17.0024 13.0791L12 15.981Z" fill="white" fill-opacity="0.602"/>
<path d="M11.9997 19.9999V15.9804L7 13.0791L11.9997 19.9999Z" fill="white"/>
<path d="M12 15.0511L16.999 12.1485L12 9.91602V15.0511Z" fill="white" fill-opacity="0.2"/>
<path d="M7 12.1485L11.9997 15.0511V9.91602L7 12.1485Z" fill="white" fill-opacity="0.602"/>
</g>
<defs>
<clipPath id="clip0_269_2491">
<rect width="24" height="24" fill="white"/>
</clipPath>
</defs>
</svg>
