<svg width="16" height="16" viewBox="0 0 16 16" fill="none" xmlns="http://www.w3.org/2000/svg">
<path d="M8.06336 12.3586C8.23517 12.3586 8.38093 12.2993 8.50065 12.1805C8.62037 12.0619 8.68023 11.9166 8.68023 11.7447C8.68023 11.5727 8.62086 11.427 8.50211 11.3074C8.38336 11.1877 8.23808 11.1278 8.06628 11.1278C7.89433 11.1278 7.7485 11.1872 7.62878 11.3059C7.50919 11.4247 7.4494 11.57 7.4494 11.7418C7.4494 11.9137 7.50871 12.0595 7.62732 12.1793C7.74607 12.2988 7.89142 12.3586 8.06336 12.3586ZM8.00919 15.1663C7.02378 15.1663 6.09537 14.98 5.22398 14.6072C4.35273 14.2344 3.58982 13.7211 2.93523 13.0672C2.28065 12.4133 1.76683 11.6513 1.39378 10.7813C1.02058 9.91148 0.833984 8.98204 0.833984 7.99301C0.833984 7.00384 1.02037 6.07703 1.39315 5.21259C1.76593 4.34828 2.27926 3.58884 2.93315 2.93426C3.58704 2.27967 4.34898 1.76585 5.21898 1.3928C6.08885 1.0196 7.01829 0.833008 8.00732 0.833008C8.99648 0.833008 9.92329 1.0194 10.7877 1.39218C11.652 1.76495 12.4115 2.27829 13.0661 2.93217C13.7207 3.58606 14.2345 4.34634 14.6075 5.21301C14.9807 6.07967 15.1673 7.00572 15.1673 7.99113C15.1673 8.97655 14.9809 9.90495 14.6082 10.7763C14.2354 11.6476 13.722 12.4105 13.0682 13.0651C12.4143 13.7197 11.654 14.2335 10.7873 14.6066C9.92065 14.9797 8.99461 15.1663 8.00919 15.1663ZM8.00065 14.4997C9.80621 14.4997 11.3409 13.8677 12.6048 12.6038C13.8687 11.34 14.5007 9.80523 14.5007 7.99967C14.5007 6.19412 13.8687 4.6594 12.6048 3.39551C11.3409 2.13162 9.80621 1.49967 8.00065 1.49967C6.1951 1.49967 4.66037 2.13162 3.39648 3.39551C2.1326 4.6594 1.50065 6.19412 1.50065 7.99967C1.50065 9.80523 2.1326 11.34 3.39648 12.6038C4.66037 13.8677 6.1951 14.4997 8.00065 14.4997ZM8.03607 4.44842C8.46218 4.44842 8.8294 4.58079 9.13774 4.84551C9.44593 5.11023 9.60003 5.4412 9.60003 5.83842C9.60003 6.14787 9.51773 6.42599 9.35315 6.6728C9.18871 6.91961 8.99378 7.14023 8.76836 7.33467C8.4828 7.59356 8.22787 7.8853 8.00357 8.20988C7.7794 8.53447 7.65822 8.89065 7.64003 9.27843C7.62933 9.38745 7.66037 9.47162 7.73315 9.53092C7.80579 9.59023 7.89058 9.61988 7.98753 9.61988C8.09141 9.61988 8.17808 9.59287 8.24753 9.53884C8.31697 9.48495 8.36183 9.41419 8.38211 9.32655C8.45155 9.03169 8.5701 8.77266 8.73773 8.54947C8.90551 8.32613 9.08954 8.11467 9.28982 7.91509C9.57787 7.62856 9.81989 7.30933 10.0159 6.95738C10.212 6.60558 10.31 6.22863 10.31 5.82655C10.31 5.21447 10.0918 4.70245 9.65523 4.29051C9.21885 3.8787 8.69225 3.6728 8.07544 3.6728C7.61753 3.6728 7.19593 3.78467 6.81065 4.00842C6.42551 4.23231 6.09829 4.53092 5.82898 4.90426C5.76287 4.99245 5.74655 5.08912 5.78003 5.19426C5.8135 5.2994 5.88725 5.37051 6.00128 5.40759C6.11086 5.4519 6.21482 5.45162 6.31315 5.40676C6.41148 5.3619 6.49642 5.31113 6.56794 5.25447C6.7528 5.03863 6.96704 4.85037 7.21065 4.68967C7.45426 4.52884 7.7294 4.44842 8.03607 4.44842Z" fill="#5F6368"/>
</svg>
