<svg width="15" height="11" viewBox="0 0 15 11" fill="none" xmlns="http://www.w3.org/2000/svg">
<path d="M13.6022 8.32029V3.80112L7.52216 6.80112C7.3573 6.89084 7.18334 6.9357 7.00029 6.9357C6.81723 6.9357 6.64286 6.89084 6.47716 6.80112L0.823411 4.02237C0.716606 3.96362 0.63112 3.88966 0.566953 3.8005C0.502786 3.71119 0.470703 3.61209 0.470703 3.5032C0.470703 3.39418 0.502786 3.29397 0.566953 3.20258C0.63112 3.11119 0.716606 3.03612 0.823411 2.97737L6.47654 0.206954C6.55793 0.164593 6.64154 0.132856 6.72737 0.111745C6.81334 0.0906341 6.90411 0.0800781 6.99966 0.0800781C7.09522 0.0800781 7.18591 0.0912596 7.27175 0.113621C7.35744 0.136121 7.44091 0.169801 7.52216 0.214662L13.9324 3.32362C14.032 3.38084 14.1129 3.45341 14.1753 3.54133C14.2376 3.62925 14.2688 3.73556 14.2688 3.86029V8.32029C14.2688 8.41473 14.2373 8.4939 14.1742 8.55779C14.1111 8.62181 14.0328 8.65383 13.9395 8.65383C13.846 8.65383 13.7664 8.62181 13.7007 8.55779C13.635 8.4939 13.6022 8.41473 13.6022 8.32029ZM6.47716 10.8236L2.99008 9.09612C2.80411 9.00307 2.64813 8.86098 2.52216 8.66987C2.39605 8.47876 2.33299 8.27251 2.33299 8.05112V6.23216L6.47716 8.28029C6.64202 8.37001 6.81598 8.41487 6.99904 8.41487C7.18209 8.41487 7.35647 8.37001 7.52216 8.28029L11.6663 6.23216V8.05404C11.6663 8.27876 11.6033 8.48536 11.4772 8.67383C11.3512 8.8623 11.1952 9.00307 11.0092 9.09612L7.52216 10.8236C7.43966 10.8685 7.35487 10.9022 7.26779 10.9247C7.1807 10.947 7.09133 10.9582 6.99966 10.9582C6.908 10.9582 6.81862 10.947 6.73154 10.9247C6.64445 10.9022 6.55966 10.8685 6.47716 10.8236Z" fill="#5F6368"/>
</svg>
