<svg width="201" height="206" viewBox="0 0 201 206" fill="none" xmlns="http://www.w3.org/2000/svg">
<g clip-path="url(#clip0_1672_33752)">
<path d="M125 5L-4 134" stroke="#272727" stroke-width="0.5"/>
<path d="M127 7L-2 136" stroke="#272727" stroke-width="0.5"/>
<path d="M129 9L0 138" stroke="#272727" stroke-width="0.5"/>
<path d="M131 11L2 140" stroke="#272727" stroke-width="0.5"/>
<path d="M133 13L4 142" stroke="#272727" stroke-width="0.5"/>
<path d="M135 15L6 144" stroke="#272727" stroke-width="0.5"/>
<path d="M137 17L8 146" stroke="#272727" stroke-width="0.5"/>
<path d="M139 19L10 148" stroke="#272727" stroke-width="0.5"/>
<path d="M141 21L12 150" stroke="#272727" stroke-width="0.5"/>
<path d="M143 23L14 152" stroke="#272727" stroke-width="0.5"/>
<path d="M145 25L16 154" stroke="#272727" stroke-width="0.5"/>
<path d="M147 27L18 156" stroke="#272727" stroke-width="0.5"/>
<path d="M149 29L20 158" stroke="#272727" stroke-width="0.5"/>
<path d="M151 31L22 160" stroke="#272727" stroke-width="0.5"/>
<path d="M153 33L24 162" stroke="#272727" stroke-width="0.5"/>
<path d="M155 35L26 164" stroke="#272727" stroke-width="0.5"/>
<path d="M157 37L28 166" stroke="#272727" stroke-width="0.5"/>
<path d="M159 39L30 168" stroke="#272727" stroke-width="0.5"/>
<path d="M161 41L32 170" stroke="#272727" stroke-width="0.5"/>
<path d="M163 43L34 172" stroke="#272727" stroke-width="0.5"/>
<path d="M165 45L36 174" stroke="#272727" stroke-width="0.5"/>
<path d="M167 47L38 176" stroke="#272727" stroke-width="0.5"/>
<path d="M169 49L40 178" stroke="#272727" stroke-width="0.5"/>
<path d="M171 51L42 180" stroke="#272727" stroke-width="0.5"/>
<path d="M173 53L44 182" stroke="#272727" stroke-width="0.5"/>
<path d="M175 55L46 184" stroke="#272727" stroke-width="0.5"/>
<path d="M177 57L48 186" stroke="#272727" stroke-width="0.5"/>
<path d="M179 59L50 188" stroke="#272727" stroke-width="0.5"/>
<path d="M181 61L52 190" stroke="#272727" stroke-width="0.5"/>
<path d="M183 63L54 192" stroke="#272727" stroke-width="0.5"/>
<path d="M185 65L56 194" stroke="#272727" stroke-width="0.5"/>
<path d="M187 67L58 196" stroke="#272727" stroke-width="0.5"/>
<path d="M189 69L60 198" stroke="#272727" stroke-width="0.5"/>
<path d="M191 71L62 200" stroke="#272727" stroke-width="0.5"/>
<path d="M193 73L64 202" stroke="#272727" stroke-width="0.5"/>
<path d="M195 75L66 204" stroke="#272727" stroke-width="0.5"/>
<path d="M197 77L68 206" stroke="#272727" stroke-width="0.5"/>
<path d="M199 79L70 208" stroke="#272727" stroke-width="0.5"/>
<path d="M201 81L72 210" stroke="#272727" stroke-width="0.5"/>
<path d="M203 83L74 212" stroke="#272727" stroke-width="0.5"/>
<path d="M205 85L76 214" stroke="#272727" stroke-width="0.5"/>
<path d="M207 87L78 216" stroke="#272727" stroke-width="0.5"/>
<path d="M209 89L80 218" stroke="#272727" stroke-width="0.5"/>
<path d="M211 91L82 220" stroke="#272727" stroke-width="0.5"/>
<path d="M213 93L84 222" stroke="#272727" stroke-width="0.5"/>
<path d="M215 95L86 224" stroke="#272727" stroke-width="0.5"/>
<path d="M217 97L88 226" stroke="#272727" stroke-width="0.5"/>
<path d="M219 99L90 228" stroke="#272727" stroke-width="0.5"/>
<path d="M221 101L92 230" stroke="#272727" stroke-width="0.5"/>
<path d="M223 103L94 232" stroke="#272727" stroke-width="0.5"/>
<path d="M225 105L96 234" stroke="#272727" stroke-width="0.5"/>
<path d="M227 107L98 236" stroke="#272727" stroke-width="0.5"/>
<path d="M229 109L100 238" stroke="#272727" stroke-width="0.5"/>
<path d="M231 111L102 240" stroke="#272727" stroke-width="0.5"/>
<path d="M233 113L104 242" stroke="#272727" stroke-width="0.5"/>
<rect x="90" y="136.5" width="3" height="3" fill="#039D53"/>
<path d="M97.352 141.096C96.8667 141.096 96.4587 141.011 96.128 140.84C95.7973 140.669 95.5253 140.443 95.312 140.16L95.888 139.608C96.1013 139.864 96.328 140.053 96.568 140.176C96.808 140.293 97.08 140.352 97.384 140.352C97.736 140.352 98.0053 140.272 98.192 140.112C98.384 139.952 98.48 139.723 98.48 139.424C98.48 139.184 98.4107 139 98.272 138.872C98.1333 138.739 97.896 138.643 97.56 138.584L96.952 138.488C96.6853 138.445 96.4613 138.376 96.28 138.28C96.0987 138.179 95.952 138.061 95.84 137.928C95.728 137.789 95.6453 137.637 95.592 137.472C95.544 137.301 95.52 137.123 95.52 136.936C95.52 136.408 95.6907 136.008 96.032 135.736C96.3733 135.459 96.8427 135.32 97.44 135.32C97.8827 135.32 98.2587 135.392 98.568 135.536C98.8827 135.675 99.136 135.872 99.328 136.128L98.768 136.688C98.6133 136.501 98.4293 136.352 98.216 136.24C98.008 136.123 97.7493 136.064 97.44 136.064C97.1093 136.064 96.856 136.136 96.68 136.28C96.5093 136.419 96.424 136.624 96.424 136.896C96.424 137.125 96.4907 137.307 96.624 137.44C96.7627 137.568 97.0053 137.661 97.352 137.72L97.944 137.824C98.4453 137.915 98.8107 138.099 99.04 138.376C99.2693 138.648 99.384 138.981 99.384 139.376C99.384 139.632 99.3387 139.867 99.248 140.08C99.1627 140.293 99.032 140.475 98.856 140.624C98.6853 140.773 98.472 140.891 98.216 140.976C97.9653 141.056 97.6773 141.096 97.352 141.096ZM103.053 140.296H103.013C102.97 140.403 102.914 140.507 102.845 140.608C102.781 140.704 102.701 140.789 102.605 140.864C102.509 140.933 102.397 140.989 102.269 141.032C102.141 141.075 101.992 141.096 101.821 141.096C101.405 141.096 101.069 140.96 100.813 140.688C100.557 140.416 100.429 140.029 100.429 139.528V136.872H101.301V139.4C101.301 140.056 101.586 140.384 102.157 140.384C102.269 140.384 102.378 140.371 102.485 140.344C102.592 140.312 102.688 140.267 102.773 140.208C102.858 140.149 102.925 140.077 102.973 139.992C103.026 139.901 103.053 139.795 103.053 139.672V136.872H103.925V141H103.053V140.296ZM105.226 136.872H106.098V137.576H106.146C106.268 137.325 106.431 137.131 106.634 136.992C106.836 136.848 107.09 136.776 107.394 136.776C107.879 136.776 108.266 136.957 108.554 137.32C108.842 137.683 108.986 138.221 108.986 138.936C108.986 139.651 108.842 140.189 108.554 140.552C108.266 140.915 107.879 141.096 107.394 141.096C107.09 141.096 106.836 141.027 106.634 140.888C106.431 140.744 106.268 140.547 106.146 140.296H106.098V142.6H105.226V136.872ZM107.034 140.384C107.364 140.384 107.618 140.283 107.794 140.08C107.975 139.877 108.066 139.608 108.066 139.272V138.6C108.066 138.264 107.975 137.995 107.794 137.792C107.618 137.589 107.364 137.488 107.034 137.488C106.906 137.488 106.786 137.504 106.674 137.536C106.562 137.568 106.463 137.616 106.378 137.68C106.292 137.744 106.223 137.824 106.17 137.92C106.122 138.011 106.098 138.12 106.098 138.248V139.624C106.098 139.752 106.122 139.864 106.17 139.96C106.223 140.051 106.292 140.128 106.378 140.192C106.463 140.256 106.562 140.304 106.674 140.336C106.786 140.368 106.906 140.384 107.034 140.384ZM111.879 141.096C111.564 141.096 111.281 141.045 111.031 140.944C110.78 140.843 110.569 140.699 110.399 140.512C110.228 140.325 110.097 140.101 110.007 139.84C109.916 139.573 109.871 139.275 109.871 138.944C109.871 138.613 109.916 138.315 110.007 138.048C110.103 137.781 110.233 137.555 110.399 137.368C110.569 137.176 110.775 137.029 111.015 136.928C111.255 136.827 111.521 136.776 111.815 136.776C112.103 136.776 112.364 136.827 112.599 136.928C112.833 137.024 113.033 137.163 113.199 137.344C113.364 137.525 113.489 137.741 113.575 137.992C113.665 138.243 113.711 138.52 113.711 138.824V139.152H110.751V139.288C110.751 139.613 110.852 139.88 111.055 140.088C111.257 140.291 111.537 140.392 111.895 140.392C112.161 140.392 112.388 140.336 112.575 140.224C112.767 140.107 112.921 139.952 113.039 139.76L113.583 140.24C113.444 140.48 113.231 140.683 112.943 140.848C112.66 141.013 112.305 141.096 111.879 141.096ZM111.815 137.44C111.66 137.44 111.516 137.467 111.383 137.52C111.255 137.573 111.143 137.651 111.047 137.752C110.956 137.848 110.884 137.963 110.831 138.096C110.777 138.229 110.751 138.376 110.751 138.536V138.592H112.823V138.512C112.823 138.187 112.729 137.928 112.543 137.736C112.361 137.539 112.119 137.44 111.815 137.44ZM114.796 140.296H115.892V137.576H114.796V136.872H116.764V137.968H116.812C116.849 137.824 116.902 137.685 116.972 137.552C117.041 137.419 117.129 137.304 117.236 137.208C117.342 137.107 117.473 137.027 117.628 136.968C117.782 136.904 117.964 136.872 118.172 136.872H118.668V137.704H117.852C117.532 137.704 117.27 137.8 117.068 137.992C116.865 138.179 116.764 138.432 116.764 138.752V140.296H118.26V141H114.796V140.296ZM119.616 135.08H120.488V137.576H120.536C120.659 137.325 120.822 137.131 121.024 136.992C121.227 136.848 121.48 136.776 121.784 136.776C122.27 136.776 122.656 136.957 122.944 137.32C123.232 137.683 123.376 138.221 123.376 138.936C123.376 139.651 123.232 140.189 122.944 140.552C122.656 140.915 122.27 141.096 121.784 141.096C121.48 141.096 121.227 141.027 121.024 140.888C120.822 140.744 120.659 140.547 120.536 140.296H120.488V141H119.616V135.08ZM121.424 140.384C121.755 140.384 122.008 140.283 122.184 140.08C122.366 139.877 122.456 139.608 122.456 139.272V138.6C122.456 138.264 122.366 137.995 122.184 137.792C122.008 137.589 121.755 137.488 121.424 137.488C121.296 137.488 121.176 137.504 121.064 137.536C120.952 137.568 120.854 137.616 120.768 137.68C120.683 137.744 120.614 137.824 120.56 137.92C120.512 138.011 120.488 138.12 120.488 138.248V139.624C120.488 139.752 120.512 139.864 120.56 139.96C120.614 140.051 120.683 140.128 120.768 140.192C120.854 140.256 120.952 140.304 121.064 140.336C121.176 140.368 121.296 140.384 121.424 140.384ZM127.717 141C127.467 141 127.277 140.936 127.149 140.808C127.027 140.68 126.952 140.512 126.925 140.304H126.885C126.805 140.555 126.659 140.749 126.445 140.888C126.237 141.027 125.971 141.096 125.645 141.096C125.224 141.096 124.888 140.987 124.637 140.768C124.387 140.544 124.261 140.237 124.261 139.848C124.261 139.448 124.408 139.144 124.701 138.936C125 138.723 125.456 138.616 126.069 138.616H126.861V138.296C126.861 137.736 126.565 137.456 125.973 137.456C125.707 137.456 125.491 137.509 125.325 137.616C125.16 137.717 125.021 137.853 124.909 138.024L124.389 137.6C124.507 137.376 124.704 137.184 124.981 137.024C125.259 136.859 125.616 136.776 126.053 136.776C126.576 136.776 126.987 136.901 127.285 137.152C127.584 137.403 127.733 137.765 127.733 138.24V140.312H128.253V141H127.717ZM125.893 140.456C126.176 140.456 126.408 140.392 126.589 140.264C126.771 140.136 126.861 139.971 126.861 139.768V139.168H126.085C125.456 139.168 125.141 139.357 125.141 139.736V139.896C125.141 140.083 125.208 140.224 125.341 140.32C125.475 140.411 125.659 140.456 125.893 140.456ZM130.986 141.096C130.538 141.096 130.151 141.024 129.826 140.88C129.506 140.736 129.247 140.544 129.05 140.304L129.586 139.824C129.767 140.021 129.97 140.173 130.194 140.28C130.423 140.381 130.693 140.432 131.002 140.432C131.285 140.432 131.511 140.384 131.682 140.288C131.858 140.192 131.946 140.043 131.946 139.84C131.946 139.755 131.93 139.683 131.898 139.624C131.866 139.565 131.821 139.517 131.762 139.48C131.703 139.443 131.634 139.413 131.554 139.392C131.479 139.371 131.399 139.355 131.314 139.344L130.658 139.24C130.498 139.219 130.335 139.184 130.17 139.136C130.005 139.088 129.855 139.021 129.722 138.936C129.594 138.845 129.487 138.731 129.402 138.592C129.322 138.453 129.282 138.277 129.282 138.064C129.282 137.643 129.442 137.323 129.762 137.104C130.087 136.885 130.514 136.776 131.042 136.776C131.426 136.776 131.757 136.835 132.034 136.952C132.317 137.064 132.551 137.221 132.738 137.424L132.25 137.936C132.143 137.813 131.991 137.701 131.794 137.6C131.597 137.493 131.335 137.44 131.01 137.44C130.429 137.44 130.138 137.624 130.138 137.992C130.138 138.168 130.199 138.291 130.322 138.36C130.45 138.424 130.599 138.467 130.77 138.488L131.426 138.592C131.591 138.619 131.754 138.653 131.914 138.696C132.079 138.739 132.226 138.805 132.354 138.896C132.487 138.981 132.594 139.093 132.674 139.232C132.759 139.371 132.802 139.547 132.802 139.76C132.802 140.176 132.639 140.504 132.314 140.744C131.994 140.979 131.551 141.096 130.986 141.096ZM135.863 141.096C135.548 141.096 135.266 141.045 135.015 140.944C134.764 140.843 134.554 140.699 134.383 140.512C134.212 140.325 134.082 140.101 133.991 139.84C133.9 139.573 133.855 139.275 133.855 138.944C133.855 138.613 133.9 138.315 133.991 138.048C134.087 137.781 134.218 137.555 134.383 137.368C134.554 137.176 134.759 137.029 134.999 136.928C135.239 136.827 135.506 136.776 135.799 136.776C136.087 136.776 136.348 136.827 136.583 136.928C136.818 137.024 137.018 137.163 137.183 137.344C137.348 137.525 137.474 137.741 137.559 137.992C137.65 138.243 137.695 138.52 137.695 138.824V139.152H134.735V139.288C134.735 139.613 134.836 139.88 135.039 140.088C135.242 140.291 135.522 140.392 135.879 140.392C136.146 140.392 136.372 140.336 136.559 140.224C136.751 140.107 136.906 139.952 137.023 139.76L137.567 140.24C137.428 140.48 137.215 140.683 136.927 140.848C136.644 141.013 136.29 141.096 135.863 141.096ZM135.799 137.44C135.644 137.44 135.5 137.467 135.367 137.52C135.239 137.573 135.127 137.651 135.031 137.752C134.94 137.848 134.868 137.963 134.815 138.096C134.762 138.229 134.735 138.376 134.735 138.536V138.592H136.807V138.512C136.807 138.187 136.714 137.928 136.527 137.736C136.346 137.539 136.103 137.44 135.799 137.44ZM144.745 141L143.169 135.416H144.137L144.873 138.232L145.361 140.128H145.409L145.897 138.232L146.641 135.416H147.569L145.993 141H144.745ZM150.166 141.08C149.91 141.08 149.728 141.027 149.622 140.92C149.52 140.813 149.47 140.683 149.47 140.528V140.32C149.47 140.165 149.52 140.035 149.622 139.928C149.728 139.821 149.91 139.768 150.166 139.768C150.422 139.768 150.6 139.821 150.702 139.928C150.808 140.035 150.862 140.165 150.862 140.32V140.528C150.862 140.683 150.808 140.813 150.702 140.92C150.6 141.027 150.422 141.08 150.166 141.08ZM153.267 141V140.256H154.835V136.072H154.771L153.475 137.456L152.923 136.96L154.347 135.416H155.731V140.256H157.082V141H153.267ZM159.759 141.096C159.407 141.096 159.101 141.032 158.839 140.904C158.583 140.771 158.37 140.581 158.199 140.336C158.034 140.091 157.911 139.789 157.831 139.432C157.751 139.075 157.711 138.667 157.711 138.208C157.711 137.755 157.751 137.349 157.831 136.992C157.911 136.629 158.034 136.325 158.199 136.08C158.37 135.835 158.583 135.648 158.839 135.52C159.101 135.387 159.407 135.32 159.759 135.32C160.111 135.32 160.415 135.387 160.671 135.52C160.933 135.648 161.146 135.835 161.311 136.08C161.482 136.325 161.607 136.629 161.687 136.992C161.767 137.349 161.807 137.755 161.807 138.208C161.807 138.667 161.767 139.075 161.687 139.432C161.607 139.789 161.482 140.091 161.311 140.336C161.146 140.581 160.933 140.771 160.671 140.904C160.415 141.032 160.111 141.096 159.759 141.096ZM159.759 140.36C160.165 140.36 160.453 140.211 160.623 139.912C160.799 139.608 160.887 139.2 160.887 138.688V137.728C160.887 137.216 160.799 136.811 160.623 136.512C160.453 136.208 160.165 136.056 159.759 136.056C159.557 136.056 159.383 136.096 159.239 136.176C159.095 136.251 158.978 136.363 158.887 136.512C158.797 136.656 158.73 136.832 158.687 137.04C158.65 137.243 158.631 137.472 158.631 137.728V138.688C158.631 138.944 158.65 139.176 158.687 139.384C158.73 139.587 158.797 139.763 158.887 139.912C158.978 140.056 159.095 140.168 159.239 140.248C159.383 140.323 159.557 140.36 159.759 140.36ZM159.759 138.68C159.573 138.68 159.442 138.643 159.367 138.568C159.298 138.493 159.263 138.403 159.263 138.296V138.12C159.263 138.013 159.298 137.923 159.367 137.848C159.442 137.773 159.573 137.736 159.759 137.736C159.946 137.736 160.074 137.773 160.143 137.848C160.218 137.923 160.255 138.013 160.255 138.12V138.296C160.255 138.403 160.218 138.493 160.143 138.568C160.074 138.643 159.946 138.68 159.759 138.68Z" fill="#373737"/>
<path d="M86.672 151V145.416H88.76C89.2933 145.416 89.6987 145.565 89.976 145.864C90.2587 146.163 90.4 146.573 90.4 147.096C90.4 147.619 90.2587 148.029 89.976 148.328C89.6987 148.627 89.2933 148.776 88.76 148.776H87.568V151H86.672ZM87.568 148.032H88.624C89.1787 148.032 89.456 147.776 89.456 147.264V146.92C89.456 146.413 89.1787 146.16 88.624 146.16H87.568V148.032ZM94.0529 150.296H94.0129C93.9702 150.403 93.9142 150.507 93.8449 150.608C93.7809 150.704 93.7009 150.789 93.6049 150.864C93.5089 150.933 93.3969 150.989 93.2689 151.032C93.1409 151.075 92.9915 151.096 92.8209 151.096C92.4049 151.096 92.0689 150.96 91.8129 150.688C91.5569 150.416 91.4289 150.029 91.4289 149.528V146.872H92.3009V149.4C92.3009 150.056 92.5862 150.384 93.1569 150.384C93.2689 150.384 93.3782 150.371 93.4849 150.344C93.5915 150.312 93.6875 150.267 93.7729 150.208C93.8582 150.149 93.9249 150.077 93.9729 149.992C94.0262 149.901 94.0529 149.795 94.0529 149.672V146.872H94.9249V151H94.0529V150.296ZM98.0018 151.096C97.5538 151.096 97.1671 151.024 96.8418 150.88C96.5218 150.736 96.2631 150.544 96.0658 150.304L96.6018 149.824C96.7831 150.021 96.9858 150.173 97.2098 150.28C97.4391 150.381 97.7084 150.432 98.0178 150.432C98.3004 150.432 98.5271 150.384 98.6978 150.288C98.8738 150.192 98.9618 150.043 98.9618 149.84C98.9618 149.755 98.9458 149.683 98.9138 149.624C98.8818 149.565 98.8364 149.517 98.7778 149.48C98.7191 149.443 98.6498 149.413 98.5698 149.392C98.4951 149.371 98.4151 149.355 98.3298 149.344L97.6738 149.24C97.5138 149.219 97.3511 149.184 97.1858 149.136C97.0204 149.088 96.8711 149.021 96.7378 148.936C96.6098 148.845 96.5031 148.731 96.4178 148.592C96.3378 148.453 96.2978 148.277 96.2978 148.064C96.2978 147.643 96.4578 147.323 96.7778 147.104C97.1031 146.885 97.5298 146.776 98.0578 146.776C98.4418 146.776 98.7724 146.835 99.0498 146.952C99.3324 147.064 99.5671 147.221 99.7538 147.424L99.2658 147.936C99.1591 147.813 99.0071 147.701 98.8098 147.6C98.6124 147.493 98.3511 147.44 98.0258 147.44C97.4444 147.44 97.1538 147.624 97.1538 147.992C97.1538 148.168 97.2151 148.291 97.3378 148.36C97.4658 148.424 97.6151 148.467 97.7858 148.488L98.4418 148.592C98.6071 148.619 98.7698 148.653 98.9298 148.696C99.0951 148.739 99.2418 148.805 99.3698 148.896C99.5031 148.981 99.6098 149.093 99.6898 149.232C99.7751 149.371 99.8177 149.547 99.8177 149.76C99.8177 150.176 99.6551 150.504 99.3298 150.744C99.0098 150.979 98.5671 151.096 98.0018 151.096ZM101.063 145.08H101.935V147.576H101.975C102.017 147.469 102.071 147.368 102.135 147.272C102.204 147.171 102.287 147.085 102.383 147.016C102.479 146.941 102.591 146.883 102.719 146.84C102.847 146.797 102.996 146.776 103.167 146.776C103.583 146.776 103.919 146.912 104.175 147.184C104.431 147.456 104.559 147.843 104.559 148.344V151H103.687V148.472C103.687 147.816 103.401 147.488 102.831 147.488C102.719 147.488 102.609 147.504 102.503 147.536C102.396 147.563 102.3 147.605 102.215 147.664C102.129 147.723 102.06 147.797 102.007 147.888C101.959 147.979 101.935 148.083 101.935 148.2V151H101.063V145.08ZM107.676 151.096C107.361 151.096 107.078 151.045 106.828 150.944C106.577 150.843 106.366 150.699 106.196 150.512C106.025 150.325 105.894 150.101 105.804 149.84C105.713 149.573 105.668 149.275 105.668 148.944C105.668 148.613 105.713 148.315 105.804 148.048C105.9 147.781 106.03 147.555 106.196 147.368C106.366 147.176 106.572 147.029 106.812 146.928C107.052 146.827 107.318 146.776 107.612 146.776C107.9 146.776 108.161 146.827 108.396 146.928C108.63 147.024 108.83 147.163 108.996 147.344C109.161 147.525 109.286 147.741 109.372 147.992C109.462 148.243 109.508 148.52 109.508 148.824V149.152H106.548V149.288C106.548 149.613 106.649 149.88 106.852 150.088C107.054 150.291 107.334 150.392 107.692 150.392C107.958 150.392 108.185 150.336 108.372 150.224C108.564 150.107 108.718 149.952 108.836 149.76L109.38 150.24C109.241 150.48 109.028 150.683 108.74 150.848C108.457 151.013 108.102 151.096 107.676 151.096ZM107.612 147.44C107.457 147.44 107.313 147.467 107.18 147.52C107.052 147.573 106.94 147.651 106.844 147.752C106.753 147.848 106.681 147.963 106.628 148.096C106.574 148.229 106.548 148.376 106.548 148.536V148.592H108.62V148.512C108.62 148.187 108.526 147.928 108.34 147.736C108.158 147.539 107.916 147.44 107.612 147.44ZM113.28 150.296H113.232C113.11 150.547 112.947 150.744 112.744 150.888C112.542 151.027 112.288 151.096 111.984 151.096C111.499 151.096 111.112 150.915 110.824 150.552C110.536 150.189 110.392 149.651 110.392 148.936C110.392 148.221 110.536 147.683 110.824 147.32C111.112 146.957 111.499 146.776 111.984 146.776C112.288 146.776 112.542 146.848 112.744 146.992C112.947 147.131 113.11 147.325 113.232 147.576H113.28V145.08H114.152V151H113.28V150.296ZM112.344 150.384C112.472 150.384 112.592 150.368 112.704 150.336C112.816 150.304 112.915 150.256 113 150.192C113.086 150.128 113.152 150.051 113.2 149.96C113.254 149.864 113.28 149.752 113.28 149.624V148.248C113.28 148.12 113.254 148.011 113.2 147.92C113.152 147.824 113.086 147.744 113 147.68C112.915 147.616 112.816 147.568 112.704 147.536C112.592 147.504 112.472 147.488 112.344 147.488C112.014 147.488 111.758 147.589 111.576 147.792C111.4 147.995 111.312 148.264 111.312 148.6V149.272C111.312 149.608 111.4 149.877 111.576 150.08C111.758 150.283 112.014 150.384 112.344 150.384ZM120.21 145.08H121.082V147.576H121.13C121.253 147.325 121.415 147.131 121.618 146.992C121.821 146.848 122.074 146.776 122.378 146.776C122.863 146.776 123.25 146.957 123.538 147.32C123.826 147.683 123.97 148.221 123.97 148.936C123.97 149.651 123.826 150.189 123.538 150.552C123.25 150.915 122.863 151.096 122.378 151.096C122.074 151.096 121.821 151.027 121.618 150.888C121.415 150.744 121.253 150.547 121.13 150.296H121.082V151H120.21V145.08ZM122.018 150.384C122.349 150.384 122.602 150.283 122.778 150.08C122.959 149.877 123.05 149.608 123.05 149.272V148.6C123.05 148.264 122.959 147.995 122.778 147.792C122.602 147.589 122.349 147.488 122.018 147.488C121.89 147.488 121.77 147.504 121.658 147.536C121.546 147.568 121.447 147.616 121.362 147.68C121.277 147.744 121.207 147.824 121.154 147.92C121.106 148.011 121.082 148.12 121.082 148.248V149.624C121.082 149.752 121.106 149.864 121.154 149.96C121.207 150.051 121.277 150.128 121.362 150.192C121.447 150.256 121.546 150.304 121.658 150.336C121.77 150.368 121.89 150.384 122.018 150.384ZM127.983 146.872H128.863L126.863 151.8C126.756 152.067 126.615 152.267 126.439 152.4C126.268 152.533 126.02 152.6 125.695 152.6H124.999V151.896H125.975L126.351 150.944L124.687 146.872H125.599L126.255 148.6L126.767 150.016H126.815L127.327 148.6L127.983 146.872ZM134.609 151V150.32H135.921V146.096H134.609V145.416H138.129V146.096H136.817V150.32H138.129V151H134.609ZM139.438 151V146.872H140.31V147.576H140.35C140.392 147.469 140.446 147.368 140.51 147.272C140.579 147.171 140.662 147.085 140.758 147.016C140.854 146.941 140.966 146.883 141.094 146.84C141.222 146.797 141.371 146.776 141.542 146.776C141.958 146.776 142.294 146.912 142.55 147.184C142.806 147.456 142.934 147.843 142.934 148.344V151H142.062V148.472C142.062 147.816 141.776 147.488 141.206 147.488C141.094 147.488 140.984 147.504 140.878 147.536C140.771 147.563 140.675 147.605 140.59 147.664C140.504 147.723 140.435 147.797 140.382 147.888C140.334 147.979 140.31 148.083 140.31 148.2V151H139.438ZM146.211 151C145.848 151 145.581 150.904 145.411 150.712C145.24 150.515 145.155 150.261 145.155 149.952V147.576H143.883V146.872H144.787C144.941 146.872 145.051 146.843 145.115 146.784C145.179 146.72 145.211 146.608 145.211 146.448V145.416H146.027V146.872H147.786V147.576H146.027V150.296H147.786V151H146.211ZM150.847 151.096C150.533 151.096 150.25 151.045 149.999 150.944C149.749 150.843 149.538 150.699 149.367 150.512C149.197 150.325 149.066 150.101 148.975 149.84C148.885 149.573 148.839 149.275 148.839 148.944C148.839 148.613 148.885 148.315 148.975 148.048C149.071 147.781 149.202 147.555 149.367 147.368C149.538 147.176 149.743 147.029 149.983 146.928C150.223 146.827 150.49 146.776 150.783 146.776C151.071 146.776 151.333 146.827 151.567 146.928C151.802 147.024 152.002 147.163 152.167 147.344C152.333 147.525 152.458 147.741 152.543 147.992C152.634 148.243 152.679 148.52 152.679 148.824V149.152H149.719V149.288C149.719 149.613 149.821 149.88 150.023 150.088C150.226 150.291 150.506 150.392 150.863 150.392C151.13 150.392 151.357 150.336 151.543 150.224C151.735 150.107 151.89 149.952 152.007 149.76L152.551 150.24C152.413 150.48 152.199 150.683 151.911 150.848C151.629 151.013 151.274 151.096 150.847 151.096ZM150.783 147.44C150.629 147.44 150.485 147.467 150.351 147.52C150.223 147.573 150.111 147.651 150.015 147.752C149.925 147.848 149.853 147.963 149.799 148.096C149.746 148.229 149.719 148.376 149.719 148.536V148.592H151.791V148.512C151.791 148.187 151.698 147.928 151.511 147.736C151.33 147.539 151.087 147.44 150.783 147.44ZM153.764 150.296H154.86V147.576H153.764V146.872H155.732V147.968H155.78C155.818 147.824 155.871 147.685 155.94 147.552C156.01 147.419 156.098 147.304 156.204 147.208C156.311 147.107 156.442 147.027 156.596 146.968C156.751 146.904 156.932 146.872 157.14 146.872H157.636V147.704H156.82C156.5 147.704 156.239 147.8 156.036 147.992C155.834 148.179 155.732 148.432 155.732 148.752V150.296H157.228V151H153.764V150.296ZM158.625 151V146.872H159.497V147.576H159.537C159.58 147.469 159.633 147.368 159.697 147.272C159.766 147.171 159.849 147.085 159.945 147.016C160.041 146.941 160.153 146.883 160.281 146.84C160.409 146.797 160.558 146.776 160.729 146.776C161.145 146.776 161.481 146.912 161.737 147.184C161.993 147.456 162.121 147.843 162.121 148.344V151H161.249V148.472C161.249 147.816 160.964 147.488 160.393 147.488C160.281 147.488 160.172 147.504 160.065 147.536C159.958 147.563 159.862 147.605 159.777 147.664C159.692 147.723 159.622 147.797 159.569 147.888C159.521 147.979 159.497 148.083 159.497 148.2V151H158.625Z" fill="#373737"/>
</g>
<g filter="url(#filter0_bf_1672_33752)">
<path d="M63.7191 59.8245C11.7191 68.2245 21.7191 139.325 33.2191 173.825C55.2195 199.824 66.7188 148.825 73.7188 138.325C80.7188 127.825 77.2188 102.325 123.719 92.3247C160.919 84.3247 174.219 59.658 176.219 48.3247C173.052 45.4913 163.419 37.2245 150.219 26.8245C133.719 13.8245 128.719 49.3245 63.7191 59.8245Z" fill="url(#paint0_linear_1672_33752)"/>
</g>
<defs>
<filter id="filter0_bf_1672_33752" x="-20" y="-20" width="240.219" height="245.125" filterUnits="userSpaceOnUse" color-interpolation-filters="sRGB">
<feFlood flood-opacity="0" result="BackgroundImageFix"/>
<feGaussianBlur in="BackgroundImageFix" stdDeviation="22"/>
<feComposite in2="SourceAlpha" operator="in" result="effect1_backgroundBlur_1672_33752"/>
<feBlend mode="normal" in="SourceGraphic" in2="effect1_backgroundBlur_1672_33752" result="shape"/>
<feGaussianBlur stdDeviation="12" result="effect2_foregroundBlur_1672_33752"/>
</filter>
<linearGradient id="paint0_linear_1672_33752" x1="24" y1="28.0553" x2="176.219" y2="177.069" gradientUnits="userSpaceOnUse">
<stop offset="0.319125" stop-color="#101112"/>
<stop offset="0.501017" stop-color="#0B0C0D" stop-opacity="0.4"/>
</linearGradient>
<clipPath id="clip0_1672_33752">
<rect width="121" height="122" fill="white" transform="translate(58 67)"/>
</clipPath>
</defs>
</svg>
