<svg width="16" height="16" viewBox="0 0 16 16" fill="none" xmlns="http://www.w3.org/2000/svg">
<path d="M4.75004 8.33337H11.25C11.3445 8.33337 11.4237 8.30178 11.4875 8.23858C11.5514 8.17553 11.5834 8.09726 11.5834 8.00379C11.5834 7.91046 11.5514 7.83094 11.4875 7.76525C11.4237 7.69955 11.3445 7.66671 11.25 7.66671H4.75004C4.6556 7.66671 4.57643 7.6983 4.51254 7.7615C4.44865 7.82455 4.41671 7.90282 4.41671 7.99629C4.41671 8.08962 4.44865 8.16914 4.51254 8.23483C4.57643 8.30053 4.6556 8.33337 4.75004 8.33337ZM8.00858 15.1667C7.02317 15.1667 6.09476 14.9803 5.22337 14.6075C4.35212 14.2348 3.58921 13.7214 2.93462 13.0675C2.28004 12.4137 1.76622 11.6517 1.39317 10.7817C1.01997 9.91185 0.833374 8.9824 0.833374 7.99337C0.833374 7.00421 1.01976 6.0774 1.39254 5.21296C1.76532 4.34865 2.27865 3.58921 2.93254 2.93462C3.58643 2.28004 4.34837 1.76622 5.21837 1.39317C6.08824 1.01997 7.01768 0.833374 8.00671 0.833374C8.99587 0.833374 9.92268 1.01976 10.7871 1.39254C11.6514 1.76532 12.4109 2.27865 13.0655 2.93254C13.72 3.58643 14.2339 4.34671 14.6069 5.21337C14.9801 6.08004 15.1667 7.00608 15.1667 7.9915C15.1667 8.97692 14.9803 9.90532 14.6075 10.7767C14.2348 11.648 13.7214 12.4109 13.0675 13.0655C12.4137 13.72 11.6534 14.2339 10.7867 14.6069C9.92004 14.9801 8.994 15.1667 8.00858 15.1667ZM8.00004 14.5C9.8056 14.5 11.3403 13.8681 12.6042 12.6042C13.8681 11.3403 14.5 9.8056 14.5 8.00004C14.5 6.19449 13.8681 4.65976 12.6042 3.39587C11.3403 2.13199 9.8056 1.50004 8.00004 1.50004C6.19449 1.50004 4.65976 2.13199 3.39587 3.39587C2.13199 4.65976 1.50004 6.19449 1.50004 8.00004C1.50004 9.8056 2.13199 11.3403 3.39587 12.6042C4.65976 13.8681 6.19449 14.5 8.00004 14.5Z" fill="#5F6368"/>
</svg>
