<svg width="242" height="244" viewBox="0 0 242 244" fill="none" xmlns="http://www.w3.org/2000/svg">
<g clip-path="url(#clip0_1156_30985)">
<path d="M67 -62L-62 67" stroke="#272727" stroke-width="0.5"/>
<path d="M69 -60L-60 69" stroke="#272727" stroke-width="0.5"/>
<path d="M71 -58L-58 71" stroke="#272727" stroke-width="0.5"/>
<path d="M73 -56L-56 73" stroke="#272727" stroke-width="0.5"/>
<path d="M75 -54L-54 75" stroke="#272727" stroke-width="0.5"/>
<path d="M77 -52L-52 77" stroke="#272727" stroke-width="0.5"/>
<path d="M79 -50L-50 79" stroke="#272727" stroke-width="0.5"/>
<path d="M81 -48L-48 81" stroke="#272727" stroke-width="0.5"/>
<path d="M83 -46L-46 83" stroke="#272727" stroke-width="0.5"/>
<path d="M85 -44L-44 85" stroke="#272727" stroke-width="0.5"/>
<path d="M87 -42L-42 87" stroke="#272727" stroke-width="0.5"/>
<path d="M89 -40L-40 89" stroke="#272727" stroke-width="0.5"/>
<path d="M91 -38L-38 91" stroke="#272727" stroke-width="0.5"/>
<path d="M93 -36L-36 93" stroke="#272727" stroke-width="0.5"/>
<path d="M95 -34L-34 95" stroke="#272727" stroke-width="0.5"/>
<path d="M97 -32L-32 97" stroke="#272727" stroke-width="0.5"/>
<path d="M99 -30L-30 99" stroke="#272727" stroke-width="0.5"/>
<path d="M101 -28L-28 101" stroke="#272727" stroke-width="0.5"/>
<path d="M103 -26L-26 103" stroke="#272727" stroke-width="0.5"/>
<path d="M105 -24L-24 105" stroke="#272727" stroke-width="0.5"/>
<path d="M107 -22L-22 107" stroke="#272727" stroke-width="0.5"/>
<path d="M109 -20L-20 109" stroke="#272727" stroke-width="0.5"/>
<path d="M111 -18L-18 111" stroke="#272727" stroke-width="0.5"/>
<path d="M113 -16L-16 113" stroke="#272727" stroke-width="0.5"/>
<path d="M115 -14L-14 115" stroke="#272727" stroke-width="0.5"/>
<path d="M117 -12L-12 117" stroke="#272727" stroke-width="0.5"/>
<path d="M119 -10L-10 119" stroke="#272727" stroke-width="0.5"/>
<path d="M121 -8L-8 121" stroke="#272727" stroke-width="0.5"/>
<path d="M123 -6L-6 123" stroke="#272727" stroke-width="0.5"/>
<path d="M125 -4L-4 125" stroke="#272727" stroke-width="0.5"/>
<path d="M127 -2L-2 127" stroke="#272727" stroke-width="0.5"/>
<path d="M129 0L0 129" stroke="#272727" stroke-width="0.5"/>
<path d="M131 2L2 131" stroke="#272727" stroke-width="0.5"/>
<path d="M133 4L4 133" stroke="#272727" stroke-width="0.5"/>
<path d="M135 6L6 135" stroke="#272727" stroke-width="0.5"/>
<path d="M137 8L8 137" stroke="#272727" stroke-width="0.5"/>
<path d="M139 10L10 139" stroke="#272727" stroke-width="0.5"/>
<path d="M141 12L12 141" stroke="#272727" stroke-width="0.5"/>
<path d="M143 14L14 143" stroke="#272727" stroke-width="0.5"/>
<path d="M145 16L16 145" stroke="#272727" stroke-width="0.5"/>
<path d="M147 18L18 147" stroke="#272727" stroke-width="0.5"/>
<path d="M149 20L20 149" stroke="#272727" stroke-width="0.5"/>
<path d="M151 22L22 151" stroke="#272727" stroke-width="0.5"/>
<path d="M153 24L24 153" stroke="#272727" stroke-width="0.5"/>
<path d="M155 26L26 155" stroke="#272727" stroke-width="0.5"/>
<path d="M157 28L28 157" stroke="#272727" stroke-width="0.5"/>
<path d="M159 30L30 159" stroke="#272727" stroke-width="0.5"/>
<path d="M161 32L32 161" stroke="#272727" stroke-width="0.5"/>
<path d="M163 34L34 163" stroke="#272727" stroke-width="0.5"/>
<path d="M165 36L36 165" stroke="#272727" stroke-width="0.5"/>
<path d="M167 38L38 167" stroke="#272727" stroke-width="0.5"/>
<path d="M169 40L40 169" stroke="#272727" stroke-width="0.5"/>
<path d="M171 42L42 171" stroke="#272727" stroke-width="0.5"/>
<path d="M173 44L44 173" stroke="#272727" stroke-width="0.5"/>
<path d="M175 46L46 175" stroke="#272727" stroke-width="0.5"/>
</g>
<g clip-path="url(#clip1_1156_30985)">
<path d="M175 -62L304 67" stroke="#272727" stroke-width="0.5"/>
<path d="M173 -60L302 69" stroke="#272727" stroke-width="0.5"/>
<path d="M171 -58L300 71" stroke="#272727" stroke-width="0.5"/>
<path d="M169 -56L298 73" stroke="#272727" stroke-width="0.5"/>
<path d="M167 -54L296 75" stroke="#272727" stroke-width="0.5"/>
<path d="M165 -52L294 77" stroke="#272727" stroke-width="0.5"/>
<path d="M163 -50L292 79" stroke="#272727" stroke-width="0.5"/>
<path d="M161 -48L290 81" stroke="#272727" stroke-width="0.5"/>
<path d="M159 -46L288 83" stroke="#272727" stroke-width="0.5"/>
<path d="M157 -44L286 85" stroke="#272727" stroke-width="0.5"/>
<path d="M155 -42L284 87" stroke="#272727" stroke-width="0.5"/>
<path d="M153 -40L282 89" stroke="#272727" stroke-width="0.5"/>
<path d="M151 -38L280 91" stroke="#272727" stroke-width="0.5"/>
<path d="M149 -36L278 93" stroke="#272727" stroke-width="0.5"/>
<path d="M147 -34L276 95" stroke="#272727" stroke-width="0.5"/>
<path d="M145 -32L274 97" stroke="#272727" stroke-width="0.5"/>
<path d="M143 -30L272 99" stroke="#272727" stroke-width="0.5"/>
<path d="M141 -28L270 101" stroke="#272727" stroke-width="0.5"/>
<path d="M139 -26L268 103" stroke="#272727" stroke-width="0.5"/>
<path d="M137 -24L266 105" stroke="#272727" stroke-width="0.5"/>
<path d="M135 -22L264 107" stroke="#272727" stroke-width="0.5"/>
<path d="M133 -20L262 109" stroke="#272727" stroke-width="0.5"/>
<path d="M131 -18L260 111" stroke="#272727" stroke-width="0.5"/>
<path d="M129 -16L258 113" stroke="#272727" stroke-width="0.5"/>
<path d="M127 -14L256 115" stroke="#272727" stroke-width="0.5"/>
<path d="M125 -12L254 117" stroke="#272727" stroke-width="0.5"/>
<path d="M123 -10L252 119" stroke="#272727" stroke-width="0.5"/>
<path d="M121 -8L250 121" stroke="#272727" stroke-width="0.5"/>
<path d="M119 -6L248 123" stroke="#272727" stroke-width="0.5"/>
<path d="M117 -4L246 125" stroke="#272727" stroke-width="0.5"/>
<path d="M115 -2L244 127" stroke="#272727" stroke-width="0.5"/>
<path d="M113 0L242 129" stroke="#272727" stroke-width="0.5"/>
<path d="M111 2L240 131" stroke="#272727" stroke-width="0.5"/>
<path d="M109 4L238 133" stroke="#272727" stroke-width="0.5"/>
<path d="M107 6L236 135" stroke="#272727" stroke-width="0.5"/>
<path d="M105 8L234 137" stroke="#272727" stroke-width="0.5"/>
<path d="M103 10L232 139" stroke="#272727" stroke-width="0.5"/>
<path d="M101 12L230 141" stroke="#272727" stroke-width="0.5"/>
<path d="M99 14L228 143" stroke="#272727" stroke-width="0.5"/>
<path d="M97 16L226 145" stroke="#272727" stroke-width="0.5"/>
<path d="M95 18L224 147" stroke="#272727" stroke-width="0.5"/>
<path d="M93 20L222 149" stroke="#272727" stroke-width="0.5"/>
<path d="M91 22L220 151" stroke="#272727" stroke-width="0.5"/>
<path d="M89 24L218 153" stroke="#272727" stroke-width="0.5"/>
<path d="M87 26L216 155" stroke="#272727" stroke-width="0.5"/>
<path d="M85 28L214 157" stroke="#272727" stroke-width="0.5"/>
<path d="M83 30L212 159" stroke="#272727" stroke-width="0.5"/>
<path d="M81 32L210 161" stroke="#272727" stroke-width="0.5"/>
<path d="M79 34L208 163" stroke="#272727" stroke-width="0.5"/>
<path d="M77 36L206 165" stroke="#272727" stroke-width="0.5"/>
<path d="M75 38L204 167" stroke="#272727" stroke-width="0.5"/>
<path d="M73 40L202 169" stroke="#272727" stroke-width="0.5"/>
<path d="M71 42L200 171" stroke="#272727" stroke-width="0.5"/>
<path d="M69 44L198 173" stroke="#272727" stroke-width="0.5"/>
<path d="M67 46L196 175" stroke="#272727" stroke-width="0.5"/>
</g>
<g clip-path="url(#clip2_1156_30985)">
<path d="M175 306L304 177" stroke="#272727" stroke-width="0.5"/>
<path d="M173 304L302 175" stroke="#272727" stroke-width="0.5"/>
<path d="M171 302L300 173" stroke="#272727" stroke-width="0.5"/>
<path d="M169 300L298 171" stroke="#272727" stroke-width="0.5"/>
<path d="M167 298L296 169" stroke="#272727" stroke-width="0.5"/>
<path d="M165 296L294 167" stroke="#272727" stroke-width="0.5"/>
<path d="M163 294L292 165" stroke="#272727" stroke-width="0.5"/>
<path d="M161 292L290 163" stroke="#272727" stroke-width="0.5"/>
<path d="M159 290L288 161" stroke="#272727" stroke-width="0.5"/>
<path d="M157 288L286 159" stroke="#272727" stroke-width="0.5"/>
<path d="M155 286L284 157" stroke="#272727" stroke-width="0.5"/>
<path d="M153 284L282 155" stroke="#272727" stroke-width="0.5"/>
<path d="M151 282L280 153" stroke="#272727" stroke-width="0.5"/>
<path d="M149 280L278 151" stroke="#272727" stroke-width="0.5"/>
<path d="M147 278L276 149" stroke="#272727" stroke-width="0.5"/>
<path d="M145 276L274 147" stroke="#272727" stroke-width="0.5"/>
<path d="M143 274L272 145" stroke="#272727" stroke-width="0.5"/>
<path d="M141 272L270 143" stroke="#272727" stroke-width="0.5"/>
<path d="M139 270L268 141" stroke="#272727" stroke-width="0.5"/>
<path d="M137 268L266 139" stroke="#272727" stroke-width="0.5"/>
<path d="M135 266L264 137" stroke="#272727" stroke-width="0.5"/>
<path d="M133 264L262 135" stroke="#272727" stroke-width="0.5"/>
<path d="M131 262L260 133" stroke="#272727" stroke-width="0.5"/>
<path d="M129 260L258 131" stroke="#272727" stroke-width="0.5"/>
<path d="M127 258L256 129" stroke="#272727" stroke-width="0.5"/>
<path d="M125 256L254 127" stroke="#272727" stroke-width="0.5"/>
<path d="M123 254L252 125" stroke="#272727" stroke-width="0.5"/>
<path d="M121 252L250 123" stroke="#272727" stroke-width="0.5"/>
<path d="M119 250L248 121" stroke="#272727" stroke-width="0.5"/>
<path d="M117 248L246 119" stroke="#272727" stroke-width="0.5"/>
<path d="M115 246L244 117" stroke="#272727" stroke-width="0.5"/>
<path d="M113 244L242 115" stroke="#272727" stroke-width="0.5"/>
<path d="M111 242L240 113" stroke="#272727" stroke-width="0.5"/>
<path d="M109 240L238 111" stroke="#272727" stroke-width="0.5"/>
<path d="M107 238L236 109" stroke="#272727" stroke-width="0.5"/>
<path d="M105 236L234 107" stroke="#272727" stroke-width="0.5"/>
<path d="M103 234L232 105" stroke="#272727" stroke-width="0.5"/>
<path d="M101 232L230 103" stroke="#272727" stroke-width="0.5"/>
<path d="M99 230L228 101" stroke="#272727" stroke-width="0.5"/>
<path d="M97 228L226 99" stroke="#272727" stroke-width="0.5"/>
<path d="M95 226L224 97" stroke="#272727" stroke-width="0.5"/>
<path d="M93 224L222 95" stroke="#272727" stroke-width="0.5"/>
<path d="M91 222L220 93" stroke="#272727" stroke-width="0.5"/>
<path d="M89 220L218 91" stroke="#272727" stroke-width="0.5"/>
<path d="M87 218L216 89" stroke="#272727" stroke-width="0.5"/>
<path d="M85 216L214 87" stroke="#272727" stroke-width="0.5"/>
<path d="M83 214L212 85" stroke="#272727" stroke-width="0.5"/>
<path d="M81 212L210 83" stroke="#272727" stroke-width="0.5"/>
<path d="M79 210L208 81" stroke="#272727" stroke-width="0.5"/>
<path d="M77 208L206 79" stroke="#272727" stroke-width="0.5"/>
<path d="M75 206L204 77" stroke="#272727" stroke-width="0.5"/>
<path d="M73 204L202 75" stroke="#272727" stroke-width="0.5"/>
<path d="M71 202L200 73" stroke="#272727" stroke-width="0.5"/>
<path d="M69 200L198 71" stroke="#272727" stroke-width="0.5"/>
<path d="M67 198L196 69" stroke="#272727" stroke-width="0.5"/>
</g>
<g clip-path="url(#clip3_1156_30985)">
<path d="M67 306L-62 177" stroke="#272727" stroke-width="0.5"/>
<path d="M69 304L-60 175" stroke="#272727" stroke-width="0.5"/>
<path d="M71 302L-58 173" stroke="#272727" stroke-width="0.5"/>
<path d="M73 300L-56 171" stroke="#272727" stroke-width="0.5"/>
<path d="M75 298L-54 169" stroke="#272727" stroke-width="0.5"/>
<path d="M77 296L-52 167" stroke="#272727" stroke-width="0.5"/>
<path d="M79 294L-50 165" stroke="#272727" stroke-width="0.5"/>
<path d="M81 292L-48 163" stroke="#272727" stroke-width="0.5"/>
<path d="M83 290L-46 161" stroke="#272727" stroke-width="0.5"/>
<path d="M85 288L-44 159" stroke="#272727" stroke-width="0.5"/>
<path d="M87 286L-42 157" stroke="#272727" stroke-width="0.5"/>
<path d="M89 284L-40 155" stroke="#272727" stroke-width="0.5"/>
<path d="M91 282L-38 153" stroke="#272727" stroke-width="0.5"/>
<path d="M93 280L-36 151" stroke="#272727" stroke-width="0.5"/>
<path d="M95 278L-34 149" stroke="#272727" stroke-width="0.5"/>
<path d="M97 276L-32 147" stroke="#272727" stroke-width="0.5"/>
<path d="M99 274L-30 145" stroke="#272727" stroke-width="0.5"/>
<path d="M101 272L-28 143" stroke="#272727" stroke-width="0.5"/>
<path d="M103 270L-26 141" stroke="#272727" stroke-width="0.5"/>
<path d="M105 268L-24 139" stroke="#272727" stroke-width="0.5"/>
<path d="M107 266L-22 137" stroke="#272727" stroke-width="0.5"/>
<path d="M109 264L-20 135" stroke="#272727" stroke-width="0.5"/>
<path d="M111 262L-18 133" stroke="#272727" stroke-width="0.5"/>
<path d="M113 260L-16 131" stroke="#272727" stroke-width="0.5"/>
<path d="M115 258L-14 129" stroke="#272727" stroke-width="0.5"/>
<path d="M117 256L-12 127" stroke="#272727" stroke-width="0.5"/>
<path d="M119 254L-10 125" stroke="#272727" stroke-width="0.5"/>
<path d="M121 252L-8.00001 123" stroke="#272727" stroke-width="0.5"/>
<path d="M123 250L-6.00001 121" stroke="#272727" stroke-width="0.5"/>
<path d="M125 248L-4.00001 119" stroke="#272727" stroke-width="0.5"/>
<path d="M127 246L-2.00001 117" stroke="#272727" stroke-width="0.5"/>
<path d="M129 244L-1.12775e-05 115" stroke="#272727" stroke-width="0.5"/>
<path d="M131 242L1.99999 113" stroke="#272727" stroke-width="0.5"/>
<path d="M133 240L3.99999 111" stroke="#272727" stroke-width="0.5"/>
<path d="M135 238L5.99999 109" stroke="#272727" stroke-width="0.5"/>
<path d="M137 236L7.99999 107" stroke="#272727" stroke-width="0.5"/>
<path d="M139 234L9.99999 105" stroke="#272727" stroke-width="0.5"/>
<path d="M141 232L12 103" stroke="#272727" stroke-width="0.5"/>
<path d="M143 230L14 101" stroke="#272727" stroke-width="0.5"/>
<path d="M145 228L16 99" stroke="#272727" stroke-width="0.5"/>
<path d="M147 226L18 97" stroke="#272727" stroke-width="0.5"/>
<path d="M149 224L20 95" stroke="#272727" stroke-width="0.5"/>
<path d="M151 222L22 93" stroke="#272727" stroke-width="0.5"/>
<path d="M153 220L24 91" stroke="#272727" stroke-width="0.5"/>
<path d="M155 218L26 89" stroke="#272727" stroke-width="0.5"/>
<path d="M157 216L28 87" stroke="#272727" stroke-width="0.5"/>
<path d="M159 214L30 85" stroke="#272727" stroke-width="0.5"/>
<path d="M161 212L32 83" stroke="#272727" stroke-width="0.5"/>
<path d="M163 210L34 81" stroke="#272727" stroke-width="0.5"/>
<path d="M165 208L36 79" stroke="#272727" stroke-width="0.5"/>
<path d="M167 206L38 77" stroke="#272727" stroke-width="0.5"/>
<path d="M169 204L40 75" stroke="#272727" stroke-width="0.5"/>
<path d="M171 202L42 73" stroke="#272727" stroke-width="0.5"/>
<path d="M173 200L44 71" stroke="#272727" stroke-width="0.5"/>
<path d="M175 198L46 69" stroke="#272727" stroke-width="0.5"/>
</g>
<defs>
<clipPath id="clip0_1156_30985">
<rect width="121" height="122" fill="white"/>
</clipPath>
<clipPath id="clip1_1156_30985">
<rect width="121" height="122" fill="white" transform="matrix(-1 0 0 1 242 0)"/>
</clipPath>
<clipPath id="clip2_1156_30985">
<rect width="121" height="122" fill="white" transform="translate(242 244) rotate(180)"/>
</clipPath>
<clipPath id="clip3_1156_30985">
<rect width="121" height="122" fill="white" transform="matrix(1 -8.74228e-08 -8.74228e-08 -1 0 244)"/>
</clipPath>
</defs>
</svg>
