<svg width="9" height="13" viewBox="0 0 9 13" fill="none" xmlns="http://www.w3.org/2000/svg">
<path d="M3.9618 7.66636H1.43305C1.24819 7.66636 1.11569 7.58865 1.03556 7.43323C0.955416 7.27782 0.959722 7.12316 1.04847 6.96927L5.15576 0.320107C5.21354 0.200524 5.29847 0.128163 5.41055 0.103024C5.52278 0.0778856 5.635 0.0840652 5.74722 0.121565C5.8593 0.158926 5.95035 0.225941 6.02035 0.322607C6.09035 0.419274 6.1168 0.530662 6.09972 0.656774L5.55493 5.33302H8.27285C8.4641 5.33302 8.60167 5.41851 8.68555 5.58948C8.7693 5.76045 8.75673 5.92282 8.64785 6.07657L4.11576 11.9341C4.0409 12.0259 3.9509 12.0862 3.84576 12.1151C3.74048 12.144 3.63333 12.1311 3.5243 12.0766C3.41542 12.0221 3.33555 11.9466 3.28472 11.8499C3.23403 11.7532 3.22417 11.6488 3.25514 11.5366L3.9618 7.66636Z" fill="white"/>
</svg>
