<svg width="28" height="28" viewBox="0 0 28 28" fill="none" xmlns="http://www.w3.org/2000/svg">
<rect width="28" height="28" fill="#F2F4F7"/>
<g clip-path="url(#clip0_508_113)">
<path d="M21.1104 18.5049C22.0363 19.7492 22.9912 21.0223 23.9461 22.2955C22.0363 24.5525 19.6636 25.9993 16.7989 26.607C13.616 27.2725 10.6067 26.7806 7.68416 25.1602C10.2884 23.2215 12.8347 21.3117 15.41 19.4019C15.9887 19.9517 16.5385 20.5015 17.0883 21.0223C17.696 21.6011 17.4645 21.63 18.2457 21.196C19.3164 20.5883 20.2134 19.7492 20.9078 18.7364C20.9368 18.6785 20.9946 18.6207 21.0236 18.5628C20.9946 18.5628 21.0236 18.5628 21.1104 18.5049ZM9.7386 21.0513C9.01521 21.6011 8.34968 22.093 7.68416 22.6138C7.19225 22.99 6.70034 23.3372 6.20843 23.7134C6.00588 23.887 5.8612 23.887 5.62971 23.6844C3.43059 21.7168 2.04166 19.2862 1.52082 16.3926C0.999974 13.4701 1.46295 10.6922 2.85187 8.05908C2.8808 8.00121 2.93868 7.9144 2.96761 7.85653C2.96761 7.82759 2.99655 7.82759 3.05442 7.79865C4.96419 10.3161 6.90289 12.8335 8.81265 15.3509C8.75478 15.4377 8.72585 15.4956 8.66797 15.5535C8.08926 16.1611 7.51054 16.7688 6.90289 17.3475C6.72927 17.5211 6.70034 17.6658 6.81608 17.8683C7.42373 19.0258 8.26287 19.9807 9.30456 20.7619C9.44924 20.8487 9.56499 20.9355 9.7386 21.0513ZM20.5317 3.08211C19.6057 3.74763 18.6798 4.41316 17.7538 5.04975C16.1624 6.17825 14.5709 7.33568 13.0084 8.46418C12.8058 8.60886 12.6611 8.63779 12.4875 8.43524C11.9667 7.88546 11.4169 7.39355 10.896 6.84377C10.7514 6.69909 10.6067 6.67016 10.4041 6.75696C9.15988 7.39355 8.17607 8.29056 7.36586 9.41906C7.30799 9.47693 7.25012 9.56374 7.19225 9.65055C6.72927 9.0429 6.29523 8.49312 5.8612 7.9144C5.39822 7.30675 4.96419 6.69909 4.53015 6.12037C4.38547 5.91782 4.35653 5.77314 4.55908 5.57059C6.78714 3.11104 9.53605 1.66425 12.8347 1.31702C15.439 1.02766 17.9274 1.54851 20.2423 2.79275C20.3291 2.85062 20.4159 2.87956 20.5027 2.93743C20.5027 3.02424 20.5027 3.05317 20.5317 3.08211ZM25.2482 20.4436C24.6406 19.6624 24.0908 18.939 23.541 18.2156C22.2678 16.5373 20.9946 14.8301 19.6925 13.1518C19.5189 12.9203 19.5189 12.7756 19.7215 12.5731C20.2712 12.0233 20.7921 11.4735 21.3419 10.9237C21.4866 10.779 21.5444 10.6344 21.4287 10.4318C20.7921 9.21651 19.924 8.20376 18.7955 7.39355C18.7087 7.33568 18.6219 7.24887 18.5062 7.191C18.593 7.10419 18.6798 7.04632 18.7377 6.98845C19.8372 6.14931 20.9368 5.33911 22.0363 4.49997C22.21 4.35529 22.3546 4.29741 22.5572 4.49997C25.3061 6.98845 26.7818 10.0846 26.9265 13.8173C26.9844 15.9875 26.4925 18.0419 25.5086 19.9807C25.4218 20.0964 25.335 20.2411 25.2482 20.4436Z" fill="#231815"/>
</g>
<defs>
<clipPath id="clip0_508_113">
<rect width="25.9844" height="26.3" fill="white" transform="translate(1 1)"/>
</clipPath>
</defs>
</svg>
