<svg width="22" height="18" viewBox="0 0 22 18" fill="none" xmlns="http://www.w3.org/2000/svg">
<path d="M1 18C0.716667 18 0.479167 17.9042 0.2875 17.7125C0.0958333 17.5208 0 17.2833 0 17C0 16.7167 0.0958333 16.4792 0.2875 16.2875C0.479167 16.0958 0.716667 16 1 16H21C21.2833 16 21.5208 16.0958 21.7125 16.2875C21.9042 16.4792 22 16.7167 22 17C22 17.2833 21.9042 17.5208 21.7125 17.7125C21.5208 17.9042 21.2833 18 21 18H1ZM3 15C2.45 15 1.97917 14.8042 1.5875 14.4125C1.19583 14.0208 1 13.55 1 13V2C1 1.45 1.19583 0.979167 1.5875 0.5875C1.97917 0.195833 2.45 0 3 0H19C19.55 0 20.0208 0.195833 20.4125 0.5875C20.8042 0.979167 21 1.45 21 2V13C21 13.55 20.8042 14.0208 20.4125 14.4125C20.0208 14.8042 19.55 15 19 15H3Z" fill="#5F6368"/>
</svg>
