<svg width="16" height="16" viewBox="0 0 16 16" fill="none" xmlns="http://www.w3.org/2000/svg">
<path d="M7.66732 8.33301V11.2497C7.66732 11.3441 7.69892 11.4233 7.76211 11.4872C7.82516 11.5511 7.90343 11.583 7.9969 11.583C8.09023 11.583 8.16975 11.5511 8.23544 11.4872C8.30114 11.4233 8.33398 11.3441 8.33398 11.2497V8.33301H11.2507C11.3451 8.33301 11.4243 8.30141 11.4882 8.23822C11.552 8.17516 11.584 8.0969 11.584 8.00342C11.584 7.91009 11.552 7.83058 11.4882 7.76488C11.4243 7.69919 11.3451 7.66634 11.2507 7.66634H8.33398V4.74967C8.33398 4.65523 8.30239 4.57606 8.23919 4.51217C8.17614 4.44829 8.09787 4.41634 8.0044 4.41634C7.91107 4.41634 7.83155 4.44829 7.76586 4.51217C7.70017 4.57606 7.66732 4.65523 7.66732 4.74967V7.66634H4.75065C4.65621 7.66634 4.57704 7.69794 4.51315 7.76113C4.44926 7.82419 4.41732 7.90245 4.41732 7.99592C4.41732 8.08926 4.44926 8.16877 4.51315 8.23447C4.57704 8.30016 4.65621 8.33301 4.75065 8.33301H7.66732ZM8.00919 15.1663C7.02378 15.1663 6.09537 14.98 5.22398 14.6072C4.35273 14.2344 3.58982 13.7211 2.93523 13.0672C2.28065 12.4133 1.76683 11.6513 1.39378 10.7813C1.02058 9.91148 0.833984 8.98204 0.833984 7.99301C0.833984 7.00384 1.02037 6.07703 1.39315 5.21259C1.76593 4.34828 2.27926 3.58884 2.93315 2.93426C3.58704 2.27967 4.34898 1.76585 5.21898 1.3928C6.08885 1.0196 7.01829 0.833008 8.00732 0.833008C8.99648 0.833008 9.92329 1.0194 10.7877 1.39218C11.652 1.76495 12.4115 2.27829 13.0661 2.93217C13.7207 3.58606 14.2345 4.34634 14.6075 5.21301C14.9807 6.07967 15.1673 7.00572 15.1673 7.99113C15.1673 8.97655 14.9809 9.90495 14.6082 10.7763C14.2354 11.6476 13.722 12.4105 13.0682 13.0651C12.4143 13.7197 11.654 14.2335 10.7873 14.6066C9.92065 14.9797 8.99461 15.1663 8.00919 15.1663ZM8.00065 14.4997C9.80621 14.4997 11.3409 13.8677 12.6048 12.6038C13.8687 11.34 14.5007 9.80523 14.5007 7.99967C14.5007 6.19412 13.8687 4.6594 12.6048 3.39551C11.3409 2.13162 9.80621 1.49967 8.00065 1.49967C6.1951 1.49967 4.66037 2.13162 3.39648 3.39551C2.1326 4.6594 1.50065 6.19412 1.50065 7.99967C1.50065 9.80523 2.1326 11.34 3.39648 12.6038C4.66037 13.8677 6.1951 14.4997 8.00065 14.4997Z" fill="#5F6368"/>
</svg>
