<svg width="14" height="14" viewBox="0 0 14 14" fill="none" xmlns="http://www.w3.org/2000/svg">
<path d="M7.07695 13.1998C5.35612 13.1998 3.89254 12.597 2.6862 11.3913C1.48004 10.1856 0.876953 8.7228 0.876953 7.0028C0.876953 5.2828 1.48004 3.81897 2.6862 2.61131C3.89254 1.40364 5.35612 0.799805 7.07695 0.799805C8.19862 0.799805 9.21562 1.06964 10.128 1.6093C11.0401 2.14914 11.7718 2.85814 12.323 3.73631V0.799805H13.123V5.03055H8.8922V4.23055H11.6672C11.1967 3.43305 10.5602 2.79522 9.7577 2.31705C8.95504 1.83889 8.06145 1.5998 7.07695 1.5998C5.57695 1.5998 4.30195 2.1248 3.25195 3.1748C2.20195 4.2248 1.67695 5.4998 1.67695 6.9998C1.67695 8.4998 2.20195 9.77481 3.25195 10.8248C4.30195 11.8748 5.57695 12.3998 7.07695 12.3998C8.47695 12.3998 9.67695 11.9373 10.677 11.0123C11.677 10.0873 12.252 8.94981 12.402 7.5998H13.2135C13.0891 9.1973 12.443 10.53 11.275 11.5978C10.107 12.6658 8.70762 13.1998 7.07695 13.1998Z" fill="#D7D7D7"/>
</svg>
