<svg width="11" height="12" viewBox="0 0 11 12" fill="none" xmlns="http://www.w3.org/2000/svg">
<path d="M9.87878 6.33362H1.1669C1.07204 6.33362 0.992804 6.30223 0.929193 6.23945C0.865721 6.17667 0.833984 6.09841 0.833984 6.00466C0.833984 5.91091 0.865721 5.83119 0.929193 5.76549C0.992804 5.6998 1.07204 5.66695 1.1669 5.66695H9.87878L5.75898 1.54716C5.69468 1.48285 5.65718 1.40605 5.64648 1.31674C5.63579 1.22757 5.66947 1.1407 5.74753 1.05612C5.82544 0.974032 5.90635 0.93563 5.99023 0.940908C6.07412 0.946325 6.15371 0.98681 6.22898 1.06237L10.7502 5.58966C10.8147 5.6541 10.8616 5.71952 10.8909 5.78591C10.9203 5.85216 10.935 5.92473 10.935 6.00362C10.935 6.08251 10.9203 6.15507 10.8909 6.22132C10.8616 6.28757 10.8175 6.35014 10.7586 6.40903L6.23294 10.9347C6.15503 11.0126 6.0776 11.0508 6.00065 11.0492C5.92371 11.0476 5.84628 11.0057 5.76836 10.9236C5.6903 10.839 5.65128 10.7563 5.65128 10.6755C5.65128 10.5947 5.6903 10.5176 5.76836 10.4442L9.87878 6.33362Z" fill="#5F6368"/>
</svg>
