<svg width="16" height="17" viewBox="0 0 16 17" fill="none" xmlns="http://www.w3.org/2000/svg">
<path d="M10.7999 9.56667H1.06667C0.477563 9.56667 0 9.0891 0 8.5C0 7.9109 0.477563 7.43333 1.06667 7.43333H10.7999C11.3412 7.43333 11.6122 6.7789 11.2295 6.39615L7.71954 2.88621C7.28533 2.452 7.28533 1.748 7.71954 1.31379C8.16438 0.868955 8.88935 0.881451 9.31859 1.34135L14.8592 7.2777C15.5016 7.96597 15.5016 9.03403 14.8592 9.7223L9.31859 15.6587C8.88935 16.1185 8.16438 16.131 7.71954 15.6862C7.28533 15.252 7.28533 14.548 7.71954 14.1138L11.2295 10.6038C11.6122 10.2211 11.3412 9.56667 10.7999 9.56667Z" fill="#414141"/>
</svg>
