<svg width="11" height="11" viewBox="0 0 11 11" fill="none" xmlns="http://www.w3.org/2000/svg">
<path d="M4.35958 8.71792C3.15194 8.71792 2.1234 8.29326 1.27396 7.44396C0.424653 6.59451 0 5.56618 0 4.35896C0 3.15174 0.424653 2.1234 1.27396 1.27396C2.1234 0.424652 3.15174 0 4.35896 0C5.56618 0 6.59451 0.424652 7.44396 1.27396C8.29326 2.1234 8.71792 3.15194 8.71792 4.35958C8.71792 4.88847 8.62576 5.40146 8.44146 5.89854C8.25715 6.39562 8.01222 6.83646 7.70667 7.22104L10.1959 9.64388C10.2738 9.72194 10.3155 9.79673 10.3209 9.86826C10.3262 9.93992 10.2845 10.0201 10.1959 10.1087C10.1071 10.1973 10.0262 10.2416 9.95298 10.2416C9.87992 10.2416 9.79902 10.1973 9.71027 10.1087L7.22104 7.70667C6.80438 8.03361 6.3475 8.28389 5.85042 8.4575C5.35333 8.63111 4.85639 8.71792 4.35958 8.71792ZM4.35896 8.05125C5.39521 8.05125 6.26965 7.69493 6.98229 6.98229C7.69493 6.26979 8.05125 5.39535 8.05125 4.35896C8.05125 3.32257 7.69493 2.44813 6.98229 1.73563C6.26965 1.02299 5.39521 0.666667 4.35896 0.666667C3.32257 0.666667 2.44813 1.02299 1.73563 1.73563C1.02299 2.44813 0.666667 3.32257 0.666667 4.35896C0.666667 5.39535 1.02299 6.26979 1.73563 6.98229C2.44813 7.69493 3.32257 8.05125 4.35896 8.05125Z" fill="#5F6368"/>
</svg>
