<svg width="16" height="18" viewBox="0 0 16 18" fill="none" xmlns="http://www.w3.org/2000/svg">
<path d="M7.13369 17.6004C7.06835 17.6004 7.0126 17.5908 6.96644 17.5716C6.92027 17.5523 6.88502 17.5119 6.86069 17.4504L6.44719 15.0581C5.96135 14.8953 5.44952 14.669 4.91169 14.3791C4.37385 14.0895 3.90819 13.7601 3.51469 13.3909L1.27419 14.2139C1.22935 14.2074 1.1771 14.1968 1.11744 14.1821C1.05777 14.1673 1.01902 14.133 1.00119 14.0791L0.0971861 12.5216C0.0793528 12.4678 0.0697696 12.4175 0.0684363 12.3706C0.067103 12.3238 0.0831029 12.2792 0.116436 12.2369L1.93769 10.6869C1.89152 10.4229 1.85052 10.1492 1.81469 9.86589C1.77869 9.58256 1.76069 9.30047 1.76069 9.01964C1.76069 8.75164 1.77869 8.47922 1.81469 8.20239C1.85052 7.92539 1.89152 7.62922 1.93769 7.31389L0.116436 5.76389C0.0831029 5.72156 0.0702694 5.67381 0.077936 5.62064C0.0857694 5.56747 0.0986029 5.51389 0.116436 5.45989L1.00119 3.95989C1.01902 3.91889 1.05777 3.88781 1.11744 3.86664C1.1771 3.84547 1.22935 3.83172 1.27419 3.82539L3.49544 4.62914C3.92744 4.24714 4.39635 3.91447 4.90219 3.63114C5.40785 3.34781 5.91644 3.11831 6.42794 2.94264L6.86069 0.550391C6.88502 0.488891 6.92027 0.448475 6.96644 0.429141C7.0126 0.409975 7.06835 0.400391 7.13369 0.400391H8.86469C8.93002 0.400391 8.98577 0.409975 9.03194 0.429141C9.0781 0.448475 9.11335 0.488891 9.13769 0.550391L9.55119 2.96189C10.1012 3.16322 10.6066 3.39272 11.0674 3.65039C11.5283 3.90806 11.9812 4.23431 12.4262 4.62914L14.7434 3.82539C14.7883 3.83172 14.8405 3.84547 14.9002 3.86664C14.9599 3.88781 14.9986 3.91889 15.0164 3.95989L15.9012 5.47914C15.919 5.53297 15.9286 5.58331 15.9299 5.63014C15.9313 5.67697 15.9153 5.72156 15.8819 5.76389L13.9837 7.37164C14.0555 7.66131 14.103 7.93822 14.1262 8.20239C14.1492 8.46639 14.1607 8.73239 14.1607 9.00039C14.1607 9.25556 14.1459 9.51514 14.1164 9.77914C14.0869 10.0433 14.0491 10.3395 14.0029 10.6676L15.8434 12.2369C15.8768 12.2792 15.896 12.3238 15.9012 12.3706C15.9062 12.4175 15.8998 12.4678 15.8819 12.5216L15.0164 14.0599C14.9986 14.1139 14.9566 14.1482 14.8904 14.1629C14.8244 14.1776 14.769 14.1881 14.7242 14.1946L12.4262 13.3716C11.9812 13.7665 11.5219 14.0991 11.0482 14.3696C10.5745 14.6401 10.0755 14.8632 9.55119 15.0389L9.13769 17.4504C9.11335 17.5119 9.0781 17.5523 9.03194 17.5716C8.98577 17.5908 8.93002 17.6004 8.86469 17.6004H7.13369ZM7.92219 11.6004C8.65302 11.6004 9.2691 11.3497 9.77044 10.8484C10.2716 10.3472 10.5222 9.73122 10.5222 9.00039C10.5222 8.26956 10.2716 7.65356 9.77044 7.15239C9.2691 6.65106 8.65302 6.40039 7.92219 6.40039C7.20435 6.40039 6.59152 6.65106 6.08369 7.15239C5.57602 7.65356 5.32219 8.26956 5.32219 9.00039C5.32219 9.73122 5.57602 10.3472 6.08369 10.8484C6.59152 11.3497 7.20435 11.6004 7.92219 11.6004Z" fill="#D7D7D7"/>
</svg>
