<svg width="12" height="12" viewBox="0 0 12 12" fill="none" xmlns="http://www.w3.org/2000/svg">
<path d="M8.53174 5.70474L6.31383 3.4787C6.24966 3.41439 6.20293 3.34849 6.17362 3.28099C6.14418 3.21335 6.12945 3.14092 6.12945 3.0637C6.12945 2.98648 6.14418 2.91481 6.17362 2.8487C6.20293 2.78259 6.24695 2.72016 6.3057 2.66141L8.53174 0.435364C8.5905 0.376614 8.65848 0.329114 8.7357 0.292864C8.81307 0.256476 8.89036 0.238281 8.96758 0.238281C9.0448 0.238281 9.11647 0.256476 9.18258 0.292864C9.24869 0.329114 9.31112 0.376614 9.36987 0.435364L11.5878 2.66141C11.652 2.72571 11.6987 2.79161 11.728 2.85911C11.7574 2.92675 11.7722 2.99918 11.7722 3.07641C11.7722 3.15363 11.7574 3.2253 11.728 3.29141C11.6987 3.35752 11.6547 3.41995 11.5959 3.4787L9.36987 5.70474C9.31112 5.76349 9.24793 5.81099 9.18029 5.84724C9.11279 5.88363 9.04043 5.90182 8.9632 5.90182C8.88598 5.90182 8.80945 5.88363 8.73362 5.84724C8.65779 5.81099 8.5905 5.76349 8.53174 5.70474ZM0.345703 4.09016V0.941406C0.345703 0.774462 0.402162 0.63342 0.515078 0.518281C0.627995 0.403142 0.767856 0.345572 0.934662 0.345572H4.08341C4.25036 0.345572 4.3914 0.402031 4.50654 0.514947C4.62168 0.627864 4.67924 0.767725 4.67924 0.934531V4.08328C4.67924 4.25023 4.62279 4.39127 4.50987 4.50641C4.39695 4.62155 4.25709 4.67911 4.09029 4.67911H0.941537C0.774592 4.67911 0.63355 4.62266 0.518411 4.50974C0.403272 4.39682 0.345703 4.25696 0.345703 4.09016ZM7.32008 11.0645V7.91578C7.32008 7.74884 7.37654 7.6078 7.48945 7.49266C7.60237 7.37752 7.74223 7.31995 7.90904 7.31995H11.0578C11.2247 7.31995 11.3658 7.37641 11.4809 7.48932C11.5961 7.60224 11.6536 7.7421 11.6536 7.90891V11.0577C11.6536 11.2246 11.5972 11.3656 11.4842 11.4808C11.3713 11.5959 11.2315 11.6535 11.0647 11.6535H7.91591C7.74897 11.6535 7.60793 11.597 7.49279 11.4841C7.37765 11.3712 7.32008 11.2313 7.32008 11.0645ZM0.345703 11.0645V7.91578C0.345703 7.74884 0.402162 7.6078 0.515078 7.49266C0.627995 7.37752 0.767856 7.31995 0.934662 7.31995H4.08341C4.25036 7.31995 4.3914 7.37641 4.50654 7.48932C4.62168 7.60224 4.67924 7.7421 4.67924 7.90891V11.0577C4.67924 11.2246 4.62279 11.3656 4.50987 11.4808C4.39695 11.5959 4.25709 11.6535 4.09029 11.6535H0.941537C0.774592 11.6535 0.63355 11.597 0.518411 11.4841C0.403272 11.3712 0.345703 11.2313 0.345703 11.0645ZM1.01258 4.01245H4.01258V1.01245H1.01258V4.01245ZM8.96112 5.19495L11.0653 3.06995L8.96112 0.944948L6.83612 3.06995L8.96112 5.19495ZM7.98675 10.9866H10.9867V7.98661H7.98675V10.9866ZM1.01258 10.9866H4.01258V7.98661H1.01258V10.9866Z" fill="#5F6368"/>
</svg>
