<svg width="14" height="14" viewBox="0 0 14 14" fill="none" xmlns="http://www.w3.org/2000/svg">
<path d="M4.91289 5.45033C5.20136 5.10838 5.52595 4.8506 5.88664 4.67699C6.24747 4.50338 6.61838 4.41658 6.99935 4.41658C7.40102 4.41658 7.77706 4.50338 8.12747 4.67699C8.47789 4.8506 8.79734 5.10838 9.08581 5.45033L12.9946 3.31408L7.58914 0.280326C7.39567 0.17352 7.20254 0.120117 7.00977 0.120117C6.81699 0.120117 6.62386 0.17352 6.43039 0.280326L0.983307 3.31408L4.91289 5.45033ZM6.66602 13.8268V9.59616C6.01324 9.49352 5.47504 9.20151 5.05143 8.72012C4.62782 8.23873 4.41602 7.66699 4.41602 7.00491C4.41602 6.83449 4.43095 6.67567 4.46081 6.52845C4.49081 6.38123 4.53734 6.22428 4.60039 6.05762L0.666016 3.86366V9.83095C0.666016 10.0526 0.722127 10.2548 0.834349 10.4374C0.946432 10.62 1.09386 10.7579 1.27664 10.851L6.66602 13.8268ZM7.00977 8.91658C7.53685 8.91658 7.98636 8.72963 8.35831 8.35574C8.73011 7.98185 8.91602 7.52991 8.91602 6.99991C8.91602 6.45185 8.73011 5.9954 8.35831 5.63053C7.98636 5.26567 7.53685 5.08324 7.00977 5.08324C6.48254 5.08324 6.02956 5.26567 5.65081 5.63053C5.27206 5.9954 5.08268 6.44838 5.08268 6.98949C5.08268 7.5306 5.27206 7.98706 5.65081 8.35887C6.02956 8.73067 6.48254 8.91658 7.00977 8.91658ZM7.33268 13.8268L12.7429 10.8301C12.9257 10.7371 13.0696 10.5997 13.1748 10.418C13.28 10.2362 13.3327 10.0322 13.3327 9.80595V3.86366L9.39831 6.06033C9.46136 6.23824 9.50789 6.39706 9.53789 6.53678C9.56775 6.67651 9.58268 6.83088 9.58268 6.99991C9.58268 7.66324 9.37435 8.23616 8.95768 8.71866C8.54102 9.20102 7.99935 9.49352 7.33268 9.59616V13.8268Z" fill="#5F6368"/>
</svg>
