<svg width="12" height="11" viewBox="0 0 12 11" fill="none" xmlns="http://www.w3.org/2000/svg">
<path d="M5.66684 9.87804V1.16617C5.66684 1.07131 5.69823 0.992072 5.76101 0.92846C5.82379 0.864988 5.90205 0.833252 5.9958 0.833252C6.08955 0.833252 6.16927 0.864988 6.23497 0.92846C6.30066 0.992072 6.33351 1.07131 6.33351 1.16617V9.87804L10.4533 5.75825C10.5176 5.69395 10.5944 5.65645 10.6837 5.64575C10.7729 5.63506 10.8598 5.66874 10.9443 5.74679C11.0264 5.82471 11.0648 5.90561 11.0595 5.9895C11.0541 6.07339 11.0136 6.15297 10.9381 6.22825L6.4108 10.7495C6.34635 10.8139 6.28094 10.8608 6.21455 10.8901C6.1483 10.9196 6.07573 10.9343 5.99684 10.9343C5.91795 10.9343 5.84538 10.9196 5.77913 10.8901C5.71288 10.8608 5.65031 10.8167 5.59142 10.7578L1.0658 6.23221C0.987883 6.15429 0.949688 6.07339 0.951216 5.9895C0.952883 5.90561 0.994758 5.82471 1.07684 5.74679C1.16142 5.66874 1.24413 5.62971 1.32497 5.62971C1.4058 5.62971 1.48288 5.66874 1.55622 5.74679L5.66684 9.87804Z" fill="#D7D7D7"/>
</svg>
