<svg width="24" height="24" viewBox="0 0 24 24" fill="none" xmlns="http://www.w3.org/2000/svg">
<g clip-path="url(#clip0_269_2477)">
<path d="M12 24C18.6274 24 24 18.6274 24 12C24 5.37258 18.6274 0 12 0C5.37258 0 0 5.37258 0 12C0 18.6274 5.37258 24 12 24Z" fill="#2775C9"/>
<path d="M23.5 12C23.5 18.3513 18.3513 23.5 12 23.5C5.64873 23.5 0.5 18.3513 0.5 12C0.5 5.64873 5.64873 0.5 12 0.5C18.3513 0.5 23.5 5.64873 23.5 12Z" stroke="black" stroke-opacity="0.097"/>
<path fill-rule="evenodd" clip-rule="evenodd" d="M11.28 7.5441V6.7947C11.28 6.39705 11.6024 6.0747 12 6.0747C12.3976 6.0747 12.72 6.39705 12.72 6.7947V7.5415C14.0229 7.73767 14.9161 8.47842 15.1546 9.53387C15.2063 9.76277 15.0626 9.99026 14.8337 10.0419C14.803 10.0489 14.7716 10.0524 14.7401 10.0524H14.3506C14.0354 10.0524 13.7486 9.87037 13.6144 9.58517C13.366 9.05712 12.7772 8.75306 11.9931 8.75306C11.0125 8.75306 10.3508 9.23431 10.3508 9.95618C10.3508 10.5337 10.79 10.8705 11.8547 11.1232L12.8533 11.3518C14.6159 11.7548 15.3618 12.4827 15.3618 13.7761C15.3618 15.2093 14.3613 16.1786 12.72 16.4071V17.2747C12.72 17.6723 12.3976 17.9947 12 17.9947C11.6024 17.9947 11.28 17.6723 11.28 17.2747V16.4207C9.8262 16.2452 8.84433 15.4757 8.61369 14.2984C8.57574 14.1047 8.70201 13.9169 8.89572 13.879C8.91835 13.8745 8.94136 13.8723 8.96443 13.8723L9.55574 13.8724C9.82337 13.8724 10.0671 14.0264 10.182 14.2681C10.4543 14.8406 11.1509 15.1958 12.0232 15.1958C13.0699 15.1958 13.7978 14.6784 13.7978 13.9566C13.7978 13.3309 13.3526 12.97 12.2578 12.7113L11.1329 12.4466C9.5327 12.0797 8.77473 11.3097 8.77473 10.0705C8.77473 8.736 9.78205 7.77645 11.28 7.5441ZM3 11.9999C3 8.02855 5.59223 4.66033 9.18314 3.48258C9.40993 3.4082 9.65407 3.53175 9.72845 3.75854C9.74271 3.80201 9.74997 3.84746 9.74997 3.89321L9.74998 4.14687C9.74998 4.53353 9.51544 4.88154 9.15705 5.02667C6.39432 6.14544 4.44643 8.84607 4.44643 11.9999C4.44643 15.1522 6.39244 17.8517 9.15306 18.9714C9.5139 19.1178 9.74998 19.4683 9.74998 19.8577L9.74999 20.0692C9.74999 20.3228 9.54445 20.5283 9.29089 20.5283C9.24162 20.5283 9.19266 20.5204 9.14591 20.5049C5.57432 19.3161 3 15.9574 3 11.9999ZM21 11.9999C21 15.9481 18.4379 19.3002 14.8794 20.4964C14.6295 20.5804 14.3589 20.4459 14.2749 20.196C14.2584 20.147 14.25 20.0956 14.25 20.0439V19.8744C14.25 19.4756 14.4914 19.1165 14.8606 18.9659C17.614 17.8428 19.5536 15.1469 19.5536 11.9999C19.5536 8.85575 17.6176 6.16204 14.8684 5.03703C14.4944 4.88397 14.25 4.51996 14.25 4.11583V3.9613C14.25 3.6955 14.4655 3.48003 14.7313 3.48003C14.7835 3.48003 14.8354 3.48854 14.8849 3.50521C18.4405 4.70299 21 8.05369 21 11.9999Z" fill="white"/>
</g>
<defs>
<clipPath id="clip0_269_2477">
<rect width="24" height="24" fill="white"/>
</clipPath>
</defs>
</svg>
