<svg width="16" height="16" viewBox="0 0 16 16" fill="none" xmlns="http://www.w3.org/2000/svg">
<path d="M7.66634 11.5834H8.33301V8.33337H11.583V7.66671H8.33301V4.41671H7.66634V7.66671H4.41634V8.33337H7.66634V11.5834ZM8.00822 15.1667C7.0228 15.1667 6.0944 14.9803 5.22301 14.6075C4.35176 14.2348 3.58884 13.7214 2.93426 13.0675C2.27967 12.4137 1.76585 11.6517 1.3928 10.7817C1.0196 9.91185 0.833008 8.9824 0.833008 7.99337C0.833008 7.00421 1.0194 6.0774 1.39217 5.21296C1.76495 4.34865 2.27829 3.58921 2.93217 2.93462C3.58606 2.28004 4.34801 1.76622 5.21801 1.39317C6.08787 1.01997 7.01731 0.833374 8.00634 0.833374C8.99551 0.833374 9.92231 1.01976 10.7868 1.39254C11.6511 1.76532 12.4105 2.27865 13.0651 2.93254C13.7197 3.58643 14.2335 4.34671 14.6066 5.21337C14.9797 6.08004 15.1663 7.00608 15.1663 7.9915C15.1663 8.97692 14.98 9.90532 14.6072 10.7767C14.2344 11.648 13.7211 12.4109 13.0672 13.0655C12.4133 13.72 11.653 14.2339 10.7863 14.6069C9.91967 14.9801 8.99363 15.1667 8.00822 15.1667Z" fill="#FFD74A"/>
</svg>
